{
copyright = "Copyright (c) 2015, Cadson Demak (info@cadsondemak.com)";
customParameters = (
{
name = description;
value = "Copyright (c) 2015, Cadson Demak (info@cadsondemak.com)";
},
{
name = license;

glyphs = (
{
glyphname = A;
lastChange = "2015-07-18 13:08:33 +0000";
layers = (
{
layerId = "CB7AEA60-8A82-4B68-BB53-DB0CB6827011";
name = SemiBold;
paths = (
{
closed = 1;
nodes = (
"198 0 LINE SMOOTH",
"219 0 OFFCURVE",
"228 8 OFFCURVE",
"234 24 CURVE SMOOTH",
"268 120 LINE",
"478 120 LINE",
"513 24 LINE SMOOTH",
"519 8 OFFCURVE",
"528 0 OFFCURVE",
"548 0 CURVE SMOOTH",
"703 0 LINE SMOOTH",
"724 0 OFFCURVE",
"728 17 OFFCURVE",
"719 38 CURVE SMOOTH",
"465 646 LINE SMOOTH",
"455 671 OFFCURVE",
"445 680 OFFCURVE",
"419 680 CURVE SMOOTH",
"328 680 LINE SMOOTH",
"303 680 OFFCURVE",
"292 671 OFFCURVE",
"282 646 CURVE SMOOTH",
"28 38 LINE SMOOTH",
"19 17 OFFCURVE",
"22 0 OFFCURVE",
"44 0 CURVE SMOOTH"
);
},
{
closed = 1;
nodes = (
"373 426 LINE",
"434 256 LINE",
"312 256 LINE"
);
}
);
width = 747;
}
);
note = A;
unicode = 0041;
},
{
glyphname = Aacute;
lastChange = "2015-07-18 13:08:43 +0000";
layers = (
{
layerId = "CB7AEA60-8A82-4B68-BB53-DB0CB6827011";
name = SemiBold;
paths = (
{
closed = 1;
nodes = (
"198 0 LINE SMOOTH",
"219 0 OFFCURVE",
"228 8 OFFCURVE",
"234 24 CURVE SMOOTH",
"268 120 LINE",
"478 120 LINE",
"513 24 LINE SMOOTH",
"519 8 OFFCURVE",
"528 0 OFFCURVE",
"548 0 CURVE SMOOTH",
"703 0 LINE SMOOTH",
"724 0 OFFCURVE",
"728 17 OFFCURVE",
"719 38 CURVE SMOOTH",
"465 646 LINE SMOOTH",
"455 671 OFFCURVE",
"445 680 OFFCURVE",
"419 680 CURVE SMOOTH",
"328 680 LINE SMOOTH",
"303 680 OFFCURVE",
"292 671 OFFCURVE",
"282 646 CURVE SMOOTH",
"28 38 LINE SMOOTH",
"19 17 OFFCURVE",
"22 0 OFFCURVE",
"44 0 CURVE SMOOTH"
);
},
{
closed = 1;
nodes = (
"373 426 LINE",
"434 256 LINE",
"312 256 LINE"
);
},
{
closed = 1;
nodes = (
"408 717 LINE SMOOTH",
"448 717 OFFCURVE",
"456 724 OFFCURVE",
"471 750 CURVE SMOOTH",
"536 865 LINE SMOOTH",
"553 896 OFFCURVE",
"536 912 OFFCURVE",
"504 912 CURVE SMOOTH",
"384 912 LINE SMOOTH",
"347 912 OFFCURVE",
"341 902 OFFCURVE",
"332 878 CURVE SMOOTH",
"288 757 LINE SMOOTH",
"280 734 OFFCURVE",
"288 717 OFFCURVE",
"319 717 CURVE SMOOTH"
);
}
);
width = 747;
}
);
note = Aacute;
unicode = 00C1;
},
{
glyphname = Abreve;
lastChange = "2015-07-18 13:08:43 +0000";
layers = (
{
layerId = "CB7AEA60-8A82-4B68-BB53-DB0CB6827011";
name = SemiBold;
paths = (
{
closed = 1;
nodes = (
"198 0 LINE SMOOTH",
"219 0 OFFCURVE",
"228 8 OFFCURVE",
"234 24 CURVE SMOOTH",
"268 120 LINE",
"478 120 LINE",
"513 24 LINE SMOOTH",
"519 8 OFFCURVE",
"528 0 OFFCURVE",
"548 0 CURVE SMOOTH",
"703 0 LINE SMOOTH",
"724 0 OFFCURVE",
"728 17 OFFCURVE",
"719 38 CURVE SMOOTH",
"465 646 LINE SMOOTH",
"455 671 OFFCURVE",
"445 680 OFFCURVE",
"419 680 CURVE SMOOTH",
"328 680 LINE SMOOTH",
"303 680 OFFCURVE",
"292 671 OFFCURVE",
"282 646 CURVE SMOOTH",
"28 38 LINE SMOOTH",
"19 17 OFFCURVE",
"22 0 OFFCURVE",
"44 0 CURVE SMOOTH"
);
},
{
closed = 1;
nodes = (
"373 426 LINE",
"434 256 LINE",
"312 256 LINE"
);
},
{
closed = 1;
nodes = (
"499 744 OFFCURVE",
"562 819 OFFCURVE",
"562 917 CURVE SMOOTH",
"562 928 OFFCURVE",
"556 935 OFFCURVE",
"546 935 CURVE SMOOTH",
"438 935 LINE SMOOTH",
"424 935 OFFCURVE",
"421 928 OFFCURVE",
"421 916 CURVE SMOOTH",
"421 885 OFFCURVE",
"406 867 OFFCURVE",
"373 867 CURVE SMOOTH",
"339 867 OFFCURVE",
"325 885 OFFCURVE",
"325 916 CURVE SMOOTH",
"325 928 OFFCURVE",
"322 935 OFFCURVE",
"308 935 CURVE SMOOTH",
"200 935 LINE SMOOTH",
"190 935 OFFCURVE",
"184 928 OFFCURVE",
"184 917 CURVE SMOOTH",
"184 819 OFFCURVE",
"245 744 OFFCURVE",
"373 744 CURVE SMOOTH"
);
}
);
width = 747;
}
);
note = Abreve;
unicode = 0102;
},
{
glyphname = Abreveacute;
lastChange = "2015-07-18 13:09:07 +0000";
layers = (
{
layerId = "CB7AEA60-8A82-4B68-BB53-DB0CB6827011";
name = SemiBold;
paths = (
{
closed = 1;
nodes = (
"198 0 LINE SMOOTH",
"219 0 OFFCURVE",
"228 8 OFFCURVE",
"234 24 CURVE SMOOTH",
"268 120 LINE",
"478 120 LINE",
"513 24 LINE SMOOTH",
"519 8 OFFCURVE",
"528 0 OFFCURVE",
"548 0 CURVE SMOOTH",
"703 0 LINE SMOOTH",
"724 0 OFFCURVE",
"728 17 OFFCURVE",
"719 38 CURVE SMOOTH",
"465 646 LINE SMOOTH",
"455 671 OFFCURVE",
"445 680 OFFCURVE",
"419 680 CURVE SMOOTH",
"328 680 LINE SMOOTH",
"303 680 OFFCURVE",
"292 671 OFFCURVE",
"282 646 CURVE SMOOTH",
"28 38 LINE SMOOTH",
"19 17 OFFCURVE",
"22 0 OFFCURVE",
"44 0 CURVE SMOOTH"
);
},
{
closed = 1;
nodes = (
"373 426 LINE",
"434 256 LINE",
"312 256 LINE"
);
},
{
closed = 1;
nodes = (
"494 727 OFFCURVE",
"562 797 OFFCURVE",
"562 885 CURVE SMOOTH",
"562 896 OFFCURVE",
"556 903 OFFCURVE",
"546 903 CURVE SMOOTH",
"455 903 LINE SMOOTH",
"441 903 OFFCURVE",
"438 896 OFFCURVE",
"438 884 CURVE SMOOTH",
"438 852 OFFCURVE",
"417 834 OFFCURVE",
"373 834 CURVE SMOOTH",
"328 834 OFFCURVE",
"308 852 OFFCURVE",
"308 884 CURVE SMOOTH",
"308 896 OFFCURVE",
"305 903 OFFCURVE",
"291 903 CURVE SMOOTH",
"200 903 LINE SMOOTH",
"190 903 OFFCURVE",
"184 896 OFFCURVE",
"184 885 CURVE SMOOTH",
"184 797 OFFCURVE",
"250 727 OFFCURVE",
"373 727 CURVE SMOOTH"
);
},
{
closed = 1;
nodes = (
"400 904 LINE SMOOTH",
"422 904 OFFCURVE",
"428 909 OFFCURVE",
"439 928 CURVE",
"485 1015 LINE SMOOTH",
"497 1038 OFFCURVE",
"492 1052 OFFCURVE",
"466 1052 CURVE SMOOTH",
"396 1052 LINE SMOOTH",
"366 1052 OFFCURVE",
"363 1047 OFFCURVE",
"355 1026 CURVE SMOOTH",
"322 933 LINE SMOOTH",
"316 917 OFFCURVE",
"319 904 OFFCURVE",
"341 904 CURVE SMOOTH"
);
}
);
width = 747;
}
);
note = Abreveacute;
unicode = 1EAE;
},
{
glyphname = Abrevedotbelow;
lastChange = "2015-07-18 13:08:43 +0000";
layers = (
{
layerId = "CB7AEA60-8A82-4B68-BB53-DB0CB6827011";
name = SemiBold;
paths = (
{
closed = 1;
nodes = (
"198 0 LINE SMOOTH",
"219 0 OFFCURVE",
"228 8 OFFCURVE",
"234 24 CURVE SMOOTH",
"268 120 LINE",
"478 120 LINE",
"513 24 LINE SMOOTH",
"519 8 OFFCURVE",
"528 0 OFFCURVE",
"548 0 CURVE SMOOTH",
"703 0 LINE SMOOTH",
"724 0 OFFCURVE",
"728 17 OFFCURVE",
"719 38 CURVE SMOOTH",
"465 646 LINE SMOOTH",
"455 671 OFFCURVE",
"445 680 OFFCURVE",
"419 680 CURVE SMOOTH",
"328 680 LINE SMOOTH",
"303 680 OFFCURVE",
"292 671 OFFCURVE",
"282 646 CURVE SMOOTH",
"28 38 LINE SMOOTH",
"19 17 OFFCURVE",
"22 0 OFFCURVE",
"44 0 CURVE SMOOTH"
);
},
{
closed = 1;
nodes = (
"388 -206 LINE SMOOTH",
"425 -206 OFFCURVE",
"449 -177 OFFCURVE",
"449 -142 CURVE SMOOTH",
"449 -117 LINE SMOOTH",
"449 -81 OFFCURVE",
"424 -53 OFFCURVE",
"388 -53 CURVE SMOOTH",
"361 -53 LINE SMOOTH",
"326 -53 OFFCURVE",
"300 -81 OFFCURVE",
"300 -117 CURVE SMOOTH",
"300 -142 LINE SMOOTH",
"300 -177 OFFCURVE",
"326 -206 OFFCURVE",
"361 -206 CURVE SMOOTH"
);
},
{
closed = 1;
nodes = (
"373 426 LINE",
"434 256 LINE",
"312 256 LINE"
);
},
{
closed = 1;
nodes = (
"499 732 OFFCURVE",
"562 807 OFFCURVE",
"562 905 CURVE SMOOTH",
"562 916 OFFCURVE",
"556 923 OFFCURVE",
"546 923 CURVE SMOOTH",
"438 923 LINE SMOOTH",
"424 923 OFFCURVE",
"421 916 OFFCURVE",
"421 904 CURVE SMOOTH",
"421 873 OFFCURVE",
"406 855 OFFCURVE",
"373 855 CURVE SMOOTH",
"339 855 OFFCURVE",
"325 873 OFFCURVE",
"325 904 CURVE SMOOTH",
"325 916 OFFCURVE",
"322 923 OFFCURVE",
"308 923 CURVE SMOOTH",
"200 923 LINE SMOOTH",
"190 923 OFFCURVE",
"184 916 OFFCURVE",
"184 905 CURVE SMOOTH",
"184 807 OFFCURVE",
"245 732 OFFCURVE",
"373 732 CURVE SMOOTH"
);
}
);
width = 747;
}
);
note = Abrevedotbelow;
unicode = 1EB6;
},
{
glyphname = Abrevegrave;
lastChange = "2015-07-18 13:16:14 +0000";
layers = (
{
layerId = "CB7AEA60-8A82-4B68-BB53-DB0CB6827011";
name = SemiBold;
paths = (
{
closed = 1;
nodes = (
"198 0 LINE SMOOTH",
"219 0 OFFCURVE",
"228 8 OFFCURVE",
"234 24 CURVE SMOOTH",
"268 120 LINE",
"478 120 LINE",
"513 24 LINE SMOOTH",
"519 8 OFFCURVE",
"528 0 OFFCURVE",
"548 0 CURVE SMOOTH",
"703 0 LINE SMOOTH",
"724 0 OFFCURVE",
"728 17 OFFCURVE",
"719 38 CURVE SMOOTH",
"465 646 LINE SMOOTH",
"455 671 OFFCURVE",
"445 680 OFFCURVE",
"419 680 CURVE SMOOTH",
"328 680 LINE SMOOTH",
"303 680 OFFCURVE",
"292 671 OFFCURVE",
"282 646 CURVE SMOOTH",
"28 38 LINE SMOOTH",
"19 17 OFFCURVE",
"22 0 OFFCURVE",
"44 0 CURVE SMOOTH"
);
},
{
closed = 1;
nodes = (
"373 426 LINE",
"434 256 LINE",
"312 256 LINE"
);
},
{
closed = 1;
nodes = (
"495 723 OFFCURVE",
"562 793 OFFCURVE",
"562 881 CURVE SMOOTH",
"562 892 OFFCURVE",
"556 899 OFFCURVE",
"546 899 CURVE SMOOTH",
"455 899 LINE SMOOTH",
"441 899 OFFCURVE",
"438 892 OFFCURVE",
"438 880 CURVE SMOOTH",
"438 848 OFFCURVE",
"417 830 OFFCURVE",
"373 830 CURVE SMOOTH",
"328 830 OFFCURVE",
"308 848 OFFCURVE",
"308 880 CURVE SMOOTH",
"308 892 OFFCURVE",
"305 899 OFFCURVE",
"291 899 CURVE SMOOTH",
"200 899 LINE SMOOTH",
"190 899 OFFCURVE",
"184 892 OFFCURVE",
"184 881 CURVE SMOOTH",
"184 793 OFFCURVE",
"251 723 OFFCURVE",
"373 723 CURVE SMOOTH"
);
},
{
closed = 1;
nodes = (
"405 900 LINE SMOOTH",
"427 900 OFFCURVE",
"429 913 OFFCURVE",
"423 929 CURVE SMOOTH",
"390 1022 LINE SMOOTH",
"383 1043 OFFCURVE",
"380 1048 OFFCURVE",
"350 1048 CURVE SMOOTH",
"280 1048 LINE SMOOTH",
"253 1048 OFFCURVE",
"249 1034 OFFCURVE",
"260 1011 CURVE",
"307 924 LINE SMOOTH",
"317 905 OFFCURVE",
"324 900 OFFCURVE",
"345 900 CURVE SMOOTH"
);
}
);
width = 747;
}
);
note = Abrevegrave;
unicode = 1EB0;
},
{
glyphname = Abrevehookabove;
lastChange = "2015-07-18 13:08:43 +0000";
layers = (
{
layerId = "CB7AEA60-8A82-4B68-BB53-DB0CB6827011";
name = SemiBold;
paths = (
{
closed = 1;
nodes = (
"198 0 LINE SMOOTH",
"219 0 OFFCURVE",
"228 8 OFFCURVE",
"234 24 CURVE SMOOTH",
"268 120 LINE",
"478 120 LINE",
"513 24 LINE SMOOTH",
"519 8 OFFCURVE",
"528 0 OFFCURVE",
"548 0 CURVE SMOOTH",
"703 0 LINE SMOOTH",
"724 0 OFFCURVE",
"728 17 OFFCURVE",
"719 38 CURVE SMOOTH",
"465 646 LINE SMOOTH",
"455 671 OFFCURVE",
"445 680 OFFCURVE",
"419 680 CURVE SMOOTH",
"328 680 LINE SMOOTH",
"303 680 OFFCURVE",
"292 671 OFFCURVE",
"282 646 CURVE SMOOTH",
"28 38 LINE SMOOTH",
"19 17 OFFCURVE",
"22 0 OFFCURVE",
"44 0 CURVE SMOOTH"
);
},
{
closed = 1;
nodes = (
"373 426 LINE",
"434 256 LINE",
"312 256 LINE"
);
},
{
closed = 1;
nodes = (
"495 722 OFFCURVE",
"562 792 OFFCURVE",
"562 880 CURVE SMOOTH",
"562 891 OFFCURVE",
"556 898 OFFCURVE",
"546 898 CURVE SMOOTH",
"455 898 LINE SMOOTH",
"441 898 OFFCURVE",
"438 891 OFFCURVE",
"438 879 CURVE SMOOTH",
"438 847 OFFCURVE",
"417 829 OFFCURVE",
"373 829 CURVE SMOOTH",
"328 829 OFFCURVE",
"308 847 OFFCURVE",
"308 879 CURVE SMOOTH",
"308 891 OFFCURVE",
"305 898 OFFCURVE",
"291 898 CURVE SMOOTH",
"200 898 LINE SMOOTH",
"190 898 OFFCURVE",
"184 891 OFFCURVE",
"184 880 CURVE SMOOTH",
"184 792 OFFCURVE",
"251 722 OFFCURVE",
"373 722 CURVE SMOOTH"
);
},
{
closed = 1;
nodes = (
"400 875 LINE SMOOTH",
"412 875 OFFCURVE",
"417 881 OFFCURVE",
"417 892 CURVE SMOOTH",
"417 910 LINE",
"453 910 OFFCURVE",
"483 934 OFFCURVE",
"483 978 CURVE SMOOTH",
"483 1027 OFFCURVE",
"447 1049 OFFCURVE",
"382 1049 CURVE SMOOTH",
"346 1049 OFFCURVE",
"309 1041 OFFCURVE",
"285 1028 CURVE SMOOTH",
"279 1025 OFFCURVE",
"280 1021 OFFCURVE",
"282 1017 CURVE",
"302 973 LINE",
"304 969 OFFCURVE",
"307 969 OFFCURVE",
"310 971 CURVE",
"323 979 OFFCURVE",
"340 984 OFFCURVE",
"358 984 CURVE SMOOTH",
"374 984 OFFCURVE",
"381 979 OFFCURVE",
"381 968 CURVE SMOOTH",
"381 954 OFFCURVE",
"371 950 OFFCURVE",
"349 950 CURVE SMOOTH",
"328 950 OFFCURVE",
"322 943 OFFCURVE",
"322 926 CURVE SMOOTH",
"322 892 LINE SMOOTH",
"322 881 OFFCURVE",
"327 875 OFFCURVE",
"339 875 CURVE SMOOTH"
);
}
);
width = 747;
}
);
note = Abrevehookabove;
unicode = 1EB2;
},
{
glyphname = Abrevetilde;
lastChange = "2015-07-18 13:08:43 +0000";
layers = (
{
layerId = "CB7AEA60-8A82-4B68-BB53-DB0CB6827011";
name = SemiBold;
paths = (
{
closed = 1;
nodes = (
"198 0 LINE SMOOTH",
"219 0 OFFCURVE",
"228 8 OFFCURVE",
"234 24 CURVE SMOOTH",
"268 120 LINE",
"478 120 LINE",
"513 24 LINE SMOOTH",
"519 8 OFFCURVE",
"528 0 OFFCURVE",
"548 0 CURVE SMOOTH",
"703 0 LINE SMOOTH",
"724 0 OFFCURVE",
"728 17 OFFCURVE",
"719 38 CURVE SMOOTH",
"465 646 LINE SMOOTH",
"455 671 OFFCURVE",
"445 680 OFFCURVE",
"419 680 CURVE SMOOTH",
"328 680 LINE SMOOTH",
"303 680 OFFCURVE",
"292 671 OFFCURVE",
"282 646 CURVE SMOOTH",
"28 38 LINE SMOOTH",
"19 17 OFFCURVE",
"22 0 OFFCURVE",
"44 0 CURVE SMOOTH"
);
},
{
closed = 1;
nodes = (
"373 426 LINE",
"434 256 LINE",
"312 256 LINE"
);
},
{
closed = 1;
nodes = (
"495 722 OFFCURVE",
"562 792 OFFCURVE",
"562 880 CURVE SMOOTH",
"562 891 OFFCURVE",
"556 898 OFFCURVE",
"546 898 CURVE SMOOTH",
"455 898 LINE SMOOTH",
"441 898 OFFCURVE",
"438 891 OFFCURVE",
"438 879 CURVE SMOOTH",
"438 847 OFFCURVE",
"417 829 OFFCURVE",
"373 829 CURVE SMOOTH",
"328 829 OFFCURVE",
"308 847 OFFCURVE",
"308 879 CURVE SMOOTH",
"308 891 OFFCURVE",
"305 898 OFFCURVE",
"291 898 CURVE SMOOTH",
"200 898 LINE SMOOTH",
"190 898 OFFCURVE",
"184 891 OFFCURVE",
"184 880 CURVE SMOOTH",
"184 792 OFFCURVE",
"251 722 OFFCURVE",
"373 722 CURVE SMOOTH"
);
},
{
closed = 1;
nodes = (
"496 918 OFFCURVE",
"520 933 OFFCURVE",
"550 974 CURVE SMOOTH",
"571 1002 OFFCURVE",
"564 1012 OFFCURVE",
"533 1036 CURVE SMOOTH",
"501 1060 OFFCURVE",
"487 1062 OFFCURVE",
"472 1043 CURVE",
"455 1023 OFFCURVE",
"444 1017 OFFCURVE",
"422 1017 CURVE SMOOTH",
"386 1017 OFFCURVE",
"353 1053 OFFCURVE",
"290 1053 CURVE SMOOTH",
"243 1053 OFFCURVE",
"211 1034 OFFCURVE",
"180 992 CURVE",
"161 969 OFFCURVE",
"164 960 OFFCURVE",
"195 935 CURVE SMOOTH",
"229 909 OFFCURVE",
"240 910 OFFCURVE",
"259 931 CURVE SMOOTH",
"276 949 OFFCURVE",
"287 953 OFFCURVE",
"310 953 CURVE SMOOTH",
"346 953 OFFCURVE",
"390 918 OFFCURVE",
"443 918 CURVE SMOOTH"
);
}
);
width = 747;
}
);
note = Abrevetilde;
unicode = 1EB4;
},
{
glyphname = Acaron;
lastChange = "2015-07-18 13:16:22 +0000";
layers = (
{
layerId = "CB7AEA60-8A82-4B68-BB53-DB0CB6827011";
name = SemiBold;
paths = (
{
closed = 1;
nodes = (
"198 0 LINE SMOOTH",
"219 0 OFFCURVE",
"228 8 OFFCURVE",
"234 24 CURVE SMOOTH",
"268 120 LINE",
"478 120 LINE",
"513 24 LINE SMOOTH",
"519 8 OFFCURVE",
"528 0 OFFCURVE",
"548 0 CURVE SMOOTH",
"703 0 LINE SMOOTH",
"724 0 OFFCURVE",
"728 17 OFFCURVE",
"719 38 CURVE SMOOTH",
"465 646 LINE SMOOTH",
"455 671 OFFCURVE",
"445 680 OFFCURVE",
"419 680 CURVE SMOOTH",
"328 680 LINE SMOOTH",
"303 680 OFFCURVE",
"292 671 OFFCURVE",
"282 646 CURVE SMOOTH",
"28 38 LINE SMOOTH",
"19 17 OFFCURVE",
"22 0 OFFCURVE",
"44 0 CURVE SMOOTH"
);
},
{
closed = 1;
nodes = (
"373 426 LINE",
"434 256 LINE",
"312 256 LINE"
);
},
{
closed = 1;
nodes = (
"423 738 LINE SMOOTH",
"458 738 OFFCURVE",
"462 744 OFFCURVE",
"477 764 CURVE SMOOTH",
"573 889 LINE SMOOTH",
"595 917 OFFCURVE",
"587 936 OFFCURVE",
"555 936 CURVE SMOOTH",
"478 936 LINE SMOOTH",
"445 936 OFFCURVE",
"436 930 OFFCURVE",
"423 911 CURVE SMOOTH",
"373 834 LINE",
"322 911 LINE SMOOTH",
"309 930 OFFCURVE",
"300 936 OFFCURVE",
"267 936 CURVE SMOOTH",
"190 936 LINE SMOOTH",
"158 936 OFFCURVE",
"150 917 OFFCURVE",
"172 889 CURVE SMOOTH",
"268 764 LINE SMOOTH",
"284 744 OFFCURVE",
"287 738 OFFCURVE",
"322 738 CURVE SMOOTH"
);
}
);
width = 747;
}
);
note = Acaron;
unicode = 01CD;
},
{
glyphname = Acircumflex;
lastChange = "2015-07-18 13:08:43 +0000";
layers = (
{
layerId = "CB7AEA60-8A82-4B68-BB53-DB0CB6827011";
name = SemiBold;
paths = (
{
closed = 1;
nodes = (
"198 0 LINE SMOOTH",
"219 0 OFFCURVE",
"228 8 OFFCURVE",
"234 24 CURVE SMOOTH",
"268 120 LINE",
"478 120 LINE",
"513 24 LINE SMOOTH",
"519 8 OFFCURVE",
"528 0 OFFCURVE",
"548 0 CURVE SMOOTH",
"703 0 LINE SMOOTH",
"724 0 OFFCURVE",
"728 17 OFFCURVE",
"719 38 CURVE SMOOTH",
"465 646 LINE SMOOTH",
"455 671 OFFCURVE",
"445 680 OFFCURVE",
"419 680 CURVE SMOOTH",
"328 680 LINE SMOOTH",
"303 680 OFFCURVE",
"292 671 OFFCURVE",
"282 646 CURVE SMOOTH",
"28 38 LINE SMOOTH",
"19 17 OFFCURVE",
"22 0 OFFCURVE",
"44 0 CURVE SMOOTH"
);
},
{
closed = 1;
nodes = (
"373 426 LINE",
"434 256 LINE",
"312 256 LINE"
);
},
{
closed = 1;
nodes = (
"267 718 LINE SMOOTH",
"300 718 OFFCURVE",
"310 725 OFFCURVE",
"322 744 CURVE SMOOTH",
"373 821 LINE",
"423 744 LINE SMOOTH",
"436 725 OFFCURVE",
"445 718 OFFCURVE",
"479 718 CURVE SMOOTH",
"554 718 LINE SMOOTH",
"585 718 OFFCURVE",
"595 737 OFFCURVE",
"573 765 CURVE SMOOTH",
"477 890 LINE SMOOTH",
"462 910 OFFCURVE",
"458 917 OFFCURVE",
"423 917 CURVE SMOOTH",
"322 917 LINE SMOOTH",
"287 917 OFFCURVE",
"284 910 OFFCURVE",
"268 890 CURVE SMOOTH",
"172 765 LINE SMOOTH",
"150 737 OFFCURVE",
"160 718 OFFCURVE",
"192 718 CURVE SMOOTH"
);
}
);
width = 747;
}
);
note = Acircumflex;
unicode = 00C2;
},
{
glyphname = Acircumflexacute;
lastChange = "2015-07-18 13:08:43 +0000";
layers = (
{
layerId = "CB7AEA60-8A82-4B68-BB53-DB0CB6827011";
name = SemiBold;
paths = (
{
closed = 1;
nodes = (
"198 0 LINE SMOOTH",
"219 0 OFFCURVE",
"228 8 OFFCURVE",
"234 24 CURVE SMOOTH",
"268 120 LINE",
"478 120 LINE",
"513 24 LINE SMOOTH",
"519 8 OFFCURVE",
"528 0 OFFCURVE",
"548 0 CURVE SMOOTH",
"703 0 LINE SMOOTH",
"724 0 OFFCURVE",
"728 17 OFFCURVE",
"719 38 CURVE SMOOTH",
"465 646 LINE SMOOTH",
"455 671 OFFCURVE",
"445 680 OFFCURVE",
"419 680 CURVE SMOOTH",
"328 680 LINE SMOOTH",
"303 680 OFFCURVE",
"292 671 OFFCURVE",
"282 646 CURVE SMOOTH",
"28 38 LINE SMOOTH",
"19 17 OFFCURVE",
"22 0 OFFCURVE",
"44 0 CURVE SMOOTH"
);
},
{
closed = 1;
nodes = (
"373 426 LINE",
"434 256 LINE",
"312 256 LINE"
);
},
{
closed = 1;
nodes = (
"271 723 LINE SMOOTH",
"304 723 OFFCURVE",
"314 729 OFFCURVE",
"326 748 CURVE",
"373 816 LINE",
"419 748 LINE SMOOTH",
"431 729 OFFCURVE",
"441 723 OFFCURVE",
"474 723 CURVE SMOOTH",
"545 723 LINE SMOOTH",
"577 723 OFFCURVE",
"586 742 OFFCURVE",
"564 770 CURVE SMOOTH",
"469 889 LINE SMOOTH",
"454 909 OFFCURVE",
"449 916 OFFCURVE",
"415 916 CURVE SMOOTH",
"330 916 LINE SMOOTH",
"296 916 OFFCURVE",
"292 909 OFFCURVE",
"276 889 CURVE SMOOTH",
"181 770 LINE SMOOTH",
"159 742 OFFCURVE",
"168 723 OFFCURVE",
"200 723 CURVE SMOOTH"
);
},
{
closed = 1;
nodes = (
"563 879 LINE SMOOTH",
"598 879 OFFCURVE",
"605 883 OFFCURVE",
"622 911 CURVE",
"664 986 LINE SMOOTH",
"680 1014 OFFCURVE",
"673 1033 OFFCURVE",
"643 1033 CURVE SMOOTH",
"569 1033 LINE SMOOTH",
"538 1033 OFFCURVE",
"533 1023 OFFCURVE",
"524 999 CURVE SMOOTH",
"492 912 LINE SMOOTH",
"485 894 OFFCURVE",
"494 879 OFFCURVE",
"519 879 CURVE SMOOTH"
);
}
);
width = 747;
}
);
note = Acircumflexacute;
unicode = 1EA4;
},
{
glyphname = Acircumflexdotbelow;
lastChange = "2015-07-18 13:08:43 +0000";
layers = (
{
layerId = "CB7AEA60-8A82-4B68-BB53-DB0CB6827011";
name = SemiBold;
paths = (
{
closed = 1;
nodes = (
"198 0 LINE SMOOTH",
"219 0 OFFCURVE",
"228 8 OFFCURVE",
"234 24 CURVE SMOOTH",
"268 120 LINE",
"478 120 LINE",
"513 24 LINE SMOOTH",
"519 8 OFFCURVE",
"528 0 OFFCURVE",
"548 0 CURVE SMOOTH",
"703 0 LINE SMOOTH",
"724 0 OFFCURVE",
"728 17 OFFCURVE",
"719 38 CURVE SMOOTH",
"465 646 LINE SMOOTH",
"455 671 OFFCURVE",
"445 680 OFFCURVE",
"419 680 CURVE SMOOTH",
"328 680 LINE SMOOTH",
"303 680 OFFCURVE",
"292 671 OFFCURVE",
"282 646 CURVE SMOOTH",
"28 38 LINE SMOOTH",
"19 17 OFFCURVE",
"22 0 OFFCURVE",
"44 0 CURVE SMOOTH"
);
},
{
closed = 1;
nodes = (
"386 -206 LINE SMOOTH",
"423 -206 OFFCURVE",
"447 -177 OFFCURVE",
"447 -142 CURVE SMOOTH",
"447 -117 LINE SMOOTH",
"447 -81 OFFCURVE",
"422 -53 OFFCURVE",
"386 -53 CURVE SMOOTH",
"359 -53 LINE SMOOTH",
"324 -53 OFFCURVE",
"298 -81 OFFCURVE",
"298 -117 CURVE SMOOTH",
"298 -142 LINE SMOOTH",
"298 -177 OFFCURVE",
"324 -206 OFFCURVE",
"359 -206 CURVE SMOOTH"
);
},
{
closed = 1;
nodes = (
"373 426 LINE",
"434 256 LINE",
"312 256 LINE"
);
},
{
closed = 1;
nodes = (
"267 730 LINE SMOOTH",
"300 730 OFFCURVE",
"310 737 OFFCURVE",
"322 756 CURVE SMOOTH",
"373 833 LINE",
"423 756 LINE SMOOTH",
"436 737 OFFCURVE",
"445 730 OFFCURVE",
"479 730 CURVE SMOOTH",
"554 730 LINE SMOOTH",
"585 730 OFFCURVE",
"595 749 OFFCURVE",
"573 777 CURVE SMOOTH",
"477 902 LINE SMOOTH",
"462 922 OFFCURVE",
"458 929 OFFCURVE",
"423 929 CURVE SMOOTH",
"322 929 LINE SMOOTH",
"287 929 OFFCURVE",
"284 922 OFFCURVE",
"268 902 CURVE SMOOTH",
"172 777 LINE SMOOTH",
"150 749 OFFCURVE",
"160 730 OFFCURVE",
"192 730 CURVE SMOOTH"
);
}
);
width = 747;
}
);
note = Acircumflexdotbelow;
unicode = 1EAC;
},
{
glyphname = Acircumflexgrave;
lastChange = "2015-07-18 13:08:43 +0000";
layers = (
{
layerId = "CB7AEA60-8A82-4B68-BB53-DB0CB6827011";
name = SemiBold;
paths = (
{
closed = 1;
nodes = (
"198 0 LINE SMOOTH",
"219 0 OFFCURVE",
"228 8 OFFCURVE",
"234 24 CURVE SMOOTH",
"268 120 LINE",
"478 120 LINE",
"513 24 LINE SMOOTH",
"519 8 OFFCURVE",
"528 0 OFFCURVE",
"548 0 CURVE SMOOTH",
"703 0 LINE SMOOTH",
"724 0 OFFCURVE",
"728 17 OFFCURVE",
"719 38 CURVE SMOOTH",
"465 646 LINE SMOOTH",
"455 671 OFFCURVE",
"445 680 OFFCURVE",
"419 680 CURVE SMOOTH",
"328 680 LINE SMOOTH",
"303 680 OFFCURVE",
"292 671 OFFCURVE",
"282 646 CURVE SMOOTH",
"28 38 LINE SMOOTH",
"19 17 OFFCURVE",
"22 0 OFFCURVE",
"44 0 CURVE SMOOTH"
);
},
{
closed = 1;
nodes = (
"373 426 LINE",
"434 256 LINE",
"312 256 LINE"
);
},
{
closed = 1;
nodes = (
"227 879 LINE SMOOTH",
"252 879 OFFCURVE",
"261 894 OFFCURVE",
"254 912 CURVE SMOOTH",
"222 999 LINE SMOOTH",
"213 1023 OFFCURVE",
"208 1033 OFFCURVE",
"177 1033 CURVE SMOOTH",
"103 1033 LINE SMOOTH",
"73 1033 OFFCURVE",
"66 1014 OFFCURVE",
"82 986 CURVE SMOOTH",
"124 911 LINE",
"141 883 OFFCURVE",
"148 879 OFFCURVE",
"183 879 CURVE SMOOTH"
);
},
{
closed = 1;
nodes = (
"272 723 LINE SMOOTH",
"305 723 OFFCURVE",
"315 729 OFFCURVE",
"327 748 CURVE SMOOTH",
"373 816 LINE",
"420 748 LINE",
"432 729 OFFCURVE",
"442 723 OFFCURVE",
"475 723 CURVE SMOOTH",
"546 723 LINE SMOOTH",
"578 723 OFFCURVE",
"587 742 OFFCURVE",
"565 770 CURVE SMOOTH",
"470 889 LINE SMOOTH",
"454 909 OFFCURVE",
"450 916 OFFCURVE",
"416 916 CURVE SMOOTH",
"331 916 LINE SMOOTH",
"297 916 OFFCURVE",
"292 909 OFFCURVE",
"277 889 CURVE SMOOTH",
"182 770 LINE SMOOTH",
"160 742 OFFCURVE",
"169 723 OFFCURVE",
"201 723 CURVE SMOOTH"
);
}
);
width = 747;
}
);
note = Acircumflexgrave;
unicode = 1EA6;
},
{
glyphname = Acircumflexhookabove;
lastChange = "2015-07-18 13:08:43 +0000";
layers = (
{
layerId = "CB7AEA60-8A82-4B68-BB53-DB0CB6827011";
name = SemiBold;
paths = (
{
closed = 1;
nodes = (
"198 0 LINE SMOOTH",
"219 0 OFFCURVE",
"228 8 OFFCURVE",
"234 24 CURVE SMOOTH",
"268 120 LINE",
"478 120 LINE",
"513 24 LINE SMOOTH",
"519 8 OFFCURVE",
"528 0 OFFCURVE",
"548 0 CURVE SMOOTH",
"703 0 LINE SMOOTH",
"724 0 OFFCURVE",
"728 17 OFFCURVE",
"719 38 CURVE SMOOTH",
"465 646 LINE SMOOTH",
"455 671 OFFCURVE",
"445 680 OFFCURVE",
"419 680 CURVE SMOOTH",
"328 680 LINE SMOOTH",
"303 680 OFFCURVE",
"292 671 OFFCURVE",
"282 646 CURVE SMOOTH",
"28 38 LINE SMOOTH",
"19 17 OFFCURVE",
"22 0 OFFCURVE",
"44 0 CURVE SMOOTH"
);
},
{
closed = 1;
nodes = (
"373 426 LINE",
"434 256 LINE",
"312 256 LINE"
);
},
{
closed = 1;
nodes = (
"271 723 LINE SMOOTH",
"304 723 OFFCURVE",
"314 729 OFFCURVE",
"326 748 CURVE",
"373 816 LINE",
"419 748 LINE SMOOTH",
"432 729 OFFCURVE",
"442 723 OFFCURVE",
"474 723 CURVE SMOOTH",
"545 723 LINE SMOOTH",
"577 723 OFFCURVE",
"586 742 OFFCURVE",
"564 770 CURVE SMOOTH",
"469 889 LINE SMOOTH",
"454 909 OFFCURVE",
"449 916 OFFCURVE",
"415 916 CURVE SMOOTH",
"331 916 LINE SMOOTH",
"296 916 OFFCURVE",
"292 909 OFFCURVE",
"277 889 CURVE SMOOTH",
"182 770 LINE SMOOTH",
"159 742 OFFCURVE",
"169 723 OFFCURVE",
"200 723 CURVE SMOOTH"
);
},
{
closed = 1;
nodes = (
"575 867 LINE SMOOTH",
"587 867 OFFCURVE",
"592 873 OFFCURVE",
"592 884 CURVE SMOOTH",
"592 899 LINE",
"628 899 OFFCURVE",
"658 922 OFFCURVE",
"658 966 CURVE SMOOTH",
"658 1015 OFFCURVE",
"627 1041 OFFCURVE",
"557 1041 CURVE SMOOTH",
"521 1041 OFFCURVE",
"484 1033 OFFCURVE",
"460 1020 CURVE SMOOTH",
"454 1017 OFFCURVE",
"455 1013 OFFCURVE",
"457 1009 CURVE",
"477 965 LINE",
"479 961 OFFCURVE",
"482 961 OFFCURVE",
"485 963 CURVE",
"498 971 OFFCURVE",
"515 976 OFFCURVE",
"533 976 CURVE SMOOTH",
"549 976 OFFCURVE",
"556 971 OFFCURVE",
"556 960 CURVE SMOOTH",
"556 946 OFFCURVE",
"546 942 OFFCURVE",
"524 942 CURVE SMOOTH",
"503 942 OFFCURVE",
"497 935 OFFCURVE",
"497 918 CURVE SMOOTH",
"497 884 LINE SMOOTH",
"497 873 OFFCURVE",
"502 867 OFFCURVE",
"514 867 CURVE SMOOTH"
);
}
);
width = 747;
}
);
note = Acircumflexhookabove;
unicode = 1EA8;
},
{
glyphname = Acircumflextilde;
lastChange = "2015-07-18 13:16:35 +0000";
layers = (
{
layerId = "CB7AEA60-8A82-4B68-BB53-DB0CB6827011";
name = SemiBold;
paths = (
{
closed = 1;
nodes = (
"198 0 LINE SMOOTH",
"219 0 OFFCURVE",
"228 8 OFFCURVE",
"234 24 CURVE SMOOTH",
"268 120 LINE",
"478 120 LINE",
"513 24 LINE SMOOTH",
"519 8 OFFCURVE",
"528 0 OFFCURVE",
"548 0 CURVE SMOOTH",
"703 0 LINE SMOOTH",
"724 0 OFFCURVE",
"728 17 OFFCURVE",
"719 38 CURVE SMOOTH",
"465 646 LINE SMOOTH",
"455 671 OFFCURVE",
"445 680 OFFCURVE",
"419 680 CURVE SMOOTH",
"328 680 LINE SMOOTH",
"303 680 OFFCURVE",
"292 671 OFFCURVE",
"282 646 CURVE SMOOTH",
"28 38 LINE SMOOTH",
"19 17 OFFCURVE",
"22 0 OFFCURVE",
"44 0 CURVE SMOOTH"
);
},
{
closed = 1;
nodes = (
"373 426 LINE",
"434 256 LINE",
"312 256 LINE"
);
},
{
closed = 1;
nodes = (
"272 723 LINE SMOOTH",
"305 723 OFFCURVE",
"314 730 OFFCURVE",
"327 748 CURVE SMOOTH",
"373 811 LINE",
"420 748 LINE SMOOTH",
"433 730 OFFCURVE",
"442 723 OFFCURVE",
"475 723 CURVE SMOOTH",
"546 723 LINE SMOOTH",
"578 723 OFFCURVE",
"587 743 OFFCURVE",
"565 770 CURVE SMOOTH",
"470 884 LINE SMOOTH",
"454 903 OFFCURVE",
"450 911 OFFCURVE",
"416 911 CURVE SMOOTH",
"331 911 LINE SMOOTH",
"297 911 OFFCURVE",
"293 903 OFFCURVE",
"277 884 CURVE SMOOTH",
"182 770 LINE SMOOTH",
"159 743 OFFCURVE",
"169 723 OFFCURVE",
"201 723 CURVE SMOOTH"
);
},
{
closed = 1;
nodes = (
"508 922 OFFCURVE",
"532 937 OFFCURVE",
"562 978 CURVE SMOOTH",
"583 1006 OFFCURVE",
"576 1016 OFFCURVE",
"545 1040 CURVE SMOOTH",
"513 1064 OFFCURVE",
"499 1066 OFFCURVE",
"484 1047 CURVE",
"467 1027 OFFCURVE",
"456 1021 OFFCURVE",
"434 1021 CURVE SMOOTH",
"398 1021 OFFCURVE",
"365 1057 OFFCURVE",
"302 1057 CURVE SMOOTH",
"255 1057 OFFCURVE",
"223 1038 OFFCURVE",
"192 996 CURVE",
"173 973 OFFCURVE",
"176 964 OFFCURVE",
"207 939 CURVE SMOOTH",
"241 913 OFFCURVE",
"252 914 OFFCURVE",
"271 935 CURVE SMOOTH",
"288 953 OFFCURVE",
"299 957 OFFCURVE",
"322 957 CURVE SMOOTH",
"358 957 OFFCURVE",
"402 922 OFFCURVE",
"455 922 CURVE SMOOTH"
);
}
);
width = 747;
}
);
note = Acircumflextilde;
unicode = 1EAA;
},
{
glyphname = Adieresis;
lastChange = "2015-07-18 13:08:43 +0000";
layers = (
{
layerId = "CB7AEA60-8A82-4B68-BB53-DB0CB6827011";
name = SemiBold;
paths = (
{
closed = 1;
nodes = (
"198 0 LINE SMOOTH",
"219 0 OFFCURVE",
"228 8 OFFCURVE",
"234 24 CURVE SMOOTH",
"268 120 LINE",
"478 120 LINE",
"513 24 LINE SMOOTH",
"519 8 OFFCURVE",
"528 0 OFFCURVE",
"548 0 CURVE SMOOTH",
"703 0 LINE SMOOTH",
"724 0 OFFCURVE",
"728 17 OFFCURVE",
"719 38 CURVE SMOOTH",
"465 646 LINE SMOOTH",
"455 671 OFFCURVE",
"445 680 OFFCURVE",
"419 680 CURVE SMOOTH",
"328 680 LINE SMOOTH",
"303 680 OFFCURVE",
"292 671 OFFCURVE",
"282 646 CURVE SMOOTH",
"28 38 LINE SMOOTH",
"19 17 OFFCURVE",
"22 0 OFFCURVE",
"44 0 CURVE SMOOTH"
);
},
{
closed = 1;
nodes = (
"373 426 LINE",
"434 256 LINE",
"312 256 LINE"
);
},
{
closed = 1;
nodes = (
"280 697 LINE SMOOTH",
"317 697 OFFCURVE",
"341 726 OFFCURVE",
"341 761 CURVE SMOOTH",
"341 786 LINE SMOOTH",
"341 822 OFFCURVE",
"316 850 OFFCURVE",
"280 850 CURVE SMOOTH",
"253 850 LINE SMOOTH",
"217 850 OFFCURVE",
"192 822 OFFCURVE",
"192 786 CURVE SMOOTH",
"192 761 LINE SMOOTH",
"192 726 OFFCURVE",
"217 697 OFFCURVE",
"253 697 CURVE SMOOTH"
);
},
{
closed = 1;
nodes = (
"494 697 LINE SMOOTH",
"531 697 OFFCURVE",
"555 726 OFFCURVE",
"555 761 CURVE SMOOTH",
"555 786 LINE SMOOTH",
"555 822 OFFCURVE",
"530 850 OFFCURVE",
"494 850 CURVE SMOOTH",
"467 850 LINE SMOOTH",
"432 850 OFFCURVE",
"406 822 OFFCURVE",
"406 786 CURVE SMOOTH",
"406 761 LINE SMOOTH",
"406 726 OFFCURVE",
"432 697 OFFCURVE",
"467 697 CURVE SMOOTH"
);
}
);
width = 747;
}
);
note = Adieresis;
unicode = 00C4;
},
{
glyphname = Adotbelow;
lastChange = "2015-07-18 13:08:43 +0000";
layers = (
{
layerId = "CB7AEA60-8A82-4B68-BB53-DB0CB6827011";
name = SemiBold;
paths = (
{
closed = 1;
nodes = (
"198 0 LINE SMOOTH",
"219 0 OFFCURVE",
"228 8 OFFCURVE",
"234 24 CURVE SMOOTH",
"268 120 LINE",
"478 120 LINE",
"513 24 LINE SMOOTH",
"519 8 OFFCURVE",
"528 0 OFFCURVE",
"548 0 CURVE SMOOTH",
"703 0 LINE SMOOTH",
"724 0 OFFCURVE",
"728 17 OFFCURVE",
"719 38 CURVE SMOOTH",
"465 646 LINE SMOOTH",
"455 671 OFFCURVE",
"445 680 OFFCURVE",
"419 680 CURVE SMOOTH",
"328 680 LINE SMOOTH",
"303 680 OFFCURVE",
"292 671 OFFCURVE",
"282 646 CURVE SMOOTH",
"28 38 LINE SMOOTH",
"19 17 OFFCURVE",
"22 0 OFFCURVE",
"44 0 CURVE SMOOTH"
);
},
{
closed = 1;
nodes = (
"388 -206 LINE SMOOTH",
"425 -206 OFFCURVE",
"449 -177 OFFCURVE",
"449 -142 CURVE SMOOTH",
"449 -117 LINE SMOOTH",
"449 -81 OFFCURVE",
"424 -53 OFFCURVE",
"388 -53 CURVE SMOOTH",
"361 -53 LINE SMOOTH",
"326 -53 OFFCURVE",
"300 -81 OFFCURVE",
"300 -117 CURVE SMOOTH",
"300 -142 LINE SMOOTH",
"300 -177 OFFCURVE",
"326 -206 OFFCURVE",
"361 -206 CURVE SMOOTH"
);
},
{
closed = 1;
nodes = (
"373 426 LINE",
"434 256 LINE",
"312 256 LINE"
);
}
);
width = 747;
}
);
note = Adotbelow;
unicode = 1EA0;
},
{
glyphname = Agrave;
lastChange = "2015-07-18 13:08:43 +0000";
layers = (
{
layerId = "CB7AEA60-8A82-4B68-BB53-DB0CB6827011";
name = SemiBold;
paths = (
{
closed = 1;
nodes = (
"198 0 LINE SMOOTH",
"219 0 OFFCURVE",
"228 8 OFFCURVE",
"234 24 CURVE SMOOTH",
"268 120 LINE",
"478 120 LINE",
"513 24 LINE SMOOTH",
"519 8 OFFCURVE",
"528 0 OFFCURVE",
"548 0 CURVE SMOOTH",
"703 0 LINE SMOOTH",
"724 0 OFFCURVE",
"728 17 OFFCURVE",
"719 38 CURVE SMOOTH",
"465 646 LINE SMOOTH",
"455 671 OFFCURVE",
"445 680 OFFCURVE",
"419 680 CURVE SMOOTH",
"328 680 LINE SMOOTH",
"303 680 OFFCURVE",
"292 671 OFFCURVE",
"282 646 CURVE SMOOTH",
"28 38 LINE SMOOTH",
"19 17 OFFCURVE",
"22 0 OFFCURVE",
"44 0 CURVE SMOOTH"
);
},
{
closed = 1;
nodes = (
"373 426 LINE",
"434 256 LINE",
"312 256 LINE"
);
},
{
closed = 1;
nodes = (
"425 717 LINE SMOOTH",
"456 717 OFFCURVE",
"465 734 OFFCURVE",
"456 757 CURVE SMOOTH",
"412 878 LINE SMOOTH",
"403 903 OFFCURVE",
"397 912 OFFCURVE",
"360 912 CURVE SMOOTH",
"240 912 LINE SMOOTH",
"208 912 OFFCURVE",
"191 896 OFFCURVE",
"208 865 CURVE SMOOTH",
"273 750 LINE SMOOTH",
"288 724 OFFCURVE",
"296 717 OFFCURVE",
"336 717 CURVE SMOOTH"
);
}
);
width = 747;
}
);
note = Agrave;
unicode = 00C0;
},
{
glyphname = Ahookabove;
lastChange = "2015-07-18 13:08:43 +0000";
layers = (
{
layerId = "CB7AEA60-8A82-4B68-BB53-DB0CB6827011";
name = SemiBold;
paths = (
{
closed = 1;
nodes = (
"198 0 LINE SMOOTH",
"219 0 OFFCURVE",
"228 8 OFFCURVE",
"234 24 CURVE SMOOTH",
"268 120 LINE",
"478 120 LINE",
"513 24 LINE SMOOTH",
"519 8 OFFCURVE",
"528 0 OFFCURVE",
"548 0 CURVE SMOOTH",
"703 0 LINE SMOOTH",
"724 0 OFFCURVE",
"728 17 OFFCURVE",
"719 38 CURVE SMOOTH",
"465 646 LINE SMOOTH",
"455 671 OFFCURVE",
"445 680 OFFCURVE",
"419 680 CURVE SMOOTH",
"328 680 LINE SMOOTH",
"303 680 OFFCURVE",
"292 671 OFFCURVE",
"282 646 CURVE SMOOTH",
"28 38 LINE SMOOTH",
"19 17 OFFCURVE",
"22 0 OFFCURVE",
"44 0 CURVE SMOOTH"
);
},
{
closed = 1;
nodes = (
"373 426 LINE",
"434 256 LINE",
"312 256 LINE"
);
},
{
closed = 1;
nodes = (
"404 726 LINE SMOOTH",
"420 726 OFFCURVE",
"427 734 OFFCURVE",
"427 749 CURVE SMOOTH",
"427 765 LINE",
"477 765 OFFCURVE",
"519 803 OFFCURVE",
"519 866 CURVE SMOOTH",
"519 935 OFFCURVE",
"472 973 OFFCURVE",
"377 973 CURVE SMOOTH",
"335 973 OFFCURVE",
"281 962 OFFCURVE",
"252 942 CURVE",
"245 938 OFFCURVE",
"245 934 OFFCURVE",
"248 928 CURVE",
"275 865 LINE",
"278 860 OFFCURVE",
"282 860 OFFCURVE",
"287 862 CURVE",
"308 872 OFFCURVE",
"329 880 OFFCURVE",
"354 880 CURVE SMOOTH",
"379 880 OFFCURVE",
"390 873 OFFCURVE",
"390 858 CURVE SMOOTH",
"390 838 OFFCURVE",
"374 832 OFFCURVE",
"341 832 CURVE SMOOTH",
"311 832 OFFCURVE",
"305 822 OFFCURVE",
"305 801 CURVE SMOOTH",
"305 749 LINE SMOOTH",
"305 734 OFFCURVE",
"312 726 OFFCURVE",
"328 726 CURVE SMOOTH"
);
}
);
width = 747;
}
);
note = Ahookabove;
unicode = 1EA2;
},
{
glyphname = Amacron;
lastChange = "2015-07-18 13:08:43 +0000";
layers = (
{
layerId = "CB7AEA60-8A82-4B68-BB53-DB0CB6827011";
name = SemiBold;
paths = (
{
closed = 1;
nodes = (
"198 0 LINE SMOOTH",
"219 0 OFFCURVE",
"228 8 OFFCURVE",
"234 24 CURVE SMOOTH",
"268 120 LINE",
"478 120 LINE",
"513 24 LINE SMOOTH",
"519 8 OFFCURVE",
"528 0 OFFCURVE",
"548 0 CURVE SMOOTH",
"703 0 LINE SMOOTH",
"724 0 OFFCURVE",
"728 17 OFFCURVE",
"719 38 CURVE SMOOTH",
"465 646 LINE SMOOTH",
"455 671 OFFCURVE",
"445 680 OFFCURVE",
"419 680 CURVE SMOOTH",
"328 680 LINE SMOOTH",
"303 680 OFFCURVE",
"292 671 OFFCURVE",
"282 646 CURVE SMOOTH",
"28 38 LINE SMOOTH",
"19 17 OFFCURVE",
"22 0 OFFCURVE",
"44 0 CURVE SMOOTH"
);
},
{
closed = 1;
nodes = (
"373 426 LINE",
"434 256 LINE",
"312 256 LINE"
);
},
{
closed = 1;
nodes = (
"508 753 LINE SMOOTH",
"547 753 OFFCURVE",
"556 769 OFFCURVE",
"556 803 CURVE SMOOTH",
"556 849 LINE SMOOTH",
"556 883 OFFCURVE",
"547 899 OFFCURVE",
"508 899 CURVE SMOOTH",
"239 899 LINE SMOOTH",
"200 899 OFFCURVE",
"190 883 OFFCURVE",
"190 849 CURVE SMOOTH",
"190 803 LINE SMOOTH",
"190 769 OFFCURVE",
"200 753 OFFCURVE",
"239 753 CURVE SMOOTH"
);
}
);
width = 747;
}
);
note = Amacron;
unicode = 0100;
},
{
glyphname = Aogonek;
lastChange = "2015-07-18 13:08:43 +0000";
layers = (
{
layerId = "CB7AEA60-8A82-4B68-BB53-DB0CB6827011";
name = SemiBold;
paths = (
{
closed = 1;
nodes = (
"198 0 LINE SMOOTH",
"219 0 OFFCURVE",
"228 8 OFFCURVE",
"234 24 CURVE SMOOTH",
"268 120 LINE",
"478 120 LINE",
"513 24 LINE SMOOTH",
"519 8 OFFCURVE",
"528 0 OFFCURVE",
"548 0 CURVE SMOOTH",
"703 0 LINE SMOOTH",
"724 0 OFFCURVE",
"728 17 OFFCURVE",
"719 38 CURVE SMOOTH",
"465 646 LINE SMOOTH",
"455 671 OFFCURVE",
"445 680 OFFCURVE",
"419 680 CURVE SMOOTH",
"328 680 LINE SMOOTH",
"303 680 OFFCURVE",
"292 671 OFFCURVE",
"282 646 CURVE SMOOTH",
"28 38 LINE SMOOTH",
"19 17 OFFCURVE",
"22 0 OFFCURVE",
"44 0 CURVE SMOOTH"
);
},
{
closed = 1;
nodes = (
"602 -220 OFFCURVE",
"634 -216 OFFCURVE",
"660 -204 CURVE SMOOTH",
"673 -198 OFFCURVE",
"673 -194 OFFCURVE",
"670 -187 CURVE SMOOTH",
"649 -142 LINE SMOOTH",
"645 -134 OFFCURVE",
"642 -134 OFFCURVE",
"635 -137 CURVE",
"629 -140 OFFCURVE",
"622 -141 OFFCURVE",
"613 -141 CURVE SMOOTH",
"597 -141 OFFCURVE",
"589 -131 OFFCURVE",
"589 -114 CURVE SMOOTH",
"589 -85 OFFCURVE",
"604 -67 OFFCURVE",
"650 -11 CURVE SMOOTH",
"657 -3 OFFCURVE",
"652 5 OFFCURVE",
"640 5 CURVE SMOOTH",
"543 5 LINE SMOOTH",
"530 5 OFFCURVE",
"526 1 OFFCURVE",
"518 -8 CURVE SMOOTH",
"474 -58 OFFCURVE",
"457 -95 OFFCURVE",
"457 -131 CURVE SMOOTH",
"457 -179 OFFCURVE",
"487 -220 OFFCURVE",
"558 -220 CURVE SMOOTH"
);
},
{
closed = 1;
nodes = (
"373 426 LINE",
"434 256 LINE",
"312 256 LINE"
);
}
);
width = 747;
}
);
note = Aogonek;
unicode = 0104;
},
{
glyphname = Aring;
lastChange = "2015-07-18 13:08:43 +0000";
layers = (
{
layerId = "CB7AEA60-8A82-4B68-BB53-DB0CB6827011";
name = SemiBold;
paths = (
{
closed = 1;
nodes = (
"198 0 LINE SMOOTH",
"219 0 OFFCURVE",
"228 8 OFFCURVE",
"234 24 CURVE SMOOTH",
"268 120 LINE",
"478 120 LINE",
"513 24 LINE SMOOTH",
"519 8 OFFCURVE",
"528 0 OFFCURVE",
"548 0 CURVE SMOOTH",
"703 0 LINE SMOOTH",
"724 0 OFFCURVE",
"728 17 OFFCURVE",
"719 38 CURVE SMOOTH",
"465 646 LINE SMOOTH",
"455 671 OFFCURVE",
"445 680 OFFCURVE",
"419 680 CURVE SMOOTH",
"328 680 LINE SMOOTH",
"303 680 OFFCURVE",
"292 671 OFFCURVE",
"282 646 CURVE SMOOTH",
"28 38 LINE SMOOTH",
"19 17 OFFCURVE",
"22 0 OFFCURVE",
"44 0 CURVE SMOOTH"
);
},
{
closed = 1;
nodes = (
"373 426 LINE",
"434 256 LINE",
"312 256 LINE"
);
},
{
closed = 1;
nodes = (
"442 633 OFFCURVE",
"497 688 OFFCURVE",
"497 757 CURVE SMOOTH",
"497 826 OFFCURVE",
"442 881 OFFCURVE",
"373 881 CURVE SMOOTH",
"304 881 OFFCURVE",
"249 826 OFFCURVE",
"249 757 CURVE SMOOTH",
"249 688 OFFCURVE",
"304 633 OFFCURVE",
"373 633 CURVE SMOOTH"
);
},
{
closed = 1;
nodes = (
"351 718 OFFCURVE",
"334 735 OFFCURVE",
"334 757 CURVE SMOOTH",
"334 778 OFFCURVE",
"351 795 OFFCURVE",
"373 795 CURVE SMOOTH",
"394 795 OFFCURVE",
"411 778 OFFCURVE",
"411 757 CURVE SMOOTH",
"411 735 OFFCURVE",
"394 718 OFFCURVE",
"373 718 CURVE SMOOTH"
);
}
);
width = 747;
}
);
note = Aring;
unicode = 00C5;
},
{
glyphname = Aringacute;
lastChange = "2015-07-18 13:16:47 +0000";
layers = (
{
layerId = "CB7AEA60-8A82-4B68-BB53-DB0CB6827011";
name = SemiBold;
paths = (
{
closed = 1;
nodes = (
"198 0 LINE SMOOTH",
"219 0 OFFCURVE",
"228 8 OFFCURVE",
"234 24 CURVE SMOOTH",
"268 120 LINE",
"478 120 LINE",
"513 24 LINE SMOOTH",
"519 8 OFFCURVE",
"528 0 OFFCURVE",
"548 0 CURVE SMOOTH",
"703 0 LINE SMOOTH",
"724 0 OFFCURVE",
"728 17 OFFCURVE",
"719 38 CURVE SMOOTH",
"465 646 LINE SMOOTH",
"455 671 OFFCURVE",
"445 680 OFFCURVE",
"419 680 CURVE SMOOTH",
"328 680 LINE SMOOTH",
"303 680 OFFCURVE",
"292 671 OFFCURVE",
"282 646 CURVE SMOOTH",
"28 38 LINE SMOOTH",
"19 17 OFFCURVE",
"22 0 OFFCURVE",
"44 0 CURVE SMOOTH"
);
},
{
closed = 1;
nodes = (
"373 426 LINE",
"434 256 LINE",
"312 256 LINE"
);
},
{
closed = 1;
nodes = (
"442 633 OFFCURVE",
"497 688 OFFCURVE",
"497 757 CURVE SMOOTH",
"497 826 OFFCURVE",
"442 881 OFFCURVE",
"373 881 CURVE SMOOTH",
"304 881 OFFCURVE",
"249 826 OFFCURVE",
"249 757 CURVE SMOOTH",
"249 688 OFFCURVE",
"304 633 OFFCURVE",
"373 633 CURVE SMOOTH"
);
},
{
closed = 1;
nodes = (
"351 718 OFFCURVE",
"334 735 OFFCURVE",
"334 757 CURVE SMOOTH",
"334 778 OFFCURVE",
"351 795 OFFCURVE",
"373 795 CURVE SMOOTH",
"394 795 OFFCURVE",
"411 778 OFFCURVE",
"411 757 CURVE SMOOTH",
"411 735 OFFCURVE",
"394 718 OFFCURVE",
"373 718 CURVE SMOOTH"
);
},
{
closed = 1;
nodes = (
"413 902 LINE SMOOTH",
"453 902 OFFCURVE",
"461 909 OFFCURVE",
"476 935 CURVE SMOOTH",
"541 1050 LINE SMOOTH",
"558 1081 OFFCURVE",
"541 1097 OFFCURVE",
"509 1097 CURVE SMOOTH",
"389 1097 LINE SMOOTH",
"352 1097 OFFCURVE",
"346 1087 OFFCURVE",
"337 1063 CURVE SMOOTH",
"293 942 LINE SMOOTH",
"285 919 OFFCURVE",
"293 902 OFFCURVE",
"324 902 CURVE SMOOTH"
);
}
);
width = 747;
}
);
note = Aringacute;
unicode = 01FA;
},
{
glyphname = Atilde;
lastChange = "2015-07-18 13:08:43 +0000";
layers = (
{
layerId = "CB7AEA60-8A82-4B68-BB53-DB0CB6827011";
name = SemiBold;
paths = (
{
closed = 1;
nodes = (
"198 0 LINE SMOOTH",
"219 0 OFFCURVE",
"228 8 OFFCURVE",
"234 24 CURVE SMOOTH",
"268 120 LINE",
"478 120 LINE",
"513 24 LINE SMOOTH",
"519 8 OFFCURVE",
"528 0 OFFCURVE",
"548 0 CURVE SMOOTH",
"703 0 LINE SMOOTH",
"724 0 OFFCURVE",
"728 17 OFFCURVE",
"719 38 CURVE SMOOTH",
"465 646 LINE SMOOTH",
"455 671 OFFCURVE",
"445 680 OFFCURVE",
"419 680 CURVE SMOOTH",
"328 680 LINE SMOOTH",
"303 680 OFFCURVE",
"292 671 OFFCURVE",
"282 646 CURVE SMOOTH",
"28 38 LINE SMOOTH",
"19 17 OFFCURVE",
"22 0 OFFCURVE",
"44 0 CURVE SMOOTH"
);
},
{
closed = 1;
nodes = (
"373 426 LINE",
"434 256 LINE",
"312 256 LINE"
);
},
{
closed = 1;
nodes = (
"527 717 OFFCURVE",
"559 744 OFFCURVE",
"598 801 CURVE SMOOTH",
"620 832 OFFCURVE",
"616 848 OFFCURVE",
"579 876 CURVE SMOOTH",
"541 904 OFFCURVE",
"521 910 OFFCURVE",
"504 889 CURVE SMOOTH",
"483 864 OFFCURVE",
"472 855 OFFCURVE",
"448 855 CURVE SMOOTH",
"400 855 OFFCURVE",
"363 905 OFFCURVE",
"284 905 CURVE SMOOTH",
"227 905 OFFCURVE",
"195 875 OFFCURVE",
"157 823 CURVE SMOOTH",
"135 792 OFFCURVE",
"140 777 OFFCURVE",
"176 750 CURVE SMOOTH",
"213 721 OFFCURVE",
"234 714 OFFCURVE",
"251 735 CURVE",
"271 758 OFFCURVE",
"283 767 OFFCURVE",
"308 767 CURVE SMOOTH",
"359 767 OFFCURVE",
"404 717 OFFCURVE",
"467 717 CURVE SMOOTH"
);
}
);
width = 747;
}
);
note = Atilde;
unicode = 00C3;
},
{
glyphname = AE;
lastChange = "2015-07-18 13:06:17 +0000";
layers = (
{
layerId = "CB7AEA60-8A82-4B68-BB53-DB0CB6827011";
name = SemiBold;
paths = (
{
closed = 1;
nodes = (
"176 0 LINE SMOOTH",
"205 0 OFFCURVE",
"226 -1 OFFCURVE",
"233 22 CURVE",
"268 122 LINE",
"388 122 LINE",
"388 50 LINE SMOOTH",
"388 16 OFFCURVE",
"402 0 OFFCURVE",
"441 0 CURVE SMOOTH",
"813 0 LINE SMOOTH",
"852 0 OFFCURVE",
"862 16 OFFCURVE",
"862 49 CURVE SMOOTH",
"862 95 LINE SMOOTH",
"862 129 OFFCURVE",
"852 145 OFFCURVE",
"813 145 CURVE SMOOTH",
"575 145 LINE",
"575 268 LINE",
"725 268 LINE SMOOTH",
"764 268 OFFCURVE",
"773 284 OFFCURVE",
"773 318 CURVE SMOOTH",
"773 362 LINE SMOOTH",
"773 396 OFFCURVE",
"764 412 OFFCURVE",
"725 412 CURVE SMOOTH",
"575 412 LINE",
"575 534 LINE",
"814 534 LINE SMOOTH",
"853 534 OFFCURVE",
"863 550 OFFCURVE",
"863 584 CURVE SMOOTH",
"863 630 LINE SMOOTH",
"863 664 OFFCURVE",
"853 680 OFFCURVE",
"814 680 CURVE SMOOTH",
"328 680 LINE SMOOTH",
"302 680 OFFCURVE",
"292 671 OFFCURVE",
"282 646 CURVE SMOOTH",
"28 38 LINE SMOOTH",
"19 17 OFFCURVE",
"23 0 OFFCURVE",
"44 0 CURVE SMOOTH"
);
},
{
closed = 1;
nodes = (
"388 505 LINE",
"388 256 LINE",
"306 256 LINE"
);
}
);
width = 886;
}
);
note = AE;
unicode = 00C6;
},
{
glyphname = AEacute;
lastChange = "2015-07-18 13:06:17 +0000";
layers = (
{
layerId = "CB7AEA60-8A82-4B68-BB53-DB0CB6827011";
name = SemiBold;
paths = (
{
closed = 1;
nodes = (
"176 0 LINE SMOOTH",
"205 0 OFFCURVE",
"226 -1 OFFCURVE",
"233 22 CURVE",
"268 122 LINE",
"388 122 LINE",
"388 50 LINE SMOOTH",
"388 16 OFFCURVE",
"402 0 OFFCURVE",
"441 0 CURVE SMOOTH",
"813 0 LINE SMOOTH",
"852 0 OFFCURVE",
"862 16 OFFCURVE",
"862 49 CURVE SMOOTH",
"862 95 LINE SMOOTH",
"862 129 OFFCURVE",
"852 145 OFFCURVE",
"813 145 CURVE SMOOTH",
"575 145 LINE",
"575 268 LINE",
"725 268 LINE SMOOTH",
"764 268 OFFCURVE",
"773 284 OFFCURVE",
"773 318 CURVE SMOOTH",
"773 362 LINE SMOOTH",
"773 396 OFFCURVE",
"764 412 OFFCURVE",
"725 412 CURVE SMOOTH",
"575 412 LINE",
"575 534 LINE",
"814 534 LINE SMOOTH",
"853 534 OFFCURVE",
"863 550 OFFCURVE",
"863 584 CURVE SMOOTH",
"863 630 LINE SMOOTH",
"863 664 OFFCURVE",
"853 680 OFFCURVE",
"814 680 CURVE SMOOTH",
"328 680 LINE SMOOTH",
"302 680 OFFCURVE",
"292 671 OFFCURVE",
"282 646 CURVE SMOOTH",
"28 38 LINE SMOOTH",
"19 17 OFFCURVE",
"23 0 OFFCURVE",
"44 0 CURVE SMOOTH"
);
},
{
closed = 1;
nodes = (
"388 505 LINE",
"388 256 LINE",
"306 256 LINE"
);
},
{
closed = 1;
nodes = (
"540 717 LINE SMOOTH",
"580 717 OFFCURVE",
"588 724 OFFCURVE",
"603 750 CURVE SMOOTH",
"668 865 LINE SMOOTH",
"685 896 OFFCURVE",
"668 912 OFFCURVE",
"636 912 CURVE SMOOTH",
"516 912 LINE SMOOTH",
"479 912 OFFCURVE",
"473 902 OFFCURVE",
"464 878 CURVE SMOOTH",
"420 757 LINE SMOOTH",
"412 734 OFFCURVE",
"420 717 OFFCURVE",
"451 717 CURVE SMOOTH"
);
}
);
width = 889;
}
);
note = AEacute;
unicode = 01FC;
},
{
glyphname = B;
lastChange = "2015-07-18 13:06:17 +0000";
layers = (
{
layerId = "CB7AEA60-8A82-4B68-BB53-DB0CB6827011";
name = SemiBold;
paths = (
{
closed = 1;
nodes = (
"390 0 LINE SMOOTH",
"561 0 OFFCURVE",
"640 92 OFFCURVE",
"640 207 CURVE SMOOTH",
"640 283 OFFCURVE",
"605 331 OFFCURVE",
"541 352 CURVE",
"589 372 OFFCURVE",
"622 424 OFFCURVE",
"622 485 CURVE SMOOTH",
"622 603 OFFCURVE",
"554 680 OFFCURVE",
"393 680 CURVE SMOOTH",
"95 680 LINE SMOOTH",
"56 680 OFFCURVE",
"43 663 OFFCURVE",
"43 629 CURVE SMOOTH",
"43 50 LINE SMOOTH",
"43 16 OFFCURVE",
"56 0 OFFCURVE",
"95 0 CURVE SMOOTH"
);
},
{
closed = 1;
nodes = (
"245 280 LINE",
"368 280 LINE SMOOTH",
"411 280 OFFCURVE",
"439 258 OFFCURVE",
"439 212 CURVE SMOOTH",
"439 173 OFFCURVE",
"416 145 OFFCURVE",
"372 145 CURVE SMOOTH",
"245 145 LINE"
);
},
{
closed = 1;
nodes = (
"245 535 LINE",
"355 535 LINE SMOOTH",
"398 535 OFFCURVE",
"420 519 OFFCURVE",
"420 475 CURVE SMOOTH",
"420 434 OFFCURVE",
"396 414 OFFCURVE",
"355 414 CURVE SMOOTH",
"245 414 LINE"
);
}
);
width = 663;
}
);
note = B;
unicode = 0042;
},
{
glyphname = C;
lastChange = "2015-07-18 13:06:12 +0000";
layers = (
{
layerId = "CB7AEA60-8A82-4B68-BB53-DB0CB6827011";
name = SemiBold;
paths = (
{
closed = 1;
nodes = (
"505 -15 OFFCURVE",
"590 5 OFFCURVE",
"645 43 CURVE SMOOTH",
"660 54 OFFCURVE",
"659 64 OFFCURVE",
"651 79 CURVE",
"606 156 LINE SMOOTH",
"596 173 OFFCURVE",
"587 170 OFFCURVE",
"570 161 CURVE SMOOTH",
"534 142 OFFCURVE",
"490 128 OFFCURVE",
"425 128 CURVE SMOOTH",
"305 128 OFFCURVE",
"224 197 OFFCURVE",
"224 340 CURVE SMOOTH",
"224 481 OFFCURVE",
"296 551 OFFCURVE",
"418 551 CURVE SMOOTH",
"482 551 OFFCURVE",
"526 536 OFFCURVE",
"559 518 CURVE SMOOTH",
"576 509 OFFCURVE",
"585 506 OFFCURVE",
"595 524 CURVE SMOOTH",
"638 597 LINE SMOOTH",
"647 613 OFFCURVE",
"649 626 OFFCURVE",
"634 636 CURVE SMOOTH",
"579 673 OFFCURVE",
"495 695 OFFCURVE",
"391 695 CURVE SMOOTH",
"157 695 OFFCURVE",
"23 575 OFFCURVE",
"23 340 CURVE SMOOTH",
"23 104 OFFCURVE",
"164 -15 OFFCURVE",
"397 -15 CURVE SMOOTH"
);
}
);
width = 679;
}
);
note = C;
unicode = 0043;
},
{
glyphname = Cacute;
lastChange = "2015-07-18 13:06:16 +0000";
layers = (
{
layerId = "CB7AEA60-8A82-4B68-BB53-DB0CB6827011";
name = SemiBold;
paths = (
{
closed = 1;
nodes = (
"505 -15 OFFCURVE",
"590 5 OFFCURVE",
"645 43 CURVE SMOOTH",
"660 54 OFFCURVE",
"659 64 OFFCURVE",
"651 79 CURVE",
"606 156 LINE SMOOTH",
"596 173 OFFCURVE",
"587 170 OFFCURVE",
"570 161 CURVE SMOOTH",
"534 142 OFFCURVE",
"490 128 OFFCURVE",
"425 128 CURVE SMOOTH",
"305 128 OFFCURVE",
"224 197 OFFCURVE",
"224 340 CURVE SMOOTH",
"224 481 OFFCURVE",
"296 551 OFFCURVE",
"418 551 CURVE SMOOTH",
"482 551 OFFCURVE",
"526 536 OFFCURVE",
"559 518 CURVE SMOOTH",
"576 509 OFFCURVE",
"585 506 OFFCURVE",
"595 524 CURVE SMOOTH",
"638 597 LINE SMOOTH",
"647 613 OFFCURVE",
"649 626 OFFCURVE",
"634 636 CURVE SMOOTH",
"579 673 OFFCURVE",
"495 695 OFFCURVE",
"391 695 CURVE SMOOTH",
"157 695 OFFCURVE",
"23 575 OFFCURVE",
"23 340 CURVE SMOOTH",
"23 104 OFFCURVE",
"164 -15 OFFCURVE",
"397 -15 CURVE SMOOTH"
);
},
{
closed = 1;
nodes = (
"408 741 LINE SMOOTH",
"448 741 OFFCURVE",
"456 748 OFFCURVE",
"471 774 CURVE SMOOTH",
"536 889 LINE SMOOTH",
"553 920 OFFCURVE",
"536 936 OFFCURVE",
"504 936 CURVE SMOOTH",
"384 936 LINE SMOOTH",
"347 936 OFFCURVE",
"341 926 OFFCURVE",
"332 902 CURVE SMOOTH",
"288 781 LINE SMOOTH",
"280 758 OFFCURVE",
"288 741 OFFCURVE",
"319 741 CURVE SMOOTH"
);
}
);
width = 679;
}
);
note = Cacute;
unicode = 0106;
},
{
glyphname = Ccaron;
lastChange = "2015-07-18 13:35:02 +0000";
layers = (
{
layerId = "CB7AEA60-8A82-4B68-BB53-DB0CB6827011";
name = SemiBold;
paths = (
{
closed = 1;
nodes = (
"505 -15 OFFCURVE",
"590 5 OFFCURVE",
"645 43 CURVE SMOOTH",
"660 54 OFFCURVE",
"659 64 OFFCURVE",
"651 79 CURVE",
"606 156 LINE SMOOTH",
"596 173 OFFCURVE",
"587 170 OFFCURVE",
"570 161 CURVE SMOOTH",
"534 142 OFFCURVE",
"490 128 OFFCURVE",
"425 128 CURVE SMOOTH",
"305 128 OFFCURVE",
"224 197 OFFCURVE",
"224 340 CURVE SMOOTH",
"224 481 OFFCURVE",
"296 551 OFFCURVE",
"418 551 CURVE SMOOTH",
"482 551 OFFCURVE",
"526 536 OFFCURVE",
"559 518 CURVE SMOOTH",
"576 509 OFFCURVE",
"585 506 OFFCURVE",
"595 524 CURVE SMOOTH",
"638 597 LINE SMOOTH",
"647 613 OFFCURVE",
"649 626 OFFCURVE",
"634 636 CURVE SMOOTH",
"579 673 OFFCURVE",
"495 695 OFFCURVE",
"391 695 CURVE SMOOTH",
"157 695 OFFCURVE",
"23 575 OFFCURVE",
"23 340 CURVE SMOOTH",
"23 104 OFFCURVE",
"164 -15 OFFCURVE",
"397 -15 CURVE SMOOTH"
);
},
{
closed = 1;
nodes = (
"445 750 LINE SMOOTH",
"480 750 OFFCURVE",
"484 756 OFFCURVE",
"499 776 CURVE SMOOTH",
"595 901 LINE SMOOTH",
"617 929 OFFCURVE",
"609 948 OFFCURVE",
"577 948 CURVE SMOOTH",
"500 948 LINE SMOOTH",
"467 948 OFFCURVE",
"458 942 OFFCURVE",
"445 923 CURVE SMOOTH",
"395 846 LINE",
"344 923 LINE SMOOTH",
"331 942 OFFCURVE",
"322 948 OFFCURVE",
"289 948 CURVE SMOOTH",
"212 948 LINE SMOOTH",
"180 948 OFFCURVE",
"172 929 OFFCURVE",
"194 901 CURVE SMOOTH",
"290 776 LINE SMOOTH",
"306 756 OFFCURVE",
"309 750 OFFCURVE",
"344 750 CURVE SMOOTH"
);
}
);
width = 679;
}
);
note = Ccaron;
unicode = 010C;
},
{
glyphname = Ccedilla;
lastChange = "2015-07-18 13:06:18 +0000";
layers = (
{
layerId = "CB7AEA60-8A82-4B68-BB53-DB0CB6827011";
name = SemiBold;
paths = (
{
closed = 1;
nodes = (
"505 -15 OFFCURVE",
"590 5 OFFCURVE",
"645 43 CURVE SMOOTH",
"660 54 OFFCURVE",
"659 64 OFFCURVE",
"651 79 CURVE",
"606 156 LINE SMOOTH",
"596 173 OFFCURVE",
"587 170 OFFCURVE",
"570 161 CURVE SMOOTH",
"534 142 OFFCURVE",
"490 128 OFFCURVE",
"425 128 CURVE SMOOTH",
"305 128 OFFCURVE",
"224 197 OFFCURVE",
"224 340 CURVE SMOOTH",
"224 481 OFFCURVE",
"296 551 OFFCURVE",
"418 551 CURVE SMOOTH",
"482 551 OFFCURVE",
"526 536 OFFCURVE",
"559 518 CURVE SMOOTH",
"576 509 OFFCURVE",
"585 506 OFFCURVE",
"595 524 CURVE SMOOTH",
"638 597 LINE SMOOTH",
"647 613 OFFCURVE",
"649 626 OFFCURVE",
"634 636 CURVE SMOOTH",
"579 673 OFFCURVE",
"495 695 OFFCURVE",
"391 695 CURVE SMOOTH",
"157 695 OFFCURVE",
"23 575 OFFCURVE",
"23 340 CURVE SMOOTH",
"23 104 OFFCURVE",
"164 -15 OFFCURVE",
"397 -15 CURVE SMOOTH"
);
},
{
closed = 1;
nodes = (
"461 -233 OFFCURVE",
"501 -192 OFFCURVE",
"501 -145 CURVE SMOOTH",
"501 -101 OFFCURVE",
"479 -79 OFFCURVE",
"435 -71 CURVE",
"458 -21 LINE SMOOTH",
"463 -11 OFFCURVE",
"460 -5 OFFCURVE",
"448 -5 CURVE SMOOTH",
"345 -5 LINE SMOOTH",
"331 -5 OFFCURVE",
"327 -8 OFFCURVE",
"323 -19 CURVE SMOOTH",
"296 -87 LINE SMOOTH",
"292 -97 OFFCURVE",
"296 -103 OFFCURVE",
"306 -103 CURVE SMOOTH",
"323 -103 LINE SMOOTH",
"359 -103 OFFCURVE",
"375 -108 OFFCURVE",
"375 -129 CURVE SMOOTH",
"375 -142 OFFCURVE",
"366 -150 OFFCURVE",
"342 -150 CURVE SMOOTH",
"329 -150 OFFCURVE",
"311 -146 OFFCURVE",
"299 -140 CURVE",
"290 -136 OFFCURVE",
"285 -135 OFFCURVE",
"281 -144 CURVE",
"260 -197 LINE SMOOTH",
"256 -207 OFFCURVE",
"258 -209 OFFCURVE",
"270 -215 CURVE SMOOTH",
"290 -225 OFFCURVE",
"334 -233 OFFCURVE",
"370 -233 CURVE SMOOTH"
);
}
);
width = 679;
}
);
note = Ccedilla;
unicode = 00C7;
},
{
glyphname = Ccircumflex;
lastChange = "2015-07-18 13:35:09 +0000";
layers = (
{
layerId = "CB7AEA60-8A82-4B68-BB53-DB0CB6827011";
name = SemiBold;
paths = (
{
closed = 1;
nodes = (
"505 -15 OFFCURVE",
"590 5 OFFCURVE",
"645 43 CURVE SMOOTH",
"660 54 OFFCURVE",
"659 64 OFFCURVE",
"651 79 CURVE",
"606 156 LINE SMOOTH",
"596 173 OFFCURVE",
"587 170 OFFCURVE",
"570 161 CURVE SMOOTH",
"534 142 OFFCURVE",
"490 128 OFFCURVE",
"425 128 CURVE SMOOTH",
"305 128 OFFCURVE",
"224 197 OFFCURVE",
"224 340 CURVE SMOOTH",
"224 481 OFFCURVE",
"296 551 OFFCURVE",
"418 551 CURVE SMOOTH",
"482 551 OFFCURVE",
"526 536 OFFCURVE",
"559 518 CURVE SMOOTH",
"576 509 OFFCURVE",
"585 506 OFFCURVE",
"595 524 CURVE SMOOTH",
"638 597 LINE SMOOTH",
"647 613 OFFCURVE",
"649 626 OFFCURVE",
"634 636 CURVE SMOOTH",
"579 673 OFFCURVE",
"495 695 OFFCURVE",
"391 695 CURVE SMOOTH",
"157 695 OFFCURVE",
"23 575 OFFCURVE",
"23 340 CURVE SMOOTH",
"23 104 OFFCURVE",
"164 -15 OFFCURVE",
"397 -15 CURVE SMOOTH"
);
},
{
closed = 1;
nodes = (
"267 730 LINE SMOOTH",
"300 730 OFFCURVE",
"310 737 OFFCURVE",
"322 756 CURVE SMOOTH",
"373 833 LINE",
"423 756 LINE SMOOTH",
"436 737 OFFCURVE",
"445 730 OFFCURVE",
"479 730 CURVE SMOOTH",
"554 730 LINE SMOOTH",
"585 730 OFFCURVE",
"595 749 OFFCURVE",
"573 777 CURVE SMOOTH",
"477 902 LINE SMOOTH",
"462 922 OFFCURVE",
"458 929 OFFCURVE",
"423 929 CURVE SMOOTH",
"322 929 LINE SMOOTH",
"287 929 OFFCURVE",
"284 922 OFFCURVE",
"268 902 CURVE SMOOTH",
"172 777 LINE SMOOTH",
"150 749 OFFCURVE",
"160 730 OFFCURVE",
"192 730 CURVE SMOOTH"
);
}
);
width = 679;
}
);
note = Ccircumflex;
unicode = 0108;
},
{
glyphname = Cdotaccent;
lastChange = "2015-07-18 13:35:30 +0000";
layers = (
{
layerId = "CB7AEA60-8A82-4B68-BB53-DB0CB6827011";
name = SemiBold;
paths = (
{
closed = 1;
nodes = (
"505 -15 OFFCURVE",
"590 5 OFFCURVE",
"645 43 CURVE SMOOTH",
"660 54 OFFCURVE",
"659 64 OFFCURVE",
"651 79 CURVE",
"606 156 LINE SMOOTH",
"596 173 OFFCURVE",
"587 170 OFFCURVE",
"570 161 CURVE SMOOTH",
"534 142 OFFCURVE",
"490 128 OFFCURVE",
"425 128 CURVE SMOOTH",
"305 128 OFFCURVE",
"224 197 OFFCURVE",
"224 340 CURVE SMOOTH",
"224 481 OFFCURVE",
"296 551 OFFCURVE",
"418 551 CURVE SMOOTH",
"482 551 OFFCURVE",
"526 536 OFFCURVE",
"559 518 CURVE SMOOTH",
"576 509 OFFCURVE",
"585 506 OFFCURVE",
"595 524 CURVE SMOOTH",
"638 597 LINE SMOOTH",
"647 613 OFFCURVE",
"649 626 OFFCURVE",
"634 636 CURVE SMOOTH",
"579 673 OFFCURVE",
"495 695 OFFCURVE",
"391 695 CURVE SMOOTH",
"157 695 OFFCURVE",
"23 575 OFFCURVE",
"23 340 CURVE SMOOTH",
"23 104 OFFCURVE",
"164 -15 OFFCURVE",
"397 -15 CURVE SMOOTH"
);
},
{
closed = 1;
nodes = (
"421 751 LINE SMOOTH",
"458 751 OFFCURVE",
"482 780 OFFCURVE",
"482 815 CURVE SMOOTH",
"482 840 LINE SMOOTH",
"482 876 OFFCURVE",
"457 904 OFFCURVE",
"421 904 CURVE SMOOTH",
"394 904 LINE SMOOTH",
"358 904 OFFCURVE",
"333 876 OFFCURVE",
"333 840 CURVE SMOOTH",
"333 815 LINE SMOOTH",
"333 780 OFFCURVE",
"358 751 OFFCURVE",
"394 751 CURVE SMOOTH"
);
}
);
width = 679;
}
);
note = Cdotaccent;
unicode = 010A;
},
{
glyphname = D;
lastChange = "2015-07-18 13:06:16 +0000";
layers = (
{
layerId = "CB7AEA60-8A82-4B68-BB53-DB0CB6827011";
name = SemiBold;
paths = (
{
closed = 1;
nodes = (
"315 0 LINE SMOOTH",
"539 0 OFFCURVE",
"666 108 OFFCURVE",
"666 340 CURVE SMOOTH",
"666 578 OFFCURVE",
"539 680 OFFCURVE",
"315 680 CURVE SMOOTH",
"95 680 LINE SMOOTH",
"56 680 OFFCURVE",
"43 663 OFFCURVE",
"43 629 CURVE SMOOTH",
"43 50 LINE SMOOTH",
"43 16 OFFCURVE",
"56 0 OFFCURVE",
"95 0 CURVE SMOOTH"
);
},
{
closed = 1;
nodes = (
"245 534 LINE",
"324 534 LINE SMOOTH",
"416 534 OFFCURVE",
"465 489 OFFCURVE",
"465 340 CURVE SMOOTH",
"465 191 OFFCURVE",
"416 145 OFFCURVE",
"324 145 CURVE SMOOTH",
"245 145 LINE"
);
}
);
width = 689;
}
);
note = D;
unicode = 0044;
},
{
glyphname = Eth;
lastChange = "2015-07-18 13:06:17 +0000";
layers = (
{
layerId = "CB7AEA60-8A82-4B68-BB53-DB0CB6827011";
name = SemiBold;
paths = (
{
closed = 1;
nodes = (
"356 0 LINE SMOOTH",
"579 0 OFFCURVE",
"707 108 OFFCURVE",
"707 340 CURVE SMOOTH",
"707 578 OFFCURVE",
"579 680 OFFCURVE",
"356 680 CURVE SMOOTH",
"136 680 LINE SMOOTH",
"96 680 OFFCURVE",
"83 663 OFFCURVE",
"83 629 CURVE SMOOTH",
"83 413 LINE",
"50 413 LINE SMOOTH",
"12 413 OFFCURVE",
"3 398 OFFCURVE",
"3 364 CURVE SMOOTH",
"3 317 LINE SMOOTH",
"3 283 OFFCURVE",
"12 268 OFFCURVE",
"50 268 CURVE SMOOTH",
"83 268 LINE",
"83 50 LINE SMOOTH",
"83 16 OFFCURVE",
"96 0 OFFCURVE",
"136 0 CURVE SMOOTH"
);
},
{
closed = 1;
nodes = (
"286 268 LINE",
"378 268 LINE SMOOTH",
"416 268 OFFCURVE",
"425 283 OFFCURVE",
"425 317 CURVE SMOOTH",
"425 364 LINE SMOOTH",
"425 398 OFFCURVE",
"416 413 OFFCURVE",
"378 413 CURVE SMOOTH",
"286 413 LINE",
"286 534 LINE",
"364 534 LINE SMOOTH",
"457 534 OFFCURVE",
"505 489 OFFCURVE",
"505 340 CURVE SMOOTH",
"505 191 OFFCURVE",
"457 145 OFFCURVE",
"364 145 CURVE SMOOTH",
"286 145 LINE"
);
}
);
width = 730;
}
);
note = Eth;
unicode = 00D0;
},
{
glyphname = Dcaron;
lastChange = "2015-07-18 13:06:17 +0000";
layers = (
{
layerId = "CB7AEA60-8A82-4B68-BB53-DB0CB6827011";
name = SemiBold;
paths = (
{
closed = 1;
nodes = (
"315 0 LINE SMOOTH",
"539 0 OFFCURVE",
"666 108 OFFCURVE",
"666 340 CURVE SMOOTH",
"666 578 OFFCURVE",
"539 680 OFFCURVE",
"315 680 CURVE SMOOTH",
"95 680 LINE SMOOTH",
"56 680 OFFCURVE",
"43 663 OFFCURVE",
"43 629 CURVE SMOOTH",
"43 50 LINE SMOOTH",
"43 16 OFFCURVE",
"56 0 OFFCURVE",
"95 0 CURVE SMOOTH"
);
},
{
closed = 1;
nodes = (
"245 534 LINE",
"324 534 LINE SMOOTH",
"416 534 OFFCURVE",
"465 489 OFFCURVE",
"465 340 CURVE SMOOTH",
"465 191 OFFCURVE",
"416 145 OFFCURVE",
"324 145 CURVE SMOOTH",
"245 145 LINE"
);
},
{
closed = 1;
nodes = (
"365 750 LINE SMOOTH",
"400 750 OFFCURVE",
"404 756 OFFCURVE",
"419 776 CURVE SMOOTH",
"515 901 LINE SMOOTH",
"537 929 OFFCURVE",
"529 948 OFFCURVE",
"497 948 CURVE SMOOTH",
"420 948 LINE SMOOTH",
"387 948 OFFCURVE",
"378 942 OFFCURVE",
"365 923 CURVE SMOOTH",
"315 846 LINE",
"264 923 LINE SMOOTH",
"251 942 OFFCURVE",
"242 948 OFFCURVE",
"209 948 CURVE SMOOTH",
"132 948 LINE SMOOTH",
"100 948 OFFCURVE",
"92 929 OFFCURVE",
"114 901 CURVE SMOOTH",
"210 776 LINE SMOOTH",
"226 756 OFFCURVE",
"229 750 OFFCURVE",
"264 750 CURVE SMOOTH"
);
}
);
width = 689;
}
);
note = Dcaron;
unicode = 010E;
},
{
glyphname = Dcroat;
lastChange = "2015-07-18 13:06:16 +0000";
layers = (
{
layerId = "CB7AEA60-8A82-4B68-BB53-DB0CB6827011";
name = SemiBold;
paths = (
{
closed = 1;
nodes = (
"346 0 LINE SMOOTH",
"569 0 OFFCURVE",
"697 108 OFFCURVE",
"697 340 CURVE SMOOTH",
"697 578 OFFCURVE",
"569 680 OFFCURVE",
"346 680 CURVE SMOOTH",
"126 680 LINE SMOOTH",
"86 680 OFFCURVE",
"73 663 OFFCURVE",
"73 629 CURVE SMOOTH",
"73 413 LINE",
"41 413 LINE SMOOTH",
"2 413 OFFCURVE",
"-7 397 OFFCURVE",
"-7 363 CURVE SMOOTH",
"-7 317 LINE SMOOTH",
"-7 284 OFFCURVE",
"2 268 OFFCURVE",
"41 268 CURVE SMOOTH",
"73 268 LINE",
"73 50 LINE SMOOTH",
"73 16 OFFCURVE",
"86 0 OFFCURVE",
"126 0 CURVE SMOOTH"
);
},
{
closed = 1;
nodes = (
"276 268 LINE",
"366 268 LINE SMOOTH",
"405 268 OFFCURVE",
"415 284 OFFCURVE",
"415 317 CURVE SMOOTH",
"415 363 LINE SMOOTH",
"415 397 OFFCURVE",
"405 413 OFFCURVE",
"366 413 CURVE SMOOTH",
"276 413 LINE",
"276 534 LINE",
"354 534 LINE SMOOTH",
"447 534 OFFCURVE",
"495 489 OFFCURVE",
"495 340 CURVE SMOOTH",
"495 191 OFFCURVE",
"447 145 OFFCURVE",
"354 145 CURVE SMOOTH",
"276 145 LINE"
);
}
);
width = 720;
}
);
note = Dcroat;
unicode = 0110;
},
{
glyphname = Ddotbelow;
lastChange = "2015-07-18 13:35:46 +0000";
layers = (
{
layerId = "CB7AEA60-8A82-4B68-BB53-DB0CB6827011";
name = SemiBold;
paths = (
{
closed = 1;
nodes = (
"315 0 LINE SMOOTH",
"539 0 OFFCURVE",
"666 108 OFFCURVE",
"666 340 CURVE SMOOTH",
"666 578 OFFCURVE",
"539 680 OFFCURVE",
"315 680 CURVE SMOOTH",
"95 680 LINE SMOOTH",
"56 680 OFFCURVE",
"43 663 OFFCURVE",
"43 629 CURVE SMOOTH",
"43 50 LINE SMOOTH",
"43 16 OFFCURVE",
"56 0 OFFCURVE",
"95 0 CURVE SMOOTH"
);
},
{
closed = 1;
nodes = (
"319 -206 LINE SMOOTH",
"356 -206 OFFCURVE",
"380 -177 OFFCURVE",
"380 -142 CURVE SMOOTH",
"380 -117 LINE SMOOTH",
"380 -81 OFFCURVE",
"355 -53 OFFCURVE",
"319 -53 CURVE SMOOTH",
"292 -53 LINE SMOOTH",
"257 -53 OFFCURVE",
"231 -81 OFFCURVE",
"231 -117 CURVE SMOOTH",
"231 -142 LINE SMOOTH",
"231 -177 OFFCURVE",
"257 -206 OFFCURVE",
"292 -206 CURVE SMOOTH"
);
},
{
closed = 1;
nodes = (
"245 534 LINE",
"324 534 LINE SMOOTH",
"416 534 OFFCURVE",
"465 489 OFFCURVE",
"465 340 CURVE SMOOTH",
"465 191 OFFCURVE",
"416 145 OFFCURVE",
"324 145 CURVE SMOOTH",
"245 145 LINE"
);
}
);
width = 689;
}
);
note = Ddotbelow;
unicode = 1E0C;
},
{
glyphname = Dlinebelow;
lastChange = "2015-07-18 13:06:17 +0000";
layers = (
{
layerId = "CB7AEA60-8A82-4B68-BB53-DB0CB6827011";
name = SemiBold;
paths = (
{
closed = 1;
nodes = (
"315 0 LINE SMOOTH",
"539 0 OFFCURVE",
"666 108 OFFCURVE",
"666 340 CURVE SMOOTH",
"666 578 OFFCURVE",
"539 680 OFFCURVE",
"315 680 CURVE SMOOTH",
"95 680 LINE SMOOTH",
"56 680 OFFCURVE",
"43 663 OFFCURVE",
"43 629 CURVE SMOOTH",
"43 50 LINE SMOOTH",
"43 16 OFFCURVE",
"56 0 OFFCURVE",
"95 0 CURVE SMOOTH"
);
},
{
closed = 1;
nodes = (
"407 -187 LINE SMOOTH",
"446 -187 OFFCURVE",
"456 -171 OFFCURVE",
"456 -138 CURVE SMOOTH",
"456 -107 LINE SMOOTH",
"456 -74 OFFCURVE",
"446 -57 OFFCURVE",
"407 -57 CURVE SMOOTH",
"164 -57 LINE SMOOTH",
"125 -57 OFFCURVE",
"116 -74 OFFCURVE",
"116 -107 CURVE SMOOTH",
"116 -138 LINE SMOOTH",
"116 -171 OFFCURVE",
"125 -187 OFFCURVE",
"164 -187 CURVE SMOOTH"
);
},
{
closed = 1;
nodes = (
"245 534 LINE",
"324 534 LINE SMOOTH",
"416 534 OFFCURVE",
"465 489 OFFCURVE",
"465 340 CURVE SMOOTH",
"465 191 OFFCURVE",
"416 145 OFFCURVE",
"324 145 CURVE SMOOTH",
"245 145 LINE"
);
}
);
width = 689;
}
);
note = Dlinebelow;
unicode = 1E0E;
},
{
glyphname = E;
lastChange = "2015-07-18 13:06:12 +0000";
layers = (
{
layerId = "CB7AEA60-8A82-4B68-BB53-DB0CB6827011";
name = SemiBold;
paths = (
{
closed = 1;
nodes = (
"509 0 LINE SMOOTH",
"548 0 OFFCURVE",
"557 16 OFFCURVE",
"557 49 CURVE SMOOTH",
"557 95 LINE SMOOTH",
"557 129 OFFCURVE",
"548 145 OFFCURVE",
"509 145 CURVE SMOOTH",
"245 145 LINE",
"245 268 LINE",
"420 268 LINE SMOOTH",
"459 268 OFFCURVE",
"469 284 OFFCURVE",
"469 318 CURVE SMOOTH",
"469 362 LINE SMOOTH",
"469 396 OFFCURVE",
"459 412 OFFCURVE",
"420 412 CURVE SMOOTH",
"245 412 LINE",
"245 534 LINE",
"510 534 LINE SMOOTH",
"549 534 OFFCURVE",
"558 550 OFFCURVE",
"558 584 CURVE SMOOTH",
"558 630 LINE SMOOTH",
"558 664 OFFCURVE",
"549 680 OFFCURVE",
"510 680 CURVE SMOOTH",
"95 680 LINE SMOOTH",
"56 680 OFFCURVE",
"43 663 OFFCURVE",
"43 629 CURVE SMOOTH",
"43 50 LINE SMOOTH",
"43 16 OFFCURVE",
"56 0 OFFCURVE",
"95 0 CURVE SMOOTH"
);
}
);
width = 571;
}
);
note = E;
unicode = 0045;
},
{
glyphname = Eacute;
lastChange = "2015-07-18 13:06:16 +0000";
layers = (
{
layerId = "CB7AEA60-8A82-4B68-BB53-DB0CB6827011";
name = SemiBold;
paths = (
{
closed = 1;
nodes = (
"509 0 LINE SMOOTH",
"548 0 OFFCURVE",
"557 16 OFFCURVE",
"557 49 CURVE SMOOTH",
"557 95 LINE SMOOTH",
"557 129 OFFCURVE",
"548 145 OFFCURVE",
"509 145 CURVE SMOOTH",
"245 145 LINE",
"245 268 LINE",
"420 268 LINE SMOOTH",
"459 268 OFFCURVE",
"469 284 OFFCURVE",
"469 318 CURVE SMOOTH",
"469 362 LINE SMOOTH",
"469 396 OFFCURVE",
"459 412 OFFCURVE",
"420 412 CURVE SMOOTH",
"245 412 LINE",
"245 534 LINE",
"510 534 LINE SMOOTH",
"549 534 OFFCURVE",
"558 550 OFFCURVE",
"558 584 CURVE SMOOTH",
"558 630 LINE SMOOTH",
"558 664 OFFCURVE",
"549 680 OFFCURVE",
"510 680 CURVE SMOOTH",
"95 680 LINE SMOOTH",
"56 680 OFFCURVE",
"43 663 OFFCURVE",
"43 629 CURVE SMOOTH",
"43 50 LINE SMOOTH",
"43 16 OFFCURVE",
"56 0 OFFCURVE",
"95 0 CURVE SMOOTH"
);
},
{
closed = 1;
nodes = (
"314 741 LINE SMOOTH",
"354 741 OFFCURVE",
"362 748 OFFCURVE",
"377 774 CURVE SMOOTH",
"442 889 LINE SMOOTH",
"459 920 OFFCURVE",
"442 936 OFFCURVE",
"410 936 CURVE SMOOTH",
"290 936 LINE SMOOTH",
"253 936 OFFCURVE",
"247 926 OFFCURVE",
"238 902 CURVE SMOOTH",
"194 781 LINE SMOOTH",
"186 758 OFFCURVE",
"194 741 OFFCURVE",
"225 741 CURVE SMOOTH"
);
}
);
width = 571;
}
);
note = Eacute;
unicode = 00C9;
},
{
glyphname = Ebreve;
lastChange = "2015-07-18 14:06:40 +0000";
layers = (
{
layerId = "CB7AEA60-8A82-4B68-BB53-DB0CB6827011";
name = SemiBold;
paths = (
{
closed = 1;
nodes = (
"509 0 LINE SMOOTH",
"548 0 OFFCURVE",
"557 16 OFFCURVE",
"557 49 CURVE SMOOTH",
"557 95 LINE SMOOTH",
"557 129 OFFCURVE",
"548 145 OFFCURVE",
"509 145 CURVE SMOOTH",
"245 145 LINE",
"245 268 LINE",
"420 268 LINE SMOOTH",
"459 268 OFFCURVE",
"469 284 OFFCURVE",
"469 318 CURVE SMOOTH",
"469 362 LINE SMOOTH",
"469 396 OFFCURVE",
"459 412 OFFCURVE",
"420 412 CURVE SMOOTH",
"245 412 LINE",
"245 534 LINE",
"510 534 LINE SMOOTH",
"549 534 OFFCURVE",
"558 550 OFFCURVE",
"558 584 CURVE SMOOTH",
"558 630 LINE SMOOTH",
"558 664 OFFCURVE",
"549 680 OFFCURVE",
"510 680 CURVE SMOOTH",
"95 680 LINE SMOOTH",
"56 680 OFFCURVE",
"43 663 OFFCURVE",
"43 629 CURVE SMOOTH",
"43 50 LINE SMOOTH",
"43 16 OFFCURVE",
"56 0 OFFCURVE",
"95 0 CURVE SMOOTH"
);
},
{
closed = 1;
nodes = (
"436 744 OFFCURVE",
"499 819 OFFCURVE",
"499 917 CURVE SMOOTH",
"499 928 OFFCURVE",
"493 935 OFFCURVE",
"483 935 CURVE SMOOTH",
"375 935 LINE SMOOTH",
"361 935 OFFCURVE",
"358 928 OFFCURVE",
"358 916 CURVE SMOOTH",
"358 885 OFFCURVE",
"343 867 OFFCURVE",
"310 867 CURVE SMOOTH",
"276 867 OFFCURVE",
"262 885 OFFCURVE",
"262 916 CURVE SMOOTH",
"262 928 OFFCURVE",
"259 935 OFFCURVE",
"245 935 CURVE SMOOTH",
"137 935 LINE SMOOTH",
"127 935 OFFCURVE",
"121 928 OFFCURVE",
"121 917 CURVE SMOOTH",
"121 819 OFFCURVE",
"182 744 OFFCURVE",
"310 744 CURVE SMOOTH"
);
}
);
width = 571;
}
);
note = Ebreve;
unicode = 0114;
},
{
glyphname = Ecaron;
lastChange = "2015-07-18 14:06:50 +0000";
layers = (
{
layerId = "CB7AEA60-8A82-4B68-BB53-DB0CB6827011";
name = SemiBold;
paths = (
{
closed = 1;
nodes = (
"509 0 LINE SMOOTH",
"548 0 OFFCURVE",
"557 16 OFFCURVE",
"557 49 CURVE SMOOTH",
"557 95 LINE SMOOTH",
"557 129 OFFCURVE",
"548 145 OFFCURVE",
"509 145 CURVE SMOOTH",
"245 145 LINE",
"245 268 LINE",
"420 268 LINE SMOOTH",
"459 268 OFFCURVE",
"469 284 OFFCURVE",
"469 318 CURVE SMOOTH",
"469 362 LINE SMOOTH",
"469 396 OFFCURVE",
"459 412 OFFCURVE",
"420 412 CURVE SMOOTH",
"245 412 LINE",
"245 534 LINE",
"510 534 LINE SMOOTH",
"549 534 OFFCURVE",
"558 550 OFFCURVE",
"558 584 CURVE SMOOTH",
"558 630 LINE SMOOTH",
"558 664 OFFCURVE",
"549 680 OFFCURVE",
"510 680 CURVE SMOOTH",
"95 680 LINE SMOOTH",
"56 680 OFFCURVE",
"43 663 OFFCURVE",
"43 629 CURVE SMOOTH",
"43 50 LINE SMOOTH",
"43 16 OFFCURVE",
"56 0 OFFCURVE",
"95 0 CURVE SMOOTH"
);
},
{
closed = 1;
nodes = (
"355 750 LINE SMOOTH",
"390 750 OFFCURVE",
"394 756 OFFCURVE",
"409 776 CURVE SMOOTH",
"505 901 LINE SMOOTH",
"527 929 OFFCURVE",
"519 948 OFFCURVE",
"487 948 CURVE SMOOTH",
"410 948 LINE SMOOTH",
"377 948 OFFCURVE",
"368 942 OFFCURVE",
"355 923 CURVE SMOOTH",
"305 846 LINE",
"254 923 LINE SMOOTH",
"241 942 OFFCURVE",
"232 948 OFFCURVE",
"199 948 CURVE SMOOTH",
"122 948 LINE SMOOTH",
"90 948 OFFCURVE",
"82 929 OFFCURVE",
"104 901 CURVE SMOOTH",
"200 776 LINE SMOOTH",
"216 756 OFFCURVE",
"219 750 OFFCURVE",
"254 750 CURVE SMOOTH"
);
}
);
width = 571;
}
);
note = Ecaron;
unicode = 011A;
},
{
glyphname = Ecircumflex;
lastChange = "2015-07-18 14:06:57 +0000";
layers = (
{
layerId = "CB7AEA60-8A82-4B68-BB53-DB0CB6827011";
name = SemiBold;
paths = (
{
closed = 1;
nodes = (
"509 0 LINE SMOOTH",
"548 0 OFFCURVE",
"557 16 OFFCURVE",
"557 49 CURVE SMOOTH",
"557 95 LINE SMOOTH",
"557 129 OFFCURVE",
"548 145 OFFCURVE",
"509 145 CURVE SMOOTH",
"245 145 LINE",
"245 268 LINE",
"420 268 LINE SMOOTH",
"459 268 OFFCURVE",
"469 284 OFFCURVE",
"469 318 CURVE SMOOTH",
"469 362 LINE SMOOTH",
"469 396 OFFCURVE",
"459 412 OFFCURVE",
"420 412 CURVE SMOOTH",
"245 412 LINE",
"245 534 LINE",
"510 534 LINE SMOOTH",
"549 534 OFFCURVE",
"558 550 OFFCURVE",
"558 584 CURVE SMOOTH",
"558 630 LINE SMOOTH",
"558 664 OFFCURVE",
"549 680 OFFCURVE",
"510 680 CURVE SMOOTH",
"95 680 LINE SMOOTH",
"56 680 OFFCURVE",
"43 663 OFFCURVE",
"43 629 CURVE SMOOTH",
"43 50 LINE SMOOTH",
"43 16 OFFCURVE",
"56 0 OFFCURVE",
"95 0 CURVE SMOOTH"
);
},
{
closed = 1;
nodes = (
"194 742 LINE SMOOTH",
"227 742 OFFCURVE",
"237 749 OFFCURVE",
"249 768 CURVE SMOOTH",
"300 845 LINE",
"350 768 LINE SMOOTH",
"363 749 OFFCURVE",
"372 742 OFFCURVE",
"406 742 CURVE SMOOTH",
"481 742 LINE SMOOTH",
"512 742 OFFCURVE",
"522 761 OFFCURVE",
"500 789 CURVE SMOOTH",
"404 914 LINE SMOOTH",
"389 934 OFFCURVE",
"385 941 OFFCURVE",
"350 941 CURVE SMOOTH",
"249 941 LINE SMOOTH",
"214 941 OFFCURVE",
"211 934 OFFCURVE",
"195 914 CURVE SMOOTH",
"99 789 LINE SMOOTH",
"77 761 OFFCURVE",
"87 742 OFFCURVE",
"119 742 CURVE SMOOTH"
);
}
);
width = 571;
}
);
note = Ecircumflex;
unicode = 00CA;
},
{
glyphname = Ecircumflexacute;
lastChange = "2015-07-18 14:07:04 +0000";
layers = (
{
layerId = "CB7AEA60-8A82-4B68-BB53-DB0CB6827011";
name = SemiBold;
paths = (
{
closed = 1;
nodes = (
"509 0 LINE SMOOTH",
"548 0 OFFCURVE",
"557 16 OFFCURVE",
"557 49 CURVE SMOOTH",
"557 95 LINE SMOOTH",
"557 129 OFFCURVE",
"548 145 OFFCURVE",
"509 145 CURVE SMOOTH",
"245 145 LINE",
"245 268 LINE",
"420 268 LINE SMOOTH",
"459 268 OFFCURVE",
"469 284 OFFCURVE",
"469 318 CURVE SMOOTH",
"469 362 LINE SMOOTH",
"469 396 OFFCURVE",
"459 412 OFFCURVE",
"420 412 CURVE SMOOTH",
"245 412 LINE",
"245 534 LINE",
"510 534 LINE SMOOTH",
"549 534 OFFCURVE",
"558 550 OFFCURVE",
"558 584 CURVE SMOOTH",
"558 630 LINE SMOOTH",
"558 664 OFFCURVE",
"549 680 OFFCURVE",
"510 680 CURVE SMOOTH",
"95 680 LINE SMOOTH",
"56 680 OFFCURVE",
"43 663 OFFCURVE",
"43 629 CURVE SMOOTH",
"43 50 LINE SMOOTH",
"43 16 OFFCURVE",
"56 0 OFFCURVE",
"95 0 CURVE SMOOTH"
);
},
{
closed = 1;
nodes = (
"190 723 LINE SMOOTH",
"223 723 OFFCURVE",
"233 729 OFFCURVE",
"245 748 CURVE",
"292 816 LINE",
"338 748 LINE SMOOTH",
"350 729 OFFCURVE",
"360 723 OFFCURVE",
"393 723 CURVE SMOOTH",
"464 723 LINE SMOOTH",
"496 723 OFFCURVE",
"505 742 OFFCURVE",
"483 770 CURVE SMOOTH",
"388 889 LINE SMOOTH",
"373 909 OFFCURVE",
"368 916 OFFCURVE",
"334 916 CURVE SMOOTH",
"249 916 LINE SMOOTH",
"215 916 OFFCURVE",
"211 909 OFFCURVE",
"195 889 CURVE SMOOTH",
"100 770 LINE SMOOTH",
"78 742 OFFCURVE",
"87 723 OFFCURVE",
"119 723 CURVE SMOOTH"
);
},
{
closed = 1;
nodes = (
"482 879 LINE SMOOTH",
"517 879 OFFCURVE",
"524 883 OFFCURVE",
"541 911 CURVE",
"583 986 LINE SMOOTH",
"599 1014 OFFCURVE",
"592 1033 OFFCURVE",
"562 1033 CURVE SMOOTH",
"488 1033 LINE SMOOTH",
"457 1033 OFFCURVE",
"452 1023 OFFCURVE",
"443 999 CURVE SMOOTH",
"411 912 LINE SMOOTH",
"404 894 OFFCURVE",
"413 879 OFFCURVE",
"438 879 CURVE SMOOTH"
);
}
);
width = 571;
}
);
note = Ecircumflexacute;
unicode = 1EBE;
},
{
glyphname = Ecircumflexdotbelow;
lastChange = "2015-07-18 14:07:09 +0000";
layers = (
{
layerId = "CB7AEA60-8A82-4B68-BB53-DB0CB6827011";
name = SemiBold;
paths = (
{
closed = 1;
nodes = (
"509 0 LINE SMOOTH",
"548 0 OFFCURVE",
"557 16 OFFCURVE",
"557 49 CURVE SMOOTH",
"557 95 LINE SMOOTH",
"557 129 OFFCURVE",
"548 145 OFFCURVE",
"509 145 CURVE SMOOTH",
"245 145 LINE",
"245 268 LINE",
"420 268 LINE SMOOTH",
"459 268 OFFCURVE",
"469 284 OFFCURVE",
"469 318 CURVE SMOOTH",
"469 362 LINE SMOOTH",
"469 396 OFFCURVE",
"459 412 OFFCURVE",
"420 412 CURVE SMOOTH",
"245 412 LINE",
"245 534 LINE",
"510 534 LINE SMOOTH",
"549 534 OFFCURVE",
"558 550 OFFCURVE",
"558 584 CURVE SMOOTH",
"558 630 LINE SMOOTH",
"558 664 OFFCURVE",
"549 680 OFFCURVE",
"510 680 CURVE SMOOTH",
"95 680 LINE SMOOTH",
"56 680 OFFCURVE",
"43 663 OFFCURVE",
"43 629 CURVE SMOOTH",
"43 50 LINE SMOOTH",
"43 16 OFFCURVE",
"56 0 OFFCURVE",
"95 0 CURVE SMOOTH"
);
},
{
closed = 1;
nodes = (
"313 -206 LINE SMOOTH",
"350 -206 OFFCURVE",
"374 -177 OFFCURVE",
"374 -142 CURVE SMOOTH",
"374 -117 LINE SMOOTH",
"374 -81 OFFCURVE",
"349 -53 OFFCURVE",
"313 -53 CURVE SMOOTH",
"286 -53 LINE SMOOTH",
"251 -53 OFFCURVE",
"225 -81 OFFCURVE",
"225 -117 CURVE SMOOTH",
"225 -142 LINE SMOOTH",
"225 -177 OFFCURVE",
"251 -206 OFFCURVE",
"286 -206 CURVE SMOOTH"
);
},
{
closed = 1;
nodes = (
"188 730 LINE SMOOTH",
"221 730 OFFCURVE",
"231 737 OFFCURVE",
"243 756 CURVE SMOOTH",
"294 833 LINE",
"344 756 LINE SMOOTH",
"357 737 OFFCURVE",
"366 730 OFFCURVE",
"400 730 CURVE SMOOTH",
"475 730 LINE SMOOTH",
"506 730 OFFCURVE",
"516 749 OFFCURVE",
"494 777 CURVE SMOOTH",
"398 902 LINE SMOOTH",
"383 922 OFFCURVE",
"379 929 OFFCURVE",
"344 929 CURVE SMOOTH",
"243 929 LINE SMOOTH",
"208 929 OFFCURVE",
"205 922 OFFCURVE",
"189 902 CURVE SMOOTH",
"93 777 LINE SMOOTH",
"71 749 OFFCURVE",
"81 730 OFFCURVE",
"113 730 CURVE SMOOTH"
);
}
);
width = 571;
}
);
note = Ecircumflexdotbelow;
unicode = 1EC6;
},
{
glyphname = Ecircumflexgrave;
lastChange = "2015-07-18 14:08:48 +0000";
layers = (
{
layerId = "CB7AEA60-8A82-4B68-BB53-DB0CB6827011";
name = SemiBold;
paths = (
{
closed = 1;
nodes = (
"509 0 LINE SMOOTH",
"548 0 OFFCURVE",
"557 16 OFFCURVE",
"557 49 CURVE SMOOTH",
"557 95 LINE SMOOTH",
"557 129 OFFCURVE",
"548 145 OFFCURVE",
"509 145 CURVE SMOOTH",
"245 145 LINE",
"245 268 LINE",
"420 268 LINE SMOOTH",
"459 268 OFFCURVE",
"469 284 OFFCURVE",
"469 318 CURVE SMOOTH",
"469 362 LINE SMOOTH",
"469 396 OFFCURVE",
"459 412 OFFCURVE",
"420 412 CURVE SMOOTH",
"245 412 LINE",
"245 534 LINE",
"510 534 LINE SMOOTH",
"549 534 OFFCURVE",
"558 550 OFFCURVE",
"558 584 CURVE SMOOTH",
"558 630 LINE SMOOTH",
"558 664 OFFCURVE",
"549 680 OFFCURVE",
"510 680 CURVE SMOOTH",
"95 680 LINE SMOOTH",
"56 680 OFFCURVE",
"43 663 OFFCURVE",
"43 629 CURVE SMOOTH",
"43 50 LINE SMOOTH",
"43 16 OFFCURVE",
"56 0 OFFCURVE",
"95 0 CURVE SMOOTH"
);
},
{
closed = 1;
nodes = (
"211 723 LINE SMOOTH",
"244 723 OFFCURVE",
"254 729 OFFCURVE",
"266 748 CURVE SMOOTH",
"312 816 LINE",
"359 748 LINE",
"371 729 OFFCURVE",
"381 723 OFFCURVE",
"414 723 CURVE SMOOTH",
"485 723 LINE SMOOTH",
"517 723 OFFCURVE",
"526 742 OFFCURVE",
"504 770 CURVE SMOOTH",
"409 889 LINE SMOOTH",
"393 909 OFFCURVE",
"389 916 OFFCURVE",
"355 916 CURVE SMOOTH",
"270 916 LINE SMOOTH",
"236 916 OFFCURVE",
"231 909 OFFCURVE",
"216 889 CURVE SMOOTH",
"121 770 LINE SMOOTH",
"99 742 OFFCURVE",
"108 723 OFFCURVE",
"140 723 CURVE SMOOTH"
);
},
{
closed = 1;
nodes = (
"196 879 LINE SMOOTH",
"221 879 OFFCURVE",
"230 894 OFFCURVE",
"223 912 CURVE SMOOTH",
"191 999 LINE SMOOTH",
"182 1023 OFFCURVE",
"177 1033 OFFCURVE",
"146 1033 CURVE SMOOTH",
"72 1033 LINE SMOOTH",
"42 1033 OFFCURVE",
"35 1014 OFFCURVE",
"51 986 CURVE SMOOTH",
"93 911 LINE",
"110 883 OFFCURVE",
"117 879 OFFCURVE",
"152 879 CURVE SMOOTH"
);
}
);
width = 571;
}
);
note = Ecircumflexgrave;
unicode = 1EC0;
},
{
glyphname = Ecircumflexhookabove;
lastChange = "2015-07-18 14:07:22 +0000";
layers = (
{
layerId = "CB7AEA60-8A82-4B68-BB53-DB0CB6827011";
name = SemiBold;
paths = (
{
closed = 1;
nodes = (
"509 0 LINE SMOOTH",
"548 0 OFFCURVE",
"557 16 OFFCURVE",
"557 49 CURVE SMOOTH",
"557 95 LINE SMOOTH",
"557 129 OFFCURVE",
"548 145 OFFCURVE",
"509 145 CURVE SMOOTH",
"245 145 LINE",
"245 268 LINE",
"420 268 LINE SMOOTH",
"459 268 OFFCURVE",
"469 284 OFFCURVE",
"469 318 CURVE SMOOTH",
"469 362 LINE SMOOTH",
"469 396 OFFCURVE",
"459 412 OFFCURVE",
"420 412 CURVE SMOOTH",
"245 412 LINE",
"245 534 LINE",
"510 534 LINE SMOOTH",
"549 534 OFFCURVE",
"558 550 OFFCURVE",
"558 584 CURVE SMOOTH",
"558 630 LINE SMOOTH",
"558 664 OFFCURVE",
"549 680 OFFCURVE",
"510 680 CURVE SMOOTH",
"95 680 LINE SMOOTH",
"56 680 OFFCURVE",
"43 663 OFFCURVE",
"43 629 CURVE SMOOTH",
"43 50 LINE SMOOTH",
"43 16 OFFCURVE",
"56 0 OFFCURVE",
"95 0 CURVE SMOOTH"
);
},
{
closed = 1;
nodes = (
"196 723 LINE SMOOTH",
"229 723 OFFCURVE",
"239 729 OFFCURVE",
"251 748 CURVE",
"298 816 LINE",
"344 748 LINE SMOOTH",
"357 729 OFFCURVE",
"367 723 OFFCURVE",
"399 723 CURVE SMOOTH",
"470 723 LINE SMOOTH",
"502 723 OFFCURVE",
"511 742 OFFCURVE",
"489 770 CURVE SMOOTH",
"394 889 LINE SMOOTH",
"379 909 OFFCURVE",
"374 916 OFFCURVE",
"340 916 CURVE SMOOTH",
"256 916 LINE SMOOTH",
"221 916 OFFCURVE",
"217 909 OFFCURVE",
"202 889 CURVE SMOOTH",
"107 770 LINE SMOOTH",
"84 742 OFFCURVE",
"94 723 OFFCURVE",
"125 723 CURVE SMOOTH"
);
},
{
closed = 1;
nodes = (
"500 867 LINE SMOOTH",
"512 867 OFFCURVE",
"517 873 OFFCURVE",
"517 884 CURVE SMOOTH",
"517 899 LINE",
"553 899 OFFCURVE",
"583 922 OFFCURVE",
"583 966 CURVE SMOOTH",
"583 1015 OFFCURVE",
"552 1041 OFFCURVE",
"482 1041 CURVE SMOOTH",
"446 1041 OFFCURVE",
"409 1033 OFFCURVE",
"385 1020 CURVE SMOOTH",
"379 1017 OFFCURVE",
"380 1013 OFFCURVE",
"382 1009 CURVE",
"402 965 LINE",
"404 961 OFFCURVE",
"407 961 OFFCURVE",
"410 963 CURVE",
"423 971 OFFCURVE",
"440 976 OFFCURVE",
"458 976 CURVE SMOOTH",
"474 976 OFFCURVE",
"481 971 OFFCURVE",
"481 960 CURVE SMOOTH",
"481 946 OFFCURVE",
"471 942 OFFCURVE",
"449 942 CURVE SMOOTH",
"428 942 OFFCURVE",
"422 935 OFFCURVE",
"422 918 CURVE SMOOTH",
"422 884 LINE SMOOTH",
"422 873 OFFCURVE",
"427 867 OFFCURVE",
"439 867 CURVE SMOOTH"
);
}
);
width = 571;
}
);
note = Ecircumflexhookabove;
unicode = 1EC2;
},
{
glyphname = Ecircumflextilde;
lastChange = "2015-07-18 14:07:26 +0000";
layers = (
{
layerId = "CB7AEA60-8A82-4B68-BB53-DB0CB6827011";
name = SemiBold;
paths = (
{
closed = 1;
nodes = (
"509 0 LINE SMOOTH",
"548 0 OFFCURVE",
"557 16 OFFCURVE",
"557 49 CURVE SMOOTH",
"557 95 LINE SMOOTH",
"557 129 OFFCURVE",
"548 145 OFFCURVE",
"509 145 CURVE SMOOTH",
"245 145 LINE",
"245 268 LINE",
"420 268 LINE SMOOTH",
"459 268 OFFCURVE",
"469 284 OFFCURVE",
"469 318 CURVE SMOOTH",
"469 362 LINE SMOOTH",
"469 396 OFFCURVE",
"459 412 OFFCURVE",
"420 412 CURVE SMOOTH",
"245 412 LINE",
"245 534 LINE",
"510 534 LINE SMOOTH",
"549 534 OFFCURVE",
"558 550 OFFCURVE",
"558 584 CURVE SMOOTH",
"558 630 LINE SMOOTH",
"558 664 OFFCURVE",
"549 680 OFFCURVE",
"510 680 CURVE SMOOTH",
"95 680 LINE SMOOTH",
"56 680 OFFCURVE",
"43 663 OFFCURVE",
"43 629 CURVE SMOOTH",
"43 50 LINE SMOOTH",
"43 16 OFFCURVE",
"56 0 OFFCURVE",
"95 0 CURVE SMOOTH"
);
},
{
closed = 1;
nodes = (
"202 723 LINE SMOOTH",
"235 723 OFFCURVE",
"244 730 OFFCURVE",
"257 748 CURVE SMOOTH",
"303 811 LINE",
"350 748 LINE SMOOTH",
"363 730 OFFCURVE",
"372 723 OFFCURVE",
"405 723 CURVE SMOOTH",
"476 723 LINE SMOOTH",
"508 723 OFFCURVE",
"517 743 OFFCURVE",
"495 770 CURVE SMOOTH",
"400 884 LINE SMOOTH",
"384 903 OFFCURVE",
"380 911 OFFCURVE",
"346 911 CURVE SMOOTH",
"261 911 LINE SMOOTH",
"227 911 OFFCURVE",
"223 903 OFFCURVE",
"207 884 CURVE SMOOTH",
"112 770 LINE SMOOTH",
"89 743 OFFCURVE",
"99 723 OFFCURVE",
"131 723 CURVE SMOOTH"
);
},
{
closed = 1;
nodes = (
"438 922 OFFCURVE",
"462 937 OFFCURVE",
"492 978 CURVE SMOOTH",
"513 1006 OFFCURVE",
"506 1016 OFFCURVE",
"475 1040 CURVE SMOOTH",
"443 1064 OFFCURVE",
"429 1066 OFFCURVE",
"414 1047 CURVE",
"397 1027 OFFCURVE",
"386 1021 OFFCURVE",
"364 1021 CURVE SMOOTH",
"328 1021 OFFCURVE",
"295 1057 OFFCURVE",
"232 1057 CURVE SMOOTH",
"185 1057 OFFCURVE",
"153 1038 OFFCURVE",
"122 996 CURVE",
"103 973 OFFCURVE",
"106 964 OFFCURVE",
"137 939 CURVE SMOOTH",
"171 913 OFFCURVE",
"182 914 OFFCURVE",
"201 935 CURVE SMOOTH",
"218 953 OFFCURVE",
"229 957 OFFCURVE",
"252 957 CURVE SMOOTH",
"288 957 OFFCURVE",
"332 922 OFFCURVE",
"385 922 CURVE SMOOTH"
);
}
);
width = 571;
}
);
note = Ecircumflextilde;
unicode = 1EC4;
},
{
glyphname = Edieresis;
lastChange = "2015-07-18 14:07:35 +0000";
layers = (
{
layerId = "CB7AEA60-8A82-4B68-BB53-DB0CB6827011";
name = SemiBold;
paths = (
{
closed = 1;
nodes = (
"509 0 LINE SMOOTH",
"548 0 OFFCURVE",
"557 16 OFFCURVE",
"557 49 CURVE SMOOTH",
"557 95 LINE SMOOTH",
"557 129 OFFCURVE",
"548 145 OFFCURVE",
"509 145 CURVE SMOOTH",
"245 145 LINE",
"245 268 LINE",
"420 268 LINE SMOOTH",
"459 268 OFFCURVE",
"469 284 OFFCURVE",
"469 318 CURVE SMOOTH",
"469 362 LINE SMOOTH",
"469 396 OFFCURVE",
"459 412 OFFCURVE",
"420 412 CURVE SMOOTH",
"245 412 LINE",
"245 534 LINE",
"510 534 LINE SMOOTH",
"549 534 OFFCURVE",
"558 550 OFFCURVE",
"558 584 CURVE SMOOTH",
"558 630 LINE SMOOTH",
"558 664 OFFCURVE",
"549 680 OFFCURVE",
"510 680 CURVE SMOOTH",
"95 680 LINE SMOOTH",
"56 680 OFFCURVE",
"43 663 OFFCURVE",
"43 629 CURVE SMOOTH",
"43 50 LINE SMOOTH",
"43 16 OFFCURVE",
"56 0 OFFCURVE",
"95 0 CURVE SMOOTH"
);
},
{
closed = 1;
nodes = (
"204 721 LINE SMOOTH",
"241 721 OFFCURVE",
"265 750 OFFCURVE",
"265 785 CURVE SMOOTH",
"265 810 LINE SMOOTH",
"265 846 OFFCURVE",
"240 874 OFFCURVE",
"204 874 CURVE SMOOTH",
"177 874 LINE SMOOTH",
"141 874 OFFCURVE",
"116 846 OFFCURVE",
"116 810 CURVE SMOOTH",
"116 785 LINE SMOOTH",
"116 750 OFFCURVE",
"141 721 OFFCURVE",
"177 721 CURVE SMOOTH"
);
},
{
closed = 1;
nodes = (
"418 721 LINE SMOOTH",
"455 721 OFFCURVE",
"479 750 OFFCURVE",
"479 785 CURVE SMOOTH",
"479 810 LINE SMOOTH",
"479 846 OFFCURVE",
"454 874 OFFCURVE",
"418 874 CURVE SMOOTH",
"391 874 LINE SMOOTH",
"356 874 OFFCURVE",
"330 846 OFFCURVE",
"330 810 CURVE SMOOTH",
"330 785 LINE SMOOTH",
"330 750 OFFCURVE",
"356 721 OFFCURVE",
"391 721 CURVE SMOOTH"
);
}
);
width = 571;
}
);
note = Edieresis;
unicode = 00CB;
},
{
glyphname = Edotaccent;
lastChange = "2015-07-18 14:07:39 +0000";
layers = (
{
layerId = "CB7AEA60-8A82-4B68-BB53-DB0CB6827011";
name = SemiBold;
paths = (
{
closed = 1;
nodes = (
"509 0 LINE SMOOTH",
"548 0 OFFCURVE",
"557 16 OFFCURVE",
"557 49 CURVE SMOOTH",
"557 95 LINE SMOOTH",
"557 129 OFFCURVE",
"548 145 OFFCURVE",
"509 145 CURVE SMOOTH",
"245 145 LINE",
"245 268 LINE",
"420 268 LINE SMOOTH",
"459 268 OFFCURVE",
"469 284 OFFCURVE",
"469 318 CURVE SMOOTH",
"469 362 LINE SMOOTH",
"469 396 OFFCURVE",
"459 412 OFFCURVE",
"420 412 CURVE SMOOTH",
"245 412 LINE",
"245 534 LINE",
"510 534 LINE SMOOTH",
"549 534 OFFCURVE",
"558 550 OFFCURVE",
"558 584 CURVE SMOOTH",
"558 630 LINE SMOOTH",
"558 664 OFFCURVE",
"549 680 OFFCURVE",
"510 680 CURVE SMOOTH",
"95 680 LINE SMOOTH",
"56 680 OFFCURVE",
"43 663 OFFCURVE",
"43 629 CURVE SMOOTH",
"43 50 LINE SMOOTH",
"43 16 OFFCURVE",
"56 0 OFFCURVE",
"95 0 CURVE SMOOTH"
);
},
{
closed = 1;
nodes = (
"318 751 LINE SMOOTH",
"355 751 OFFCURVE",
"379 780 OFFCURVE",
"379 815 CURVE SMOOTH",
"379 840 LINE SMOOTH",
"379 876 OFFCURVE",
"354 904 OFFCURVE",
"318 904 CURVE SMOOTH",
"291 904 LINE SMOOTH",
"255 904 OFFCURVE",
"230 876 OFFCURVE",
"230 840 CURVE SMOOTH",
"230 815 LINE SMOOTH",
"230 780 OFFCURVE",
"255 751 OFFCURVE",
"291 751 CURVE SMOOTH"
);
}
);
width = 571;
}
);
note = Edotaccent;
unicode = 0116;
},
{
glyphname = Edotbelow;
lastChange = "2015-07-18 14:07:46 +0000";
layers = (
{
layerId = "CB7AEA60-8A82-4B68-BB53-DB0CB6827011";
name = SemiBold;
paths = (
{
closed = 1;
nodes = (
"509 0 LINE SMOOTH",
"548 0 OFFCURVE",
"557 16 OFFCURVE",
"557 49 CURVE SMOOTH",
"557 95 LINE SMOOTH",
"557 129 OFFCURVE",
"548 145 OFFCURVE",
"509 145 CURVE SMOOTH",
"245 145 LINE",
"245 268 LINE",
"420 268 LINE SMOOTH",
"459 268 OFFCURVE",
"469 284 OFFCURVE",
"469 318 CURVE SMOOTH",
"469 362 LINE SMOOTH",
"469 396 OFFCURVE",
"459 412 OFFCURVE",
"420 412 CURVE SMOOTH",
"245 412 LINE",
"245 534 LINE",
"510 534 LINE SMOOTH",
"549 534 OFFCURVE",
"558 550 OFFCURVE",
"558 584 CURVE SMOOTH",
"558 630 LINE SMOOTH",
"558 664 OFFCURVE",
"549 680 OFFCURVE",
"510 680 CURVE SMOOTH",
"95 680 LINE SMOOTH",
"56 680 OFFCURVE",
"43 663 OFFCURVE",
"43 629 CURVE SMOOTH",
"43 50 LINE SMOOTH",
"43 16 OFFCURVE",
"56 0 OFFCURVE",
"95 0 CURVE SMOOTH"
);
},
{
closed = 1;
nodes = (
"298 -206 LINE SMOOTH",
"335 -206 OFFCURVE",
"359 -177 OFFCURVE",
"359 -142 CURVE SMOOTH",
"359 -117 LINE SMOOTH",
"359 -81 OFFCURVE",
"334 -53 OFFCURVE",
"298 -53 CURVE SMOOTH",
"271 -53 LINE SMOOTH",
"236 -53 OFFCURVE",
"210 -81 OFFCURVE",
"210 -117 CURVE SMOOTH",
"210 -142 LINE SMOOTH",
"210 -177 OFFCURVE",
"236 -206 OFFCURVE",
"271 -206 CURVE SMOOTH"
);
}
);
width = 571;
}
);
note = Edotbelow;
unicode = 1EB8;
},
{
glyphname = Egrave;
lastChange = "2015-07-18 14:07:51 +0000";
layers = (
{
layerId = "CB7AEA60-8A82-4B68-BB53-DB0CB6827011";
name = SemiBold;
paths = (
{
closed = 1;
nodes = (
"509 0 LINE SMOOTH",
"548 0 OFFCURVE",
"557 16 OFFCURVE",
"557 49 CURVE SMOOTH",
"557 95 LINE SMOOTH",
"557 129 OFFCURVE",
"548 145 OFFCURVE",
"509 145 CURVE SMOOTH",
"245 145 LINE",
"245 268 LINE",
"420 268 LINE SMOOTH",
"459 268 OFFCURVE",
"469 284 OFFCURVE",
"469 318 CURVE SMOOTH",
"469 362 LINE SMOOTH",
"469 396 OFFCURVE",
"459 412 OFFCURVE",
"420 412 CURVE SMOOTH",
"245 412 LINE",
"245 534 LINE",
"510 534 LINE SMOOTH",
"549 534 OFFCURVE",
"558 550 OFFCURVE",
"558 584 CURVE SMOOTH",
"558 630 LINE SMOOTH",
"558 664 OFFCURVE",
"549 680 OFFCURVE",
"510 680 CURVE SMOOTH",
"95 680 LINE SMOOTH",
"56 680 OFFCURVE",
"43 663 OFFCURVE",
"43 629 CURVE SMOOTH",
"43 50 LINE SMOOTH",
"43 16 OFFCURVE",
"56 0 OFFCURVE",
"95 0 CURVE SMOOTH"
);
},
{
closed = 1;
nodes = (
"375 741 LINE SMOOTH",
"406 741 OFFCURVE",
"415 758 OFFCURVE",
"406 781 CURVE SMOOTH",
"362 902 LINE SMOOTH",
"353 927 OFFCURVE",
"347 936 OFFCURVE",
"310 936 CURVE SMOOTH",
"190 936 LINE SMOOTH",
"158 936 OFFCURVE",
"141 920 OFFCURVE",
"158 889 CURVE SMOOTH",
"223 774 LINE SMOOTH",
"238 748 OFFCURVE",
"246 741 OFFCURVE",
"286 741 CURVE SMOOTH"
);
}
);
width = 571;
}
);
note = Egrave;
unicode = 00C8;
},
{
glyphname = Ehookabove;
lastChange = "2015-07-18 14:09:02 +0000";
layers = (
{
layerId = "CB7AEA60-8A82-4B68-BB53-DB0CB6827011";
name = SemiBold;
paths = (
{
closed = 1;
nodes = (
"509 0 LINE SMOOTH",
"548 0 OFFCURVE",
"557 16 OFFCURVE",
"557 49 CURVE SMOOTH",
"557 95 LINE SMOOTH",
"557 129 OFFCURVE",
"548 145 OFFCURVE",
"509 145 CURVE SMOOTH",
"245 145 LINE",
"245 268 LINE",
"420 268 LINE SMOOTH",
"459 268 OFFCURVE",
"469 284 OFFCURVE",
"469 318 CURVE SMOOTH",
"469 362 LINE SMOOTH",
"469 396 OFFCURVE",
"459 412 OFFCURVE",
"420 412 CURVE SMOOTH",
"245 412 LINE",
"245 534 LINE",
"510 534 LINE SMOOTH",
"549 534 OFFCURVE",
"558 550 OFFCURVE",
"558 584 CURVE SMOOTH",
"558 630 LINE SMOOTH",
"558 664 OFFCURVE",
"549 680 OFFCURVE",
"510 680 CURVE SMOOTH",
"95 680 LINE SMOOTH",
"56 680 OFFCURVE",
"43 663 OFFCURVE",
"43 629 CURVE SMOOTH",
"43 50 LINE SMOOTH",
"43 16 OFFCURVE",
"56 0 OFFCURVE",
"95 0 CURVE SMOOTH"
);
},
{
closed = 1;
nodes = (
"341 726 LINE SMOOTH",
"357 726 OFFCURVE",
"364 734 OFFCURVE",
"364 749 CURVE SMOOTH",
"364 765 LINE",
"414 765 OFFCURVE",
"456 803 OFFCURVE",
"456 866 CURVE SMOOTH",
"456 935 OFFCURVE",
"409 973 OFFCURVE",
"314 973 CURVE SMOOTH",
"272 973 OFFCURVE",
"218 962 OFFCURVE",
"189 942 CURVE",
"182 938 OFFCURVE",
"182 934 OFFCURVE",
"185 928 CURVE",
"212 865 LINE",
"215 860 OFFCURVE",
"219 860 OFFCURVE",
"224 862 CURVE",
"245 872 OFFCURVE",
"266 880 OFFCURVE",
"291 880 CURVE SMOOTH",
"316 880 OFFCURVE",
"327 873 OFFCURVE",
"327 858 CURVE SMOOTH",
"327 838 OFFCURVE",
"311 832 OFFCURVE",
"278 832 CURVE SMOOTH",
"248 832 OFFCURVE",
"242 822 OFFCURVE",
"242 801 CURVE SMOOTH",
"242 749 LINE SMOOTH",
"242 734 OFFCURVE",
"249 726 OFFCURVE",
"265 726 CURVE SMOOTH"
);
}
);
width = 571;
}
);
note = Ehookabove;
unicode = 1EBA;
},
{
glyphname = Emacron;
lastChange = "2015-07-18 14:09:07 +0000";
layers = (
{
layerId = "CB7AEA60-8A82-4B68-BB53-DB0CB6827011";
name = SemiBold;
paths = (
{
closed = 1;
nodes = (
"509 0 LINE SMOOTH",
"548 0 OFFCURVE",
"557 16 OFFCURVE",
"557 49 CURVE SMOOTH",
"557 95 LINE SMOOTH",
"557 129 OFFCURVE",
"548 145 OFFCURVE",
"509 145 CURVE SMOOTH",
"245 145 LINE",
"245 268 LINE",
"420 268 LINE SMOOTH",
"459 268 OFFCURVE",
"469 284 OFFCURVE",
"469 318 CURVE SMOOTH",
"469 362 LINE SMOOTH",
"469 396 OFFCURVE",
"459 412 OFFCURVE",
"420 412 CURVE SMOOTH",
"245 412 LINE",
"245 534 LINE",
"510 534 LINE SMOOTH",
"549 534 OFFCURVE",
"558 550 OFFCURVE",
"558 584 CURVE SMOOTH",
"558 630 LINE SMOOTH",
"558 664 OFFCURVE",
"549 680 OFFCURVE",
"510 680 CURVE SMOOTH",
"95 680 LINE SMOOTH",
"56 680 OFFCURVE",
"43 663 OFFCURVE",
"43 629 CURVE SMOOTH",
"43 50 LINE SMOOTH",
"43 16 OFFCURVE",
"56 0 OFFCURVE",
"95 0 CURVE SMOOTH"
);
},
{
closed = 1;
nodes = (
"445 753 LINE SMOOTH",
"484 753 OFFCURVE",
"493 769 OFFCURVE",
"493 803 CURVE SMOOTH",
"493 849 LINE SMOOTH",
"493 883 OFFCURVE",
"484 899 OFFCURVE",
"445 899 CURVE SMOOTH",
"176 899 LINE SMOOTH",
"137 899 OFFCURVE",
"127 883 OFFCURVE",
"127 849 CURVE SMOOTH",
"127 803 LINE SMOOTH",
"127 769 OFFCURVE",
"137 753 OFFCURVE",
"176 753 CURVE SMOOTH"
);
}
);
width = 571;
}
);
note = Emacron;
unicode = 0112;
},
{
glyphname = Eogonek;
lastChange = "2015-07-18 14:08:03 +0000";
layers = (
{
layerId = "CB7AEA60-8A82-4B68-BB53-DB0CB6827011";
name = SemiBold;
paths = (
{
closed = 1;
nodes = (
"509 0 LINE SMOOTH",
"548 0 OFFCURVE",
"557 16 OFFCURVE",
"557 49 CURVE SMOOTH",
"557 95 LINE SMOOTH",
"557 129 OFFCURVE",
"548 145 OFFCURVE",
"509 145 CURVE SMOOTH",
"245 145 LINE",
"245 268 LINE",
"420 268 LINE SMOOTH",
"459 268 OFFCURVE",
"469 284 OFFCURVE",
"469 318 CURVE SMOOTH",
"469 362 LINE SMOOTH",
"469 396 OFFCURVE",
"459 412 OFFCURVE",
"420 412 CURVE SMOOTH",
"245 412 LINE",
"245 534 LINE",
"510 534 LINE SMOOTH",
"549 534 OFFCURVE",
"558 550 OFFCURVE",
"558 584 CURVE SMOOTH",
"558 630 LINE SMOOTH",
"558 664 OFFCURVE",
"549 680 OFFCURVE",
"510 680 CURVE SMOOTH",
"95 680 LINE SMOOTH",
"56 680 OFFCURVE",
"43 663 OFFCURVE",
"43 629 CURVE SMOOTH",
"43 50 LINE SMOOTH",
"43 16 OFFCURVE",
"56 0 OFFCURVE",
"95 0 CURVE SMOOTH"
);
},
{
closed = 1;
nodes = (
"460 -220 OFFCURVE",
"492 -216 OFFCURVE",
"518 -204 CURVE SMOOTH",
"531 -198 OFFCURVE",
"531 -194 OFFCURVE",
"528 -187 CURVE SMOOTH",
"507 -142 LINE SMOOTH",
"503 -134 OFFCURVE",
"500 -134 OFFCURVE",
"493 -137 CURVE",
"487 -140 OFFCURVE",
"480 -141 OFFCURVE",
"471 -141 CURVE SMOOTH",
"455 -141 OFFCURVE",
"447 -131 OFFCURVE",
"447 -114 CURVE SMOOTH",
"447 -85 OFFCURVE",
"462 -67 OFFCURVE",
"508 -11 CURVE SMOOTH",
"515 -3 OFFCURVE",
"510 5 OFFCURVE",
"498 5 CURVE SMOOTH",
"401 5 LINE SMOOTH",
"388 5 OFFCURVE",
"384 1 OFFCURVE",
"376 -8 CURVE SMOOTH",
"332 -58 OFFCURVE",
"315 -95 OFFCURVE",
"315 -131 CURVE SMOOTH",
"315 -179 OFFCURVE",
"345 -220 OFFCURVE",
"416 -220 CURVE SMOOTH"
);
}
);
width = 571;
}
);
note = Eogonek;
unicode = 0118;
},
{
glyphname = Etilde;
lastChange = "2015-07-18 14:08:08 +0000";
layers = (
{
layerId = "CB7AEA60-8A82-4B68-BB53-DB0CB6827011";
name = SemiBold;
paths = (
{
closed = 1;
nodes = (
"509 0 LINE SMOOTH",
"548 0 OFFCURVE",
"557 16 OFFCURVE",
"557 49 CURVE SMOOTH",
"557 95 LINE SMOOTH",
"557 129 OFFCURVE",
"548 145 OFFCURVE",
"509 145 CURVE SMOOTH",
"245 145 LINE",
"245 268 LINE",
"420 268 LINE SMOOTH",
"459 268 OFFCURVE",
"469 284 OFFCURVE",
"469 318 CURVE SMOOTH",
"469 362 LINE SMOOTH",
"469 396 OFFCURVE",
"459 412 OFFCURVE",
"420 412 CURVE SMOOTH",
"245 412 LINE",
"245 534 LINE",
"510 534 LINE SMOOTH",
"549 534 OFFCURVE",
"558 550 OFFCURVE",
"558 584 CURVE SMOOTH",
"558 630 LINE SMOOTH",
"558 664 OFFCURVE",
"549 680 OFFCURVE",
"510 680 CURVE SMOOTH",
"95 680 LINE SMOOTH",
"56 680 OFFCURVE",
"43 663 OFFCURVE",
"43 629 CURVE SMOOTH",
"43 50 LINE SMOOTH",
"43 16 OFFCURVE",
"56 0 OFFCURVE",
"95 0 CURVE SMOOTH"
);
},
{
closed = 1;
nodes = (
"481 729 OFFCURVE",
"513 756 OFFCURVE",
"552 813 CURVE SMOOTH",
"574 844 OFFCURVE",
"570 860 OFFCURVE",
"533 888 CURVE SMOOTH",
"495 916 OFFCURVE",
"475 922 OFFCURVE",
"458 901 CURVE SMOOTH",
"437 876 OFFCURVE",
"426 867 OFFCURVE",
"402 867 CURVE SMOOTH",
"354 867 OFFCURVE",
"317 917 OFFCURVE",
"238 917 CURVE SMOOTH",
"181 917 OFFCURVE",
"149 887 OFFCURVE",
"111 835 CURVE SMOOTH",
"89 804 OFFCURVE",
"94 789 OFFCURVE",
"130 762 CURVE SMOOTH",
"167 733 OFFCURVE",
"188 726 OFFCURVE",
"205 747 CURVE",
"225 770 OFFCURVE",
"237 779 OFFCURVE",
"262 779 CURVE SMOOTH",
"313 779 OFFCURVE",
"358 729 OFFCURVE",
"421 729 CURVE SMOOTH"
);
}
);
width = 571;
}
);
note = Etilde;
unicode = 1EBC;
},
{
glyphname = F;
lastChange = "2015-07-18 13:06:12 +0000";
layers = (
{
layerId = "CB7AEA60-8A82-4B68-BB53-DB0CB6827011";
name = SemiBold;
paths = (
{
closed = 1;
nodes = (
"192 0 LINE SMOOTH",
"232 0 OFFCURVE",
"245 16 OFFCURVE",
"245 50 CURVE SMOOTH",
"245 267 LINE",
"420 267 LINE SMOOTH",
"459 267 OFFCURVE",
"469 283 OFFCURVE",
"469 317 CURVE SMOOTH",
"469 363 LINE SMOOTH",
"469 397 OFFCURVE",
"459 413 OFFCURVE",
"420 413 CURVE SMOOTH",
"245 413 LINE",
"245 534 LINE",
"510 534 LINE SMOOTH",
"549 534 OFFCURVE",
"558 550 OFFCURVE",
"558 584 CURVE SMOOTH",
"558 630 LINE SMOOTH",
"558 664 OFFCURVE",
"549 680 OFFCURVE",
"510 680 CURVE SMOOTH",
"95 680 LINE SMOOTH",
"56 680 OFFCURVE",
"43 663 OFFCURVE",
"43 629 CURVE SMOOTH",
"43 50 LINE SMOOTH",
"43 16 OFFCURVE",
"56 0 OFFCURVE",
"95 0 CURVE SMOOTH"
);
}
);
width = 561;
}
);
note = F;
unicode = 0046;
},
{
glyphname = G;
lastChange = "2015-07-18 13:06:12 +0000";
layers = (
{
layerId = "CB7AEA60-8A82-4B68-BB53-DB0CB6827011";
name = SemiBold;
paths = (
{
closed = 1;
nodes = (
"515 -15 OFFCURVE",
"601 9 OFFCURVE",
"659 50 CURVE SMOOTH",
"678 64 OFFCURVE",
"682 75 OFFCURVE",
"682 100 CURVE SMOOTH",
"682 344 LINE SMOOTH",
"682 385 OFFCURVE",
"669 407 OFFCURVE",
"622 407 CURVE SMOOTH",
"409 407 LINE SMOOTH",
"370 407 OFFCURVE",
"360 393 OFFCURVE",
"360 359 CURVE SMOOTH",
"360 314 LINE SMOOTH",
"360 280 OFFCURVE",
"370 265 OFFCURVE",
"409 265 CURVE SMOOTH",
"495 265 LINE",
"495 143 LINE",
"475 135 OFFCURVE",
"439 129 OFFCURVE",
"409 129 CURVE SMOOTH",
"293 129 OFFCURVE",
"224 194 OFFCURVE",
"224 340 CURVE SMOOTH",
"224 484 OFFCURVE",
"304 551 OFFCURVE",
"424 551 CURVE SMOOTH",
"488 551 OFFCURVE",
"533 535 OFFCURVE",
"566 518 CURVE SMOOTH",
"584 509 OFFCURVE",
"592 506 OFFCURVE",
"602 524 CURVE SMOOTH",
"646 599 LINE SMOOTH",
"655 615 OFFCURVE",
"657 626 OFFCURVE",
"642 636 CURVE SMOOTH",
"587 673 OFFCURVE",
"501 695 OFFCURVE",
"397 695 CURVE SMOOTH",
"165 695 OFFCURVE",
"23 575 OFFCURVE",
"23 340 CURVE SMOOTH",
"23 104 OFFCURVE",
"164 -15 OFFCURVE",
"397 -15 CURVE SMOOTH"
);
}
);
width = 705;
}
);
note = G;
unicode = 0047;
},
{
glyphname = Gbreve;
lastChange = "2015-07-18 13:06:16 +0000";
layers = (
{
layerId = "CB7AEA60-8A82-4B68-BB53-DB0CB6827011";
name = SemiBold;
paths = (
{
closed = 1;
nodes = (
"515 -15 OFFCURVE",
"601 9 OFFCURVE",
"659 50 CURVE SMOOTH",
"678 64 OFFCURVE",
"682 75 OFFCURVE",
"682 100 CURVE SMOOTH",
"682 344 LINE SMOOTH",
"682 385 OFFCURVE",
"669 407 OFFCURVE",
"622 407 CURVE SMOOTH",
"409 407 LINE SMOOTH",
"370 407 OFFCURVE",
"360 393 OFFCURVE",
"360 359 CURVE SMOOTH",
"360 314 LINE SMOOTH",
"360 280 OFFCURVE",
"370 265 OFFCURVE",
"409 265 CURVE SMOOTH",
"495 265 LINE",
"495 143 LINE",
"475 135 OFFCURVE",
"439 129 OFFCURVE",
"409 129 CURVE SMOOTH",
"293 129 OFFCURVE",
"224 194 OFFCURVE",
"224 340 CURVE SMOOTH",
"224 484 OFFCURVE",
"304 551 OFFCURVE",
"424 551 CURVE SMOOTH",
"488 551 OFFCURVE",
"533 535 OFFCURVE",
"566 518 CURVE SMOOTH",
"584 509 OFFCURVE",
"592 506 OFFCURVE",
"602 524 CURVE SMOOTH",
"646 599 LINE SMOOTH",
"655 615 OFFCURVE",
"657 626 OFFCURVE",
"642 636 CURVE SMOOTH",
"587 673 OFFCURVE",
"501 695 OFFCURVE",
"397 695 CURVE SMOOTH",
"165 695 OFFCURVE",
"23 575 OFFCURVE",
"23 340 CURVE SMOOTH",
"23 104 OFFCURVE",
"164 -15 OFFCURVE",
"397 -15 CURVE SMOOTH"
);
},
{
closed = 1;
nodes = (
"517 720 OFFCURVE",
"580 795 OFFCURVE",
"580 893 CURVE SMOOTH",
"580 904 OFFCURVE",
"574 911 OFFCURVE",
"564 911 CURVE SMOOTH",
"456 911 LINE SMOOTH",
"442 911 OFFCURVE",
"439 904 OFFCURVE",
"439 892 CURVE SMOOTH",
"439 861 OFFCURVE",
"424 843 OFFCURVE",
"391 843 CURVE SMOOTH",
"357 843 OFFCURVE",
"343 861 OFFCURVE",
"343 892 CURVE SMOOTH",
"343 904 OFFCURVE",
"340 911 OFFCURVE",
"326 911 CURVE SMOOTH",
"218 911 LINE SMOOTH",
"208 911 OFFCURVE",
"202 904 OFFCURVE",
"202 893 CURVE SMOOTH",
"202 795 OFFCURVE",
"263 720 OFFCURVE",
"391 720 CURVE SMOOTH"
);
}
);
width = 705;
}
);
note = Gbreve;
unicode = 011E;
},
{
glyphname = Gcaron;
lastChange = "2015-07-18 13:06:18 +0000";
layers = (
{
layerId = "CB7AEA60-8A82-4B68-BB53-DB0CB6827011";
name = SemiBold;
paths = (
{
closed = 1;
nodes = (
"515 -15 OFFCURVE",
"601 9 OFFCURVE",
"659 50 CURVE SMOOTH",
"678 64 OFFCURVE",
"682 75 OFFCURVE",
"682 100 CURVE SMOOTH",
"682 344 LINE SMOOTH",
"682 385 OFFCURVE",
"669 407 OFFCURVE",
"622 407 CURVE SMOOTH",
"409 407 LINE SMOOTH",
"370 407 OFFCURVE",
"360 393 OFFCURVE",
"360 359 CURVE SMOOTH",
"360 314 LINE SMOOTH",
"360 280 OFFCURVE",
"370 265 OFFCURVE",
"409 265 CURVE SMOOTH",
"495 265 LINE",
"495 143 LINE",
"475 135 OFFCURVE",
"439 129 OFFCURVE",
"409 129 CURVE SMOOTH",
"293 129 OFFCURVE",
"224 194 OFFCURVE",
"224 340 CURVE SMOOTH",
"224 484 OFFCURVE",
"304 551 OFFCURVE",
"424 551 CURVE SMOOTH",
"488 551 OFFCURVE",
"533 535 OFFCURVE",
"566 518 CURVE SMOOTH",
"584 509 OFFCURVE",
"592 506 OFFCURVE",
"602 524 CURVE SMOOTH",
"646 599 LINE SMOOTH",
"655 615 OFFCURVE",
"657 626 OFFCURVE",
"642 636 CURVE SMOOTH",
"587 673 OFFCURVE",
"501 695 OFFCURVE",
"397 695 CURVE SMOOTH",
"165 695 OFFCURVE",
"23 575 OFFCURVE",
"23 340 CURVE SMOOTH",
"23 104 OFFCURVE",
"164 -15 OFFCURVE",
"397 -15 CURVE SMOOTH"
);
},
{
closed = 1;
nodes = (
"450 738 LINE SMOOTH",
"485 738 OFFCURVE",
"489 744 OFFCURVE",
"504 764 CURVE SMOOTH",
"600 889 LINE SMOOTH",
"622 917 OFFCURVE",
"614 936 OFFCURVE",
"582 936 CURVE SMOOTH",
"505 936 LINE SMOOTH",
"472 936 OFFCURVE",
"463 930 OFFCURVE",
"450 911 CURVE SMOOTH",
"400 834 LINE",
"349 911 LINE SMOOTH",
"336 930 OFFCURVE",
"327 936 OFFCURVE",
"294 936 CURVE SMOOTH",
"217 936 LINE SMOOTH",
"185 936 OFFCURVE",
"177 917 OFFCURVE",
"199 889 CURVE SMOOTH",
"295 764 LINE SMOOTH",
"311 744 OFFCURVE",
"314 738 OFFCURVE",
"349 738 CURVE SMOOTH"
);
}
);
width = 705;
}
);
note = Gcaron;
unicode = 01E6;
},
{
glyphname = Gcircumflex;
lastChange = "2015-07-18 13:06:17 +0000";
layers = (
{
layerId = "CB7AEA60-8A82-4B68-BB53-DB0CB6827011";
name = SemiBold;
paths = (
{
closed = 1;
nodes = (
"515 -15 OFFCURVE",
"601 9 OFFCURVE",
"659 50 CURVE SMOOTH",
"678 64 OFFCURVE",
"682 75 OFFCURVE",
"682 100 CURVE SMOOTH",
"682 344 LINE SMOOTH",
"682 385 OFFCURVE",
"669 407 OFFCURVE",
"622 407 CURVE SMOOTH",
"409 407 LINE SMOOTH",
"370 407 OFFCURVE",
"360 393 OFFCURVE",
"360 359 CURVE SMOOTH",
"360 314 LINE SMOOTH",
"360 280 OFFCURVE",
"370 265 OFFCURVE",
"409 265 CURVE SMOOTH",
"495 265 LINE",
"495 143 LINE",
"475 135 OFFCURVE",
"439 129 OFFCURVE",
"409 129 CURVE SMOOTH",
"293 129 OFFCURVE",
"224 194 OFFCURVE",
"224 340 CURVE SMOOTH",
"224 484 OFFCURVE",
"304 551 OFFCURVE",
"424 551 CURVE SMOOTH",
"488 551 OFFCURVE",
"533 535 OFFCURVE",
"566 518 CURVE SMOOTH",
"584 509 OFFCURVE",
"592 506 OFFCURVE",
"602 524 CURVE SMOOTH",
"646 599 LINE SMOOTH",
"655 615 OFFCURVE",
"657 626 OFFCURVE",
"642 636 CURVE SMOOTH",
"587 673 OFFCURVE",
"501 695 OFFCURVE",
"397 695 CURVE SMOOTH",
"165 695 OFFCURVE",
"23 575 OFFCURVE",
"23 340 CURVE SMOOTH",
"23 104 OFFCURVE",
"164 -15 OFFCURVE",
"397 -15 CURVE SMOOTH"
);
},
{
closed = 1;
nodes = (
"293 718 LINE SMOOTH",
"326 718 OFFCURVE",
"336 725 OFFCURVE",
"348 744 CURVE SMOOTH",
"399 821 LINE",
"449 744 LINE SMOOTH",
"462 725 OFFCURVE",
"471 718 OFFCURVE",
"505 718 CURVE SMOOTH",
"580 718 LINE SMOOTH",
"611 718 OFFCURVE",
"621 737 OFFCURVE",
"599 765 CURVE SMOOTH",
"503 890 LINE SMOOTH",
"488 910 OFFCURVE",
"484 917 OFFCURVE",
"449 917 CURVE SMOOTH",
"348 917 LINE SMOOTH",
"313 917 OFFCURVE",
"310 910 OFFCURVE",
"294 890 CURVE SMOOTH",
"198 765 LINE SMOOTH",
"176 737 OFFCURVE",
"186 718 OFFCURVE",
"218 718 CURVE SMOOTH"
);
}
);
width = 705;
}
);
note = Gcircumflex;
unicode = 011C;
},
{
glyphname = Gcommaaccent;
lastChange = "2015-07-18 13:06:16 +0000";
layers = (
{
layerId = "CB7AEA60-8A82-4B68-BB53-DB0CB6827011";
name = SemiBold;
paths = (
{
closed = 1;
nodes = (
"515 -15 OFFCURVE",
"601 9 OFFCURVE",
"659 50 CURVE SMOOTH",
"678 64 OFFCURVE",
"682 75 OFFCURVE",
"682 100 CURVE SMOOTH",
"682 344 LINE SMOOTH",
"682 385 OFFCURVE",
"669 407 OFFCURVE",
"622 407 CURVE SMOOTH",
"409 407 LINE SMOOTH",
"370 407 OFFCURVE",
"360 393 OFFCURVE",
"360 359 CURVE SMOOTH",
"360 314 LINE SMOOTH",
"360 280 OFFCURVE",
"370 265 OFFCURVE",
"409 265 CURVE SMOOTH",
"495 265 LINE",
"495 143 LINE",
"475 135 OFFCURVE",
"439 129 OFFCURVE",
"409 129 CURVE SMOOTH",
"293 129 OFFCURVE",
"224 194 OFFCURVE",
"224 340 CURVE SMOOTH",
"224 484 OFFCURVE",
"304 551 OFFCURVE",
"424 551 CURVE SMOOTH",
"488 551 OFFCURVE",
"533 535 OFFCURVE",
"566 518 CURVE SMOOTH",
"584 509 OFFCURVE",
"592 506 OFFCURVE",
"602 524 CURVE SMOOTH",
"646 599 LINE SMOOTH",
"655 615 OFFCURVE",
"657 626 OFFCURVE",
"642 636 CURVE SMOOTH",
"587 673 OFFCURVE",
"501 695 OFFCURVE",
"397 695 CURVE SMOOTH",
"165 695 OFFCURVE",
"23 575 OFFCURVE",
"23 340 CURVE SMOOTH",
"23 104 OFFCURVE",
"164 -15 OFFCURVE",
"397 -15 CURVE SMOOTH"
);
},
{
closed = 1;
nodes = (
"396 -264 LINE SMOOTH",
"419 -264 OFFCURVE",
"429 -256 OFFCURVE",
"435 -241 CURVE SMOOTH",
"501 -86 LINE SMOOTH",
"516 -50 OFFCURVE",
"510 -36 OFFCURVE",
"471 -36 CURVE SMOOTH",
"391 -36 LINE SMOOTH",
"360 -36 OFFCURVE",
"350 -43 OFFCURVE",
"341 -73 CURVE SMOOTH",
"296 -231 LINE SMOOTH",
"291 -250 OFFCURVE",
"295 -264 OFFCURVE",
"320 -264 CURVE SMOOTH"
);
}
);
width = 705;
}
);
note = Gcommaaccent;
unicode = 0122;
},
{
glyphname = Gdotaccent;
lastChange = "2015-07-18 13:06:16 +0000";
layers = (
{
layerId = "CB7AEA60-8A82-4B68-BB53-DB0CB6827011";
name = SemiBold;
paths = (
{
closed = 1;
nodes = (
"515 -15 OFFCURVE",
"601 9 OFFCURVE",
"659 50 CURVE SMOOTH",
"678 64 OFFCURVE",
"682 75 OFFCURVE",
"682 100 CURVE SMOOTH",
"682 344 LINE SMOOTH",
"682 385 OFFCURVE",
"669 407 OFFCURVE",
"622 407 CURVE SMOOTH",
"409 407 LINE SMOOTH",
"370 407 OFFCURVE",
"360 393 OFFCURVE",
"360 359 CURVE SMOOTH",
"360 314 LINE SMOOTH",
"360 280 OFFCURVE",
"370 265 OFFCURVE",
"409 265 CURVE SMOOTH",
"495 265 LINE",
"495 143 LINE",
"475 135 OFFCURVE",
"439 129 OFFCURVE",
"409 129 CURVE SMOOTH",
"293 129 OFFCURVE",
"224 194 OFFCURVE",
"224 340 CURVE SMOOTH",
"224 484 OFFCURVE",
"304 551 OFFCURVE",
"424 551 CURVE SMOOTH",
"488 551 OFFCURVE",
"533 535 OFFCURVE",
"566 518 CURVE SMOOTH",
"584 509 OFFCURVE",
"592 506 OFFCURVE",
"602 524 CURVE SMOOTH",
"646 599 LINE SMOOTH",
"655 615 OFFCURVE",
"657 626 OFFCURVE",
"642 636 CURVE SMOOTH",
"587 673 OFFCURVE",
"501 695 OFFCURVE",
"397 695 CURVE SMOOTH",
"165 695 OFFCURVE",
"23 575 OFFCURVE",
"23 340 CURVE SMOOTH",
"23 104 OFFCURVE",
"164 -15 OFFCURVE",
"397 -15 CURVE SMOOTH"
);
},
{
closed = 1;
nodes = (
"404 743 LINE SMOOTH",
"441 743 OFFCURVE",
"465 772 OFFCURVE",
"465 807 CURVE SMOOTH",
"465 832 LINE SMOOTH",
"465 868 OFFCURVE",
"440 896 OFFCURVE",
"404 896 CURVE SMOOTH",
"377 896 LINE SMOOTH",
"341 896 OFFCURVE",
"316 868 OFFCURVE",
"316 832 CURVE SMOOTH",
"316 807 LINE SMOOTH",
"316 772 OFFCURVE",
"341 743 OFFCURVE",
"377 743 CURVE SMOOTH"
);
}
);
width = 705;
}
);
note = Gdotaccent;
unicode = 0120;
},
{
glyphname = Gmacron;
lastChange = "2015-07-18 13:06:16 +0000";
layers = (
{
layerId = "CB7AEA60-8A82-4B68-BB53-DB0CB6827011";
name = SemiBold;
paths = (
{
closed = 1;
nodes = (
"515 -15 OFFCURVE",
"601 9 OFFCURVE",
"659 50 CURVE SMOOTH",
"678 64 OFFCURVE",
"682 75 OFFCURVE",
"682 100 CURVE SMOOTH",
"682 344 LINE SMOOTH",
"682 385 OFFCURVE",
"669 407 OFFCURVE",
"622 407 CURVE SMOOTH",
"409 407 LINE SMOOTH",
"370 407 OFFCURVE",
"360 393 OFFCURVE",
"360 359 CURVE SMOOTH",
"360 314 LINE SMOOTH",
"360 280 OFFCURVE",
"370 265 OFFCURVE",
"409 265 CURVE SMOOTH",
"495 265 LINE",
"495 143 LINE",
"475 135 OFFCURVE",
"439 129 OFFCURVE",
"409 129 CURVE SMOOTH",
"293 129 OFFCURVE",
"224 194 OFFCURVE",
"224 340 CURVE SMOOTH",
"224 484 OFFCURVE",
"304 551 OFFCURVE",
"424 551 CURVE SMOOTH",
"488 551 OFFCURVE",
"533 535 OFFCURVE",
"566 518 CURVE SMOOTH",
"584 509 OFFCURVE",
"592 506 OFFCURVE",
"602 524 CURVE SMOOTH",
"646 599 LINE SMOOTH",
"655 615 OFFCURVE",
"657 626 OFFCURVE",
"642 636 CURVE SMOOTH",
"587 673 OFFCURVE",
"501 695 OFFCURVE",
"397 695 CURVE SMOOTH",
"165 695 OFFCURVE",
"23 575 OFFCURVE",
"23 340 CURVE SMOOTH",
"23 104 OFFCURVE",
"164 -15 OFFCURVE",
"397 -15 CURVE SMOOTH"
);
},
{
closed = 1;
nodes = (
"508 741 LINE SMOOTH",
"547 741 OFFCURVE",
"556 757 OFFCURVE",
"556 791 CURVE SMOOTH",
"556 837 LINE SMOOTH",
"556 871 OFFCURVE",
"547 887 OFFCURVE",
"508 887 CURVE SMOOTH",
"239 887 LINE SMOOTH",
"200 887 OFFCURVE",
"190 871 OFFCURVE",
"190 837 CURVE SMOOTH",
"190 791 LINE SMOOTH",
"190 757 OFFCURVE",
"200 741 OFFCURVE",
"239 741 CURVE SMOOTH"
);
}
);
width = 705;
}
);
note = Gmacron;
unicode = 1E20;
},
{
glyphname = H;
lastChange = "2015-07-18 13:06:12 +0000";
layers = (
{
layerId = "CB7AEA60-8A82-4B68-BB53-DB0CB6827011";
name = SemiBold;
paths = (
{
closed = 1;
nodes = (
"192 0 LINE SMOOTH",
"232 0 OFFCURVE",
"245 16 OFFCURVE",
"245 50 CURVE SMOOTH",
"245 268 LINE",
"473 268 LINE",
"473 50 LINE SMOOTH",
"473 16 OFFCURVE",
"487 0 OFFCURVE",
"526 0 CURVE SMOOTH",
"623 0 LINE SMOOTH",
"663 0 OFFCURVE",
"676 16 OFFCURVE",
"676 50 CURVE SMOOTH",
"676 629 LINE SMOOTH",
"676 663 OFFCURVE",
"663 680 OFFCURVE",
"623 680 CURVE SMOOTH",
"526 680 LINE SMOOTH",
"487 680 OFFCURVE",
"473 663 OFFCURVE",
"473 629 CURVE SMOOTH",
"473 413 LINE",
"245 413 LINE",
"245 629 LINE SMOOTH",
"245 663 OFFCURVE",
"232 680 OFFCURVE",
"192 680 CURVE SMOOTH",
"95 680 LINE SMOOTH",
"56 680 OFFCURVE",
"43 663 OFFCURVE",
"43 629 CURVE SMOOTH",
"43 50 LINE SMOOTH",
"43 16 OFFCURVE",
"56 0 OFFCURVE",
"95 0 CURVE SMOOTH"
);
}
);
width = 719;
}
);
note = H;
unicode = 0048;
},
{
glyphname = Hbar;
lastChange = "2015-07-18 14:09:27 +0000";
layers = (
{
layerId = "CB7AEA60-8A82-4B68-BB53-DB0CB6827011";
name = SemiBold;
paths = (
{
closed = 1;
nodes = (
"219 0 LINE SMOOTH",
"259 0 OFFCURVE",
"272 16 OFFCURVE",
"272 50 CURVE SMOOTH",
"272 268 LINE",
"500 268 LINE",
"500 50 LINE SMOOTH",
"500 16 OFFCURVE",
"514 0 OFFCURVE",
"553 0 CURVE SMOOTH",
"650 0 LINE SMOOTH",
"690 0 OFFCURVE",
"703 16 OFFCURVE",
"703 50 CURVE SMOOTH",
"703 629 LINE SMOOTH",
"703 663 OFFCURVE",
"690 680 OFFCURVE",
"650 680 CURVE SMOOTH",
"553 680 LINE SMOOTH",
"514 680 OFFCURVE",
"500 663 OFFCURVE",
"500 629 CURVE SMOOTH",
"500 413 LINE",
"272 413 LINE",
"272 629 LINE SMOOTH",
"272 663 OFFCURVE",
"259 680 OFFCURVE",
"219 680 CURVE SMOOTH",
"122 680 LINE SMOOTH",
"83 680 OFFCURVE",
"70 663 OFFCURVE",
"70 629 CURVE SMOOTH",
"70 50 LINE SMOOTH",
"70 16 OFFCURVE",
"83 0 OFFCURVE",
"122 0 CURVE SMOOTH"
);
},
{
closed = 1;
nodes = (
"715 477 LINE SMOOTH",
"743 477 OFFCURVE",
"750 483 OFFCURVE",
"750 511 CURVE SMOOTH",
"750 562 LINE SMOOTH",
"750 589 OFFCURVE",
"743 596 OFFCURVE",
"715 596 CURVE SMOOTH",
"55 596 LINE SMOOTH",
"27 596 OFFCURVE",
"20 589 OFFCURVE",
"20 562 CURVE SMOOTH",
"20 511 LINE SMOOTH",
"20 483 OFFCURVE",
"27 477 OFFCURVE",
"55 477 CURVE SMOOTH"
);
}
);
width = 770;
}
);
note = Hbar;
unicode = 0126;
},
{
glyphname = Hbrevebelow;
lastChange = "2015-07-18 13:06:16 +0000";
layers = (
{
layerId = "CB7AEA60-8A82-4B68-BB53-DB0CB6827011";
name = SemiBold;
paths = (
{
closed = 1;
nodes = (
"192 0 LINE SMOOTH",
"232 0 OFFCURVE",
"245 16 OFFCURVE",
"245 50 CURVE SMOOTH",
"245 268 LINE",
"473 268 LINE",
"473 50 LINE SMOOTH",
"473 16 OFFCURVE",
"487 0 OFFCURVE",
"526 0 CURVE SMOOTH",
"623 0 LINE SMOOTH",
"663 0 OFFCURVE",
"676 16 OFFCURVE",
"676 50 CURVE SMOOTH",
"676 629 LINE SMOOTH",
"676 663 OFFCURVE",
"663 680 OFFCURVE",
"623 680 CURVE SMOOTH",
"526 680 LINE SMOOTH",
"487 680 OFFCURVE",
"473 663 OFFCURVE",
"473 629 CURVE SMOOTH",
"473 413 LINE",
"245 413 LINE",
"245 629 LINE SMOOTH",
"245 663 OFFCURVE",
"232 680 OFFCURVE",
"192 680 CURVE SMOOTH",
"95 680 LINE SMOOTH",
"56 680 OFFCURVE",
"43 663 OFFCURVE",
"43 629 CURVE SMOOTH",
"43 50 LINE SMOOTH",
"43 16 OFFCURVE",
"56 0 OFFCURVE",
"95 0 CURVE SMOOTH"
);
},
{
closed = 1;
nodes = (
"486 -228 OFFCURVE",
"549 -153 OFFCURVE",
"549 -55 CURVE SMOOTH",
"549 -44 OFFCURVE",
"543 -37 OFFCURVE",
"533 -37 CURVE SMOOTH",
"425 -37 LINE SMOOTH",
"411 -37 OFFCURVE",
"408 -44 OFFCURVE",
"408 -56 CURVE SMOOTH",
"408 -87 OFFCURVE",
"393 -105 OFFCURVE",
"360 -105 CURVE SMOOTH",
"327 -105 OFFCURVE",
"312 -87 OFFCURVE",
"312 -56 CURVE SMOOTH",
"312 -44 OFFCURVE",
"309 -37 OFFCURVE",
"295 -37 CURVE SMOOTH",
"187 -37 LINE SMOOTH",
"177 -37 OFFCURVE",
"171 -44 OFFCURVE",
"171 -55 CURVE SMOOTH",
"171 -153 OFFCURVE",
"232 -228 OFFCURVE",
"360 -228 CURVE SMOOTH"
);
}
);
width = 719;
}
);
note = Hbrevebelow;
unicode = 1E2A;
},
{
glyphname = Hcircumflex;
lastChange = "2015-07-18 13:06:18 +0000";
layers = (
{
layerId = "CB7AEA60-8A82-4B68-BB53-DB0CB6827011";
name = SemiBold;
paths = (
{
closed = 1;
nodes = (
"192 0 LINE SMOOTH",
"232 0 OFFCURVE",
"245 16 OFFCURVE",
"245 50 CURVE SMOOTH",
"245 268 LINE",
"473 268 LINE",
"473 50 LINE SMOOTH",
"473 16 OFFCURVE",
"487 0 OFFCURVE",
"526 0 CURVE SMOOTH",
"623 0 LINE SMOOTH",
"663 0 OFFCURVE",
"676 16 OFFCURVE",
"676 50 CURVE SMOOTH",
"676 629 LINE SMOOTH",
"676 663 OFFCURVE",
"663 680 OFFCURVE",
"623 680 CURVE SMOOTH",
"526 680 LINE SMOOTH",
"487 680 OFFCURVE",
"473 663 OFFCURVE",
"473 629 CURVE SMOOTH",
"473 413 LINE",
"245 413 LINE",
"245 629 LINE SMOOTH",
"245 663 OFFCURVE",
"232 680 OFFCURVE",
"192 680 CURVE SMOOTH",
"95 680 LINE SMOOTH",
"56 680 OFFCURVE",
"43 663 OFFCURVE",
"43 629 CURVE SMOOTH",
"43 50 LINE SMOOTH",
"43 16 OFFCURVE",
"56 0 OFFCURVE",
"95 0 CURVE SMOOTH"
);
},
{
closed = 1;
nodes = (
"253 742 LINE SMOOTH",
"286 742 OFFCURVE",
"296 749 OFFCURVE",
"308 768 CURVE SMOOTH",
"359 845 LINE",
"409 768 LINE SMOOTH",
"422 749 OFFCURVE",
"431 742 OFFCURVE",
"465 742 CURVE SMOOTH",
"540 742 LINE SMOOTH",
"571 742 OFFCURVE",
"581 761 OFFCURVE",
"559 789 CURVE SMOOTH",
"463 914 LINE SMOOTH",
"448 934 OFFCURVE",
"444 941 OFFCURVE",
"409 941 CURVE SMOOTH",
"308 941 LINE SMOOTH",
"273 941 OFFCURVE",
"270 934 OFFCURVE",
"254 914 CURVE SMOOTH",
"158 789 LINE SMOOTH",
"136 761 OFFCURVE",
"146 742 OFFCURVE",
"178 742 CURVE SMOOTH"
);
}
);
width = 719;
}
);
note = Hcircumflex;
unicode = 0124;
},
{
glyphname = Hdotbelow;
lastChange = "2015-07-18 13:06:17 +0000";
layers = (
{
layerId = "CB7AEA60-8A82-4B68-BB53-DB0CB6827011";
name = SemiBold;
paths = (
{
closed = 1;
nodes = (
"192 0 LINE SMOOTH",
"232 0 OFFCURVE",
"245 16 OFFCURVE",
"245 50 CURVE SMOOTH",
"245 268 LINE",
"473 268 LINE",
"473 50 LINE SMOOTH",
"473 16 OFFCURVE",
"487 0 OFFCURVE",
"526 0 CURVE SMOOTH",
"623 0 LINE SMOOTH",
"663 0 OFFCURVE",
"676 16 OFFCURVE",
"676 50 CURVE SMOOTH",
"676 629 LINE SMOOTH",
"676 663 OFFCURVE",
"663 680 OFFCURVE",
"623 680 CURVE SMOOTH",
"526 680 LINE SMOOTH",
"487 680 OFFCURVE",
"473 663 OFFCURVE",
"473 629 CURVE SMOOTH",
"473 413 LINE",
"245 413 LINE",
"245 629 LINE SMOOTH",
"245 663 OFFCURVE",
"232 680 OFFCURVE",
"192 680 CURVE SMOOTH",
"95 680 LINE SMOOTH",
"56 680 OFFCURVE",
"43 663 OFFCURVE",
"43 629 CURVE SMOOTH",
"43 50 LINE SMOOTH",
"43 16 OFFCURVE",
"56 0 OFFCURVE",
"95 0 CURVE SMOOTH"
);
},
{
closed = 1;
nodes = (
"378 -206 LINE SMOOTH",
"415 -206 OFFCURVE",
"439 -177 OFFCURVE",
"439 -142 CURVE SMOOTH",
"439 -117 LINE SMOOTH",
"439 -81 OFFCURVE",
"414 -53 OFFCURVE",
"378 -53 CURVE SMOOTH",
"351 -53 LINE SMOOTH",
"316 -53 OFFCURVE",
"290 -81 OFFCURVE",
"290 -117 CURVE SMOOTH",
"290 -142 LINE SMOOTH",
"290 -177 OFFCURVE",
"316 -206 OFFCURVE",
"351 -206 CURVE SMOOTH"
);
}
);
width = 719;
}
);
note = Hdotbelow;
unicode = 1E24;
},
{
glyphname = I;
lastChange = "2015-07-18 13:06:12 +0000";
layers = (
{
layerId = "CB7AEA60-8A82-4B68-BB53-DB0CB6827011";
name = SemiBold;
paths = (
{
closed = 1;
nodes = (
"192 0 LINE SMOOTH",
"232 0 OFFCURVE",
"245 16 OFFCURVE",
"245 50 CURVE SMOOTH",
"245 629 LINE SMOOTH",
"245 663 OFFCURVE",
"232 680 OFFCURVE",
"192 680 CURVE SMOOTH",
"95 680 LINE SMOOTH",
"56 680 OFFCURVE",
"43 663 OFFCURVE",
"43 629 CURVE SMOOTH",
"43 50 LINE SMOOTH",
"43 16 OFFCURVE",
"56 0 OFFCURVE",
"95 0 CURVE SMOOTH"
);
}
);
width = 288;
}
);
note = I;
unicode = 0049;
},
{
glyphname = IJ;
lastChange = "2015-07-18 13:06:16 +0000";
layers = (
{
layerId = "CB7AEA60-8A82-4B68-BB53-DB0CB6827011";
name = SemiBold;
paths = (
{
closed = 1;
nodes = (
"641 -15 OFFCURVE",
"721 75 OFFCURVE",
"721 207 CURVE SMOOTH",
"721 629 LINE SMOOTH",
"721 663 OFFCURVE",
"708 680 OFFCURVE",
"668 680 CURVE SMOOTH",
"571 680 LINE SMOOTH",
"532 680 OFFCURVE",
"518 663 OFFCURVE",
"518 629 CURVE SMOOTH",
"518 208 LINE SMOOTH",
"518 157 OFFCURVE",
"495 128 OFFCURVE",
"439 128 CURVE SMOOTH",
"397 128 OFFCURVE",
"362 145 OFFCURVE",
"336 164 CURVE SMOOTH",
"322 174 OFFCURVE",
"310 176 OFFCURVE",
"300 158 CURVE SMOOTH",
"257 84 LINE SMOOTH",
"248 68 OFFCURVE",
"246 55 OFFCURVE",
"261 45 CURVE SMOOTH",
"313 9 OFFCURVE",
"384 -15 OFFCURVE",
"478 -15 CURVE SMOOTH"
);
},
{
closed = 1;
nodes = (
"192 0 LINE SMOOTH",
"232 0 OFFCURVE",
"245 16 OFFCURVE",
"245 50 CURVE SMOOTH",
"245 629 LINE SMOOTH",
"245 663 OFFCURVE",
"232 680 OFFCURVE",
"192 680 CURVE SMOOTH",
"95 680 LINE SMOOTH",
"56 680 OFFCURVE",
"43 663 OFFCURVE",
"43 629 CURVE SMOOTH",
"43 50 LINE SMOOTH",
"43 16 OFFCURVE",
"56 0 OFFCURVE",
"95 0 CURVE SMOOTH"
);
}
);
width = 765;
}
);
note = IJ;
unicode = 0132;
},
{
glyphname = Iacute;
lastChange = "2015-07-18 14:09:47 +0000";
layers = (
{
layerId = "CB7AEA60-8A82-4B68-BB53-DB0CB6827011";
name = SemiBold;
paths = (
{
closed = 1;
nodes = (
"204 0 LINE SMOOTH",
"244 0 OFFCURVE",
"257 16 OFFCURVE",
"257 50 CURVE SMOOTH",
"257 629 LINE SMOOTH",
"257 663 OFFCURVE",
"244 680 OFFCURVE",
"204 680 CURVE SMOOTH",
"107 680 LINE SMOOTH",
"68 680 OFFCURVE",
"55 663 OFFCURVE",
"55 629 CURVE SMOOTH",
"55 50 LINE SMOOTH",
"55 16 OFFCURVE",
"68 0 OFFCURVE",
"107 0 CURVE SMOOTH"
);
},
{
closed = 1;
nodes = (
"189 741 LINE SMOOTH",
"229 741 OFFCURVE",
"237 748 OFFCURVE",
"252 774 CURVE SMOOTH",
"317 889 LINE SMOOTH",
"334 920 OFFCURVE",
"317 936 OFFCURVE",
"285 936 CURVE SMOOTH",
"165 936 LINE SMOOTH",
"128 936 OFFCURVE",
"122 926 OFFCURVE",
"113 902 CURVE SMOOTH",
"69 781 LINE SMOOTH",
"61 758 OFFCURVE",
"69 741 OFFCURVE",
"100 741 CURVE SMOOTH"
);
}
);
width = 312;
}
);
note = Iacute;
unicode = 00CD;
},
{
glyphname = Ibreve;
lastChange = "2015-07-18 14:10:02 +0000";
layers = (
{
layerId = "CB7AEA60-8A82-4B68-BB53-DB0CB6827011";
name = SemiBold;
paths = (
{
closed = 1;
nodes = (
"204 0 LINE SMOOTH",
"244 0 OFFCURVE",
"257 16 OFFCURVE",
"257 50 CURVE SMOOTH",
"257 629 LINE SMOOTH",
"257 663 OFFCURVE",
"244 680 OFFCURVE",
"204 680 CURVE SMOOTH",
"107 680 LINE SMOOTH",
"68 680 OFFCURVE",
"55 663 OFFCURVE",
"55 629 CURVE SMOOTH",
"55 50 LINE SMOOTH",
"55 16 OFFCURVE",
"68 0 OFFCURVE",
"107 0 CURVE SMOOTH"
);
},
{
closed = 1;
nodes = (
"283 741 OFFCURVE",
"346 816 OFFCURVE",
"346 914 CURVE SMOOTH",
"346 925 OFFCURVE",
"340 932 OFFCURVE",
"330 932 CURVE SMOOTH",
"222 932 LINE SMOOTH",
"208 932 OFFCURVE",
"205 925 OFFCURVE",
"205 913 CURVE SMOOTH",
"205 882 OFFCURVE",
"190 864 OFFCURVE",
"157 864 CURVE SMOOTH",
"123 864 OFFCURVE",
"109 882 OFFCURVE",
"109 913 CURVE SMOOTH",
"109 925 OFFCURVE",
"106 932 OFFCURVE",
"92 932 CURVE SMOOTH",
"-16 932 LINE SMOOTH",
"-26 932 OFFCURVE",
"-32 925 OFFCURVE",
"-32 914 CURVE SMOOTH",
"-32 816 OFFCURVE",
"29 741 OFFCURVE",
"157 741 CURVE SMOOTH"
);
}
);
width = 312;
}
);
note = Ibreve;
unicode = 012C;
},
{
glyphname = Icaron;
lastChange = "2015-07-18 14:10:13 +0000";
layers = (
{
layerId = "CB7AEA60-8A82-4B68-BB53-DB0CB6827011";
name = SemiBold;
paths = (
{
closed = 1;
nodes = (
"204 0 LINE SMOOTH",
"244 0 OFFCURVE",
"257 16 OFFCURVE",
"257 50 CURVE SMOOTH",
"257 629 LINE SMOOTH",
"257 663 OFFCURVE",
"244 680 OFFCURVE",
"204 680 CURVE SMOOTH",
"107 680 LINE SMOOTH",
"68 680 OFFCURVE",
"55 663 OFFCURVE",
"55 629 CURVE SMOOTH",
"55 50 LINE SMOOTH",
"55 16 OFFCURVE",
"68 0 OFFCURVE",
"107 0 CURVE SMOOTH"
);
},
{
closed = 1;
nodes = (
"202 738 LINE SMOOTH",
"237 738 OFFCURVE",
"241 744 OFFCURVE",
"256 764 CURVE SMOOTH",
"352 889 LINE SMOOTH",
"374 917 OFFCURVE",
"366 936 OFFCURVE",
"334 936 CURVE SMOOTH",
"257 936 LINE SMOOTH",
"224 936 OFFCURVE",
"215 930 OFFCURVE",
"202 911 CURVE SMOOTH",
"152 834 LINE",
"101 911 LINE SMOOTH",
"88 930 OFFCURVE",
"79 936 OFFCURVE",
"46 936 CURVE SMOOTH",
"-31 936 LINE SMOOTH",
"-63 936 OFFCURVE",
"-71 917 OFFCURVE",
"-49 889 CURVE SMOOTH",
"47 764 LINE SMOOTH",
"63 744 OFFCURVE",
"66 738 OFFCURVE",
"101 738 CURVE SMOOTH"
);
}
);
width = 312;
}
);
note = Icaron;
unicode = 01CF;
},
{
glyphname = Icircumflex;
lastChange = "2015-07-18 14:17:50 +0000";
layers = (
{
layerId = "CB7AEA60-8A82-4B68-BB53-DB0CB6827011";
name = SemiBold;
paths = (
{
closed = 1;
nodes = (
"204 0 LINE SMOOTH",
"244 0 OFFCURVE",
"257 16 OFFCURVE",
"257 50 CURVE SMOOTH",
"257 629 LINE SMOOTH",
"257 663 OFFCURVE",
"244 680 OFFCURVE",
"204 680 CURVE SMOOTH",
"107 680 LINE SMOOTH",
"68 680 OFFCURVE",
"55 663 OFFCURVE",
"55 629 CURVE SMOOTH",
"55 50 LINE SMOOTH",
"55 16 OFFCURVE",
"68 0 OFFCURVE",
"107 0 CURVE SMOOTH"
);
},
{
closed = 1;
nodes = (
"50 749 LINE SMOOTH",
"83 749 OFFCURVE",
"93 756 OFFCURVE",
"105 775 CURVE SMOOTH",
"156 852 LINE",
"206 775 LINE SMOOTH",
"219 756 OFFCURVE",
"228 749 OFFCURVE",
"262 749 CURVE SMOOTH",
"337 749 LINE SMOOTH",
"368 749 OFFCURVE",
"378 768 OFFCURVE",
"356 796 CURVE SMOOTH",
"260 921 LINE SMOOTH",
"245 941 OFFCURVE",
"241 948 OFFCURVE",
"206 948 CURVE SMOOTH",
"105 948 LINE SMOOTH",
"70 948 OFFCURVE",
"67 941 OFFCURVE",
"51 921 CURVE SMOOTH",
"-45 796 LINE SMOOTH",
"-67 768 OFFCURVE",
"-57 749 OFFCURVE",
"-25 749 CURVE SMOOTH"
);
}
);
width = 312;
}
);
note = Icircumflex;
unicode = 00CE;
},
{
glyphname = Idieresis;
lastChange = "2015-07-18 14:13:18 +0000";
layers = (
{
layerId = "CB7AEA60-8A82-4B68-BB53-DB0CB6827011";
name = SemiBold;
paths = (
{
closed = 1;
nodes = (
"204 0 LINE SMOOTH",
"244 0 OFFCURVE",
"257 16 OFFCURVE",
"257 50 CURVE SMOOTH",
"257 629 LINE SMOOTH",
"257 663 OFFCURVE",
"244 680 OFFCURVE",
"204 680 CURVE SMOOTH",
"107 680 LINE SMOOTH",
"68 680 OFFCURVE",
"55 663 OFFCURVE",
"55 629 CURVE SMOOTH",
"55 50 LINE SMOOTH",
"55 16 OFFCURVE",
"68 0 OFFCURVE",
"107 0 CURVE SMOOTH"
);
},
{
closed = 1;
nodes = (
"71 734 LINE SMOOTH",
"108 734 OFFCURVE",
"132 763 OFFCURVE",
"132 798 CURVE SMOOTH",
"132 823 LINE SMOOTH",
"132 859 OFFCURVE",
"107 887 OFFCURVE",
"71 887 CURVE SMOOTH",
"44 887 LINE SMOOTH",
"8 887 OFFCURVE",
"-17 859 OFFCURVE",
"-17 823 CURVE SMOOTH",
"-17 798 LINE SMOOTH",
"-17 763 OFFCURVE",
"8 734 OFFCURVE",
"44 734 CURVE SMOOTH"
);
},
{
closed = 1;
nodes = (
"285 734 LINE SMOOTH",
"322 734 OFFCURVE",
"346 763 OFFCURVE",
"346 798 CURVE SMOOTH",
"346 823 LINE SMOOTH",
"346 859 OFFCURVE",
"321 887 OFFCURVE",
"285 887 CURVE SMOOTH",
"258 887 LINE SMOOTH",
"223 887 OFFCURVE",
"197 859 OFFCURVE",
"197 823 CURVE SMOOTH",
"197 798 LINE SMOOTH",
"197 763 OFFCURVE",
"223 734 OFFCURVE",
"258 734 CURVE SMOOTH"
);
}
);
width = 312;
}
);
note = Idieresis;
unicode = 00CF;
},
{
glyphname = Idotaccent;
lastChange = "2015-07-18 14:13:43 +0000";
layers = (
{
layerId = "CB7AEA60-8A82-4B68-BB53-DB0CB6827011";
name = SemiBold;
paths = (
{
closed = 1;
nodes = (
"192 0 LINE SMOOTH",
"232 0 OFFCURVE",
"245 16 OFFCURVE",
"245 50 CURVE SMOOTH",
"245 629 LINE SMOOTH",
"245 663 OFFCURVE",
"232 680 OFFCURVE",
"192 680 CURVE SMOOTH",
"95 680 LINE SMOOTH",
"56 680 OFFCURVE",
"43 663 OFFCURVE",
"43 629 CURVE SMOOTH",
"43 50 LINE SMOOTH",
"43 16 OFFCURVE",
"56 0 OFFCURVE",
"95 0 CURVE SMOOTH"
);
},
{
closed = 1;
nodes = (
"162 727 LINE SMOOTH",
"199 727 OFFCURVE",
"223 756 OFFCURVE",
"223 791 CURVE SMOOTH",
"223 816 LINE SMOOTH",
"223 852 OFFCURVE",
"198 880 OFFCURVE",
"162 880 CURVE SMOOTH",
"135 880 LINE SMOOTH",
"99 880 OFFCURVE",
"74 852 OFFCURVE",
"74 816 CURVE SMOOTH",
"74 791 LINE SMOOTH",
"74 756 OFFCURVE",
"99 727 OFFCURVE",
"135 727 CURVE SMOOTH"
);
}
);
width = 288;
}
);
note = Idotaccent;
unicode = 0130;
},
{
glyphname = Idotbelow;
lastChange = "2015-07-18 14:14:20 +0000";
layers = (
{
layerId = "CB7AEA60-8A82-4B68-BB53-DB0CB6827011";
name = SemiBold;
paths = (
{
closed = 1;
nodes = (
"192 0 LINE SMOOTH",
"232 0 OFFCURVE",
"245 16 OFFCURVE",
"245 50 CURVE SMOOTH",
"245 629 LINE SMOOTH",
"245 663 OFFCURVE",
"232 680 OFFCURVE",
"192 680 CURVE SMOOTH",
"95 680 LINE SMOOTH",
"56 680 OFFCURVE",
"43 663 OFFCURVE",
"43 629 CURVE SMOOTH",
"43 50 LINE SMOOTH",
"43 16 OFFCURVE",
"56 0 OFFCURVE",
"95 0 CURVE SMOOTH"
);
},
{
closed = 1;
nodes = (
"157 -206 LINE SMOOTH",
"194 -206 OFFCURVE",
"218 -177 OFFCURVE",
"218 -142 CURVE SMOOTH",
"218 -117 LINE SMOOTH",
"218 -81 OFFCURVE",
"193 -53 OFFCURVE",
"157 -53 CURVE SMOOTH",
"130 -53 LINE SMOOTH",
"95 -53 OFFCURVE",
"69 -81 OFFCURVE",
"69 -117 CURVE SMOOTH",
"69 -142 LINE SMOOTH",
"69 -177 OFFCURVE",
"95 -206 OFFCURVE",
"130 -206 CURVE SMOOTH"
);
}
);
width = 288;
}
);
note = Idotbelow;
unicode = 1ECA;
},
{
glyphname = Igrave;
lastChange = "2015-07-18 14:16:40 +0000";
layers = (
{
layerId = "CB7AEA60-8A82-4B68-BB53-DB0CB6827011";
name = SemiBold;
paths = (
{
closed = 1;
nodes = (
"192 0 LINE SMOOTH",
"232 0 OFFCURVE",
"245 16 OFFCURVE",
"245 50 CURVE SMOOTH",
"245 629 LINE SMOOTH",
"245 663 OFFCURVE",
"232 680 OFFCURVE",
"192 680 CURVE SMOOTH",
"95 680 LINE SMOOTH",
"56 680 OFFCURVE",
"43 663 OFFCURVE",
"43 629 CURVE SMOOTH",
"43 50 LINE SMOOTH",
"43 16 OFFCURVE",
"56 0 OFFCURVE",
"95 0 CURVE SMOOTH"
);
},
{
closed = 1;
nodes = (
"196 741 LINE SMOOTH",
"227 741 OFFCURVE",
"236 758 OFFCURVE",
"227 781 CURVE SMOOTH",
"183 902 LINE SMOOTH",
"174 927 OFFCURVE",
"168 936 OFFCURVE",
"131 936 CURVE SMOOTH",
"11 936 LINE SMOOTH",
"-21 936 OFFCURVE",
"-38 920 OFFCURVE",
"-21 889 CURVE SMOOTH",
"44 774 LINE SMOOTH",
"59 748 OFFCURVE",
"67 741 OFFCURVE",
"107 741 CURVE SMOOTH"
);
}
);
width = 288;
}
);
note = Igrave;
unicode = 00CC;
},
{
glyphname = Ihookabove;
lastChange = "2015-07-18 14:16:53 +0000";
layers = (
{
layerId = "CB7AEA60-8A82-4B68-BB53-DB0CB6827011";
name = SemiBold;
paths = (
{
closed = 1;
nodes = (
"192 0 LINE SMOOTH",
"232 0 OFFCURVE",
"245 16 OFFCURVE",
"245 50 CURVE SMOOTH",
"245 629 LINE SMOOTH",
"245 663 OFFCURVE",
"232 680 OFFCURVE",
"192 680 CURVE SMOOTH",
"95 680 LINE SMOOTH",
"56 680 OFFCURVE",
"43 663 OFFCURVE",
"43 629 CURVE SMOOTH",
"43 50 LINE SMOOTH",
"43 16 OFFCURVE",
"56 0 OFFCURVE",
"95 0 CURVE SMOOTH"
);
},
{
closed = 1;
nodes = (
"188 726 LINE SMOOTH",
"204 726 OFFCURVE",
"211 734 OFFCURVE",
"211 749 CURVE SMOOTH",
"211 765 LINE",
"261 765 OFFCURVE",
"303 803 OFFCURVE",
"303 866 CURVE SMOOTH",
"303 935 OFFCURVE",
"256 973 OFFCURVE",
"161 973 CURVE SMOOTH",
"119 973 OFFCURVE",
"65 962 OFFCURVE",
"36 942 CURVE",
"29 938 OFFCURVE",
"29 934 OFFCURVE",
"32 928 CURVE",
"59 865 LINE",
"62 860 OFFCURVE",
"66 860 OFFCURVE",
"71 862 CURVE",
"92 872 OFFCURVE",
"113 880 OFFCURVE",
"138 880 CURVE SMOOTH",
"163 880 OFFCURVE",
"174 873 OFFCURVE",
"174 858 CURVE SMOOTH",
"174 838 OFFCURVE",
"158 832 OFFCURVE",
"125 832 CURVE SMOOTH",
"95 832 OFFCURVE",
"89 822 OFFCURVE",
"89 801 CURVE SMOOTH",
"89 749 LINE SMOOTH",
"89 734 OFFCURVE",
"96 726 OFFCURVE",
"112 726 CURVE SMOOTH"
);
}
);
width = 288;
}
);
note = Ihookabove;
unicode = 1EC8;
},
{
glyphname = Imacron;
lastChange = "2015-07-18 14:18:09 +0000";
layers = (
{
layerId = "CB7AEA60-8A82-4B68-BB53-DB0CB6827011";
name = SemiBold;
paths = (
{
closed = 1;
nodes = (
"204 0 LINE SMOOTH",
"244 0 OFFCURVE",
"258 16 OFFCURVE",
"258 50 CURVE SMOOTH",
"258 629 LINE SMOOTH",
"258 663 OFFCURVE",
"244 680 OFFCURVE",
"204 680 CURVE SMOOTH",
"108 680 LINE SMOOTH",
"68 680 OFFCURVE",
"55 663 OFFCURVE",
"55 629 CURVE SMOOTH",
"55 50 LINE SMOOTH",
"55 16 OFFCURVE",
"68 0 OFFCURVE",
"108 0 CURVE SMOOTH"
);
},
{
closed = 1;
nodes = (
"290 747 LINE SMOOTH",
"329 747 OFFCURVE",
"339 763 OFFCURVE",
"339 796 CURVE SMOOTH",
"339 843 LINE SMOOTH",
"339 876 OFFCURVE",
"329 893 OFFCURVE",
"290 893 CURVE SMOOTH",
"21 893 LINE SMOOTH",
"-18 893 OFFCURVE",
"-27 876 OFFCURVE",
"-27 843 CURVE SMOOTH",
"-27 796 LINE SMOOTH",
"-27 763 OFFCURVE",
"-18 747 OFFCURVE",
"21 747 CURVE SMOOTH"
);
}
);
width = 313;
}
);
note = Imacron;
unicode = 012A;
},
{
glyphname = Iogonek;
lastChange = "2015-07-18 14:17:18 +0000";
layers = (
{
layerId = "CB7AEA60-8A82-4B68-BB53-DB0CB6827011";
name = SemiBold;
paths = (
{
closed = 1;
nodes = (
"192 0 LINE SMOOTH",
"232 0 OFFCURVE",
"245 16 OFFCURVE",
"245 50 CURVE SMOOTH",
"245 629 LINE SMOOTH",
"245 663 OFFCURVE",
"232 680 OFFCURVE",
"192 680 CURVE SMOOTH",
"95 680 LINE SMOOTH",
"56 680 OFFCURVE",
"43 663 OFFCURVE",
"43 629 CURVE SMOOTH",
"43 50 LINE SMOOTH",
"43 16 OFFCURVE",
"56 0 OFFCURVE",
"95 0 CURVE SMOOTH"
);
},
{
closed = 1;
nodes = (
"160 -218 OFFCURVE",
"192 -214 OFFCURVE",
"218 -202 CURVE SMOOTH",
"231 -196 OFFCURVE",
"231 -192 OFFCURVE",
"228 -185 CURVE SMOOTH",
"207 -140 LINE SMOOTH",
"203 -132 OFFCURVE",
"200 -132 OFFCURVE",
"193 -135 CURVE",
"187 -138 OFFCURVE",
"180 -139 OFFCURVE",
"171 -139 CURVE SMOOTH",
"155 -139 OFFCURVE",
"147 -129 OFFCURVE",
"147 -112 CURVE SMOOTH",
"147 -83 OFFCURVE",
"162 -65 OFFCURVE",
"208 -9 CURVE SMOOTH",
"215 -1 OFFCURVE",
"210 7 OFFCURVE",
"198 7 CURVE SMOOTH",
"101 7 LINE SMOOTH",
"88 7 OFFCURVE",
"84 3 OFFCURVE",
"76 -6 CURVE SMOOTH",
"32 -56 OFFCURVE",
"15 -93 OFFCURVE",
"15 -129 CURVE SMOOTH",
"15 -177 OFFCURVE",
"45 -218 OFFCURVE",
"116 -218 CURVE SMOOTH"
);
}
);
width = 288;
}
);
note = Iogonek;
unicode = 012E;
},
{
glyphname = Itilde;
lastChange = "2015-07-18 14:18:32 +0000";
layers = (
{
layerId = "CB7AEA60-8A82-4B68-BB53-DB0CB6827011";
name = SemiBold;
paths = (
{
closed = 1;
nodes = (
"204 0 LINE SMOOTH",
"244 0 OFFCURVE",
"257 16 OFFCURVE",
"257 50 CURVE SMOOTH",
"257 629 LINE SMOOTH",
"257 663 OFFCURVE",
"244 680 OFFCURVE",
"204 680 CURVE SMOOTH",
"107 680 LINE SMOOTH",
"68 680 OFFCURVE",
"55 663 OFFCURVE",
"55 629 CURVE SMOOTH",
"55 50 LINE SMOOTH",
"55 16 OFFCURVE",
"68 0 OFFCURVE",
"107 0 CURVE SMOOTH"
);
},
{
closed = 1;
nodes = (
"298 717 OFFCURVE",
"330 744 OFFCURVE",
"369 801 CURVE SMOOTH",
"391 832 OFFCURVE",
"387 848 OFFCURVE",
"350 876 CURVE SMOOTH",
"312 904 OFFCURVE",
"292 910 OFFCURVE",
"275 889 CURVE SMOOTH",
"254 864 OFFCURVE",
"243 855 OFFCURVE",
"219 855 CURVE SMOOTH",
"171 855 OFFCURVE",
"134 905 OFFCURVE",
"55 905 CURVE SMOOTH",
"-2 905 OFFCURVE",
"-34 875 OFFCURVE",
"-72 823 CURVE SMOOTH",
"-94 792 OFFCURVE",
"-89 777 OFFCURVE",
"-53 750 CURVE SMOOTH",
"-16 721 OFFCURVE",
"5 714 OFFCURVE",
"22 735 CURVE",
"42 758 OFFCURVE",
"54 767 OFFCURVE",
"79 767 CURVE SMOOTH",
"130 767 OFFCURVE",
"175 717 OFFCURVE",
"238 717 CURVE SMOOTH"
);
}
);
width = 312;
}
);
note = Itilde;
unicode = 0128;
},
{
glyphname = J;
lastChange = "2015-07-18 13:06:13 +0000";
layers = (
{
layerId = "CB7AEA60-8A82-4B68-BB53-DB0CB6827011";
name = SemiBold;
paths = (
{
closed = 1;
nodes = (
"394 -15 OFFCURVE",
"474 75 OFFCURVE",
"474 207 CURVE SMOOTH",
"474 629 LINE SMOOTH",
"474 663 OFFCURVE",
"461 680 OFFCURVE",
"421 680 CURVE SMOOTH",
"324 680 LINE SMOOTH",
"285 680 OFFCURVE",
"271 663 OFFCURVE",
"271 629 CURVE SMOOTH",
"271 208 LINE SMOOTH",
"271 157 OFFCURVE",
"248 128 OFFCURVE",
"192 128 CURVE SMOOTH",
"150 128 OFFCURVE",
"115 145 OFFCURVE",
"89 164 CURVE SMOOTH",
"75 174 OFFCURVE",
"63 176 OFFCURVE",
"53 158 CURVE SMOOTH",
"10 84 LINE SMOOTH",
"1 68 OFFCURVE",
"-1 55 OFFCURVE",
"14 45 CURVE SMOOTH",
"66 9 OFFCURVE",
"137 -15 OFFCURVE",
"231 -15 CURVE SMOOTH"
);
}
);
width = 512;
}
);
note = J;
unicode = 004A;
},
{
glyphname = Jcircumflex;
lastChange = "2015-07-18 13:06:17 +0000";
layers = (
{
layerId = "CB7AEA60-8A82-4B68-BB53-DB0CB6827011";
name = SemiBold;
paths = (
{
closed = 1;
nodes = (
"394 -15 OFFCURVE",
"474 75 OFFCURVE",
"474 207 CURVE SMOOTH",
"474 629 LINE SMOOTH",
"474 663 OFFCURVE",
"461 680 OFFCURVE",
"421 680 CURVE SMOOTH",
"324 680 LINE SMOOTH",
"285 680 OFFCURVE",
"271 663 OFFCURVE",
"271 629 CURVE SMOOTH",
"271 208 LINE SMOOTH",
"271 157 OFFCURVE",
"248 128 OFFCURVE",
"192 128 CURVE SMOOTH",
"150 128 OFFCURVE",
"115 145 OFFCURVE",
"89 164 CURVE SMOOTH",
"75 174 OFFCURVE",
"63 176 OFFCURVE",
"53 158 CURVE SMOOTH",
"10 84 LINE SMOOTH",
"1 68 OFFCURVE",
"-1 55 OFFCURVE",
"14 45 CURVE SMOOTH",
"66 9 OFFCURVE",
"137 -15 OFFCURVE",
"231 -15 CURVE SMOOTH"
);
},
{
closed = 1;
nodes = (
"270 742 LINE SMOOTH",
"303 742 OFFCURVE",
"313 749 OFFCURVE",
"325 768 CURVE SMOOTH",
"376 845 LINE",
"426 768 LINE SMOOTH",
"439 749 OFFCURVE",
"448 742 OFFCURVE",
"482 742 CURVE SMOOTH",
"557 742 LINE SMOOTH",
"588 742 OFFCURVE",
"598 761 OFFCURVE",
"576 789 CURVE SMOOTH",
"480 914 LINE SMOOTH",
"465 934 OFFCURVE",
"461 941 OFFCURVE",
"426 941 CURVE SMOOTH",
"325 941 LINE SMOOTH",
"290 941 OFFCURVE",
"287 934 OFFCURVE",
"271 914 CURVE SMOOTH",
"175 789 LINE SMOOTH",
"153 761 OFFCURVE",
"163 742 OFFCURVE",
"195 742 CURVE SMOOTH"
);
}
);
width = 581;
}
);
note = Jcircumflex;
unicode = 0134;
},
{
glyphname = K;
lastChange = "2015-07-18 13:06:17 +0000";
layers = (
{
layerId = "CB7AEA60-8A82-4B68-BB53-DB0CB6827011";
name = SemiBold;
paths = (
{
closed = 1;
nodes = (
"630 0 LINE SMOOTH",
"651 0 OFFCURVE",
"657 20 OFFCURVE",
"644 38 CURVE SMOOTH",
"422 343 LINE",
"636 642 LINE SMOOTH",
"649 660 OFFCURVE",
"643 680 OFFCURVE",
"622 680 CURVE SMOOTH",
"468 680 LINE SMOOTH",
"448 680 OFFCURVE",
"440 677 OFFCURVE",
"433 666 CURVE SMOOTH",
"240 382 LINE SMOOTH",
"231 369 OFFCURVE",
"224 361 OFFCURVE",
"224 342 CURVE SMOOTH",
"224 323 OFFCURVE",
"231 315 OFFCURVE",
"240 302 CURVE SMOOTH",
"441 13 LINE SMOOTH",
"449 2 OFFCURVE",
"457 0 OFFCURVE",
"475 0 CURVE SMOOTH"
);
},
{
closed = 1;
nodes = (
"192 0 LINE SMOOTH",
"232 0 OFFCURVE",
"245 16 OFFCURVE",
"245 50 CURVE SMOOTH",
"245 629 LINE SMOOTH",
"245 663 OFFCURVE",
"232 680 OFFCURVE",
"192 680 CURVE SMOOTH",
"95 680 LINE SMOOTH",
"56 680 OFFCURVE",
"43 663 OFFCURVE",
"43 629 CURVE SMOOTH",
"43 50 LINE SMOOTH",
"43 16 OFFCURVE",
"56 0 OFFCURVE",
"95 0 CURVE SMOOTH"
);
}
);
width = 659;
}
);
note = K;
unicode = 004B;
},
{
glyphname = Kcommaaccent;
lastChange = "2015-07-18 13:06:16 +0000";
layers = (
{
layerId = "CB7AEA60-8A82-4B68-BB53-DB0CB6827011";
name = SemiBold;
paths = (
{
closed = 1;
nodes = (
"630 0 LINE SMOOTH",
"651 0 OFFCURVE",
"657 20 OFFCURVE",
"644 38 CURVE SMOOTH",
"422 343 LINE",
"636 642 LINE SMOOTH",
"649 660 OFFCURVE",
"643 680 OFFCURVE",
"622 680 CURVE SMOOTH",
"468 680 LINE SMOOTH",
"448 680 OFFCURVE",
"440 677 OFFCURVE",
"433 666 CURVE SMOOTH",
"240 382 LINE SMOOTH",
"231 369 OFFCURVE",
"224 361 OFFCURVE",
"224 342 CURVE SMOOTH",
"224 323 OFFCURVE",
"231 315 OFFCURVE",
"240 302 CURVE SMOOTH",
"441 13 LINE SMOOTH",
"449 2 OFFCURVE",
"457 0 OFFCURVE",
"475 0 CURVE SMOOTH"
);
},
{
closed = 1;
nodes = (
"308 -264 LINE SMOOTH",
"331 -264 OFFCURVE",
"341 -256 OFFCURVE",
"347 -241 CURVE SMOOTH",
"413 -86 LINE SMOOTH",
"428 -50 OFFCURVE",
"422 -36 OFFCURVE",
"383 -36 CURVE SMOOTH",
"303 -36 LINE SMOOTH",
"272 -36 OFFCURVE",
"262 -43 OFFCURVE",
"253 -73 CURVE SMOOTH",
"208 -231 LINE SMOOTH",
"203 -250 OFFCURVE",
"207 -264 OFFCURVE",
"232 -264 CURVE SMOOTH"
);
},
{
closed = 1;
nodes = (
"192 0 LINE SMOOTH",
"232 0 OFFCURVE",
"245 16 OFFCURVE",
"245 50 CURVE SMOOTH",
"245 629 LINE SMOOTH",
"245 663 OFFCURVE",
"232 680 OFFCURVE",
"192 680 CURVE SMOOTH",
"95 680 LINE SMOOTH",
"56 680 OFFCURVE",
"43 663 OFFCURVE",
"43 629 CURVE SMOOTH",
"43 50 LINE SMOOTH",
"43 16 OFFCURVE",
"56 0 OFFCURVE",
"95 0 CURVE SMOOTH"
);
}
);
width = 659;
}
);
note = Kcommaaccent;
unicode = 0136;
},
{
glyphname = L;
lastChange = "2015-07-18 13:06:13 +0000";
layers = (
{
layerId = "CB7AEA60-8A82-4B68-BB53-DB0CB6827011";
name = SemiBold;
paths = (
{
closed = 1;
nodes = (
"503 0 LINE SMOOTH",
"542 0 OFFCURVE",
"551 16 OFFCURVE",
"551 49 CURVE SMOOTH",
"551 95 LINE SMOOTH",
"551 129 OFFCURVE",
"542 145 OFFCURVE",
"503 145 CURVE SMOOTH",
"245 145 LINE",
"245 629 LINE SMOOTH",
"245 663 OFFCURVE",
"232 680 OFFCURVE",
"192 680 CURVE SMOOTH",
"95 680 LINE SMOOTH",
"56 680 OFFCURVE",
"43 663 OFFCURVE",
"43 629 CURVE SMOOTH",
"43 50 LINE SMOOTH",
"43 16 OFFCURVE",
"56 0 OFFCURVE",
"95 0 CURVE SMOOTH"
);
}
);
width = 554;
}
);
note = L;
unicode = 004C;
},
{
glyphname = Lacute;
lastChange = "2015-07-18 13:06:16 +0000";
layers = (
{
layerId = "CB7AEA60-8A82-4B68-BB53-DB0CB6827011";
name = SemiBold;
paths = (
{
closed = 1;
nodes = (
"503 0 LINE SMOOTH",
"542 0 OFFCURVE",
"551 16 OFFCURVE",
"551 49 CURVE SMOOTH",
"551 95 LINE SMOOTH",
"551 129 OFFCURVE",
"542 145 OFFCURVE",
"503 145 CURVE SMOOTH",
"245 145 LINE",
"245 629 LINE SMOOTH",
"245 663 OFFCURVE",
"232 680 OFFCURVE",
"192 680 CURVE SMOOTH",
"95 680 LINE SMOOTH",
"56 680 OFFCURVE",
"43 663 OFFCURVE",
"43 629 CURVE SMOOTH",
"43 50 LINE SMOOTH",
"43 16 OFFCURVE",
"56 0 OFFCURVE",
"95 0 CURVE SMOOTH"
);
},
{
closed = 1;
nodes = (
"204 717 LINE SMOOTH",
"244 717 OFFCURVE",
"252 724 OFFCURVE",
"267 750 CURVE SMOOTH",
"332 865 LINE SMOOTH",
"349 896 OFFCURVE",
"332 912 OFFCURVE",
"300 912 CURVE SMOOTH",
"180 912 LINE SMOOTH",
"143 912 OFFCURVE",
"137 902 OFFCURVE",
"128 878 CURVE SMOOTH",
"84 757 LINE SMOOTH",
"76 734 OFFCURVE",
"84 717 OFFCURVE",
"115 717 CURVE SMOOTH"
);
}
);
width = 554;
}
);
note = Lacute;
unicode = 0139;
},
{
glyphname = Lcaron;
lastChange = "2015-07-18 13:06:17 +0000";
layers = (
{
layerId = "CB7AEA60-8A82-4B68-BB53-DB0CB6827011";
name = SemiBold;
paths = (
{
closed = 1;
nodes = (
"503 0 LINE SMOOTH",
"542 0 OFFCURVE",
"551 16 OFFCURVE",
"551 49 CURVE SMOOTH",
"551 95 LINE SMOOTH",
"551 129 OFFCURVE",
"542 145 OFFCURVE",
"503 145 CURVE SMOOTH",
"245 145 LINE",
"245 629 LINE SMOOTH",
"245 663 OFFCURVE",
"232 680 OFFCURVE",
"192 680 CURVE SMOOTH",
"95 680 LINE SMOOTH",
"56 680 OFFCURVE",
"43 663 OFFCURVE",
"43 629 CURVE SMOOTH",
"43 50 LINE SMOOTH",
"43 16 OFFCURVE",
"56 0 OFFCURVE",
"95 0 CURVE SMOOTH"
);
},
{
closed = 1;
nodes = (
"451 499 LINE SMOOTH",
"474 499 OFFCURVE",
"484 507 OFFCURVE",
"490 522 CURVE SMOOTH",
"556 677 LINE SMOOTH",
"571 713 OFFCURVE",
"565 727 OFFCURVE",
"526 727 CURVE SMOOTH",
"446 727 LINE SMOOTH",
"415 727 OFFCURVE",
"405 720 OFFCURVE",
"396 690 CURVE SMOOTH",
"351 532 LINE SMOOTH",
"346 513 OFFCURVE",
"350 499 OFFCURVE",
"375 499 CURVE SMOOTH"
);
}
);
width = 586;
}
);
note = Lcaron;
unicode = 013D;
},
{
glyphname = Lcommaaccent;
lastChange = "2015-07-18 13:06:16 +0000";
layers = (
{
layerId = "CB7AEA60-8A82-4B68-BB53-DB0CB6827011";
name = SemiBold;
paths = (
{
closed = 1;
nodes = (
"503 0 LINE SMOOTH",
"542 0 OFFCURVE",
"551 16 OFFCURVE",
"551 49 CURVE SMOOTH",
"551 95 LINE SMOOTH",
"551 129 OFFCURVE",
"542 145 OFFCURVE",
"503 145 CURVE SMOOTH",
"245 145 LINE",
"245 629 LINE SMOOTH",
"245 663 OFFCURVE",
"232 680 OFFCURVE",
"192 680 CURVE SMOOTH",
"95 680 LINE SMOOTH",
"56 680 OFFCURVE",
"43 663 OFFCURVE",
"43 629 CURVE SMOOTH",
"43 50 LINE SMOOTH",
"43 16 OFFCURVE",
"56 0 OFFCURVE",
"95 0 CURVE SMOOTH"
);
},
{
closed = 1;
nodes = (
"282 -264 LINE SMOOTH",
"305 -264 OFFCURVE",
"315 -256 OFFCURVE",
"321 -241 CURVE SMOOTH",
"387 -86 LINE SMOOTH",
"402 -50 OFFCURVE",
"396 -36 OFFCURVE",
"357 -36 CURVE SMOOTH",
"277 -36 LINE SMOOTH",
"246 -36 OFFCURVE",
"236 -43 OFFCURVE",
"227 -73 CURVE SMOOTH",
"182 -231 LINE SMOOTH",
"177 -250 OFFCURVE",
"181 -264 OFFCURVE",
"206 -264 CURVE SMOOTH"
);
}
);
width = 554;
}
);
note = Lcommaaccent;
unicode = 013B;
},
{
glyphname = Ldot;
lastChange = "2015-07-18 13:06:17 +0000";
layers = (
{
layerId = "CB7AEA60-8A82-4B68-BB53-DB0CB6827011";
name = SemiBold;
paths = (
{
closed = 1;
nodes = (
"503 0 LINE SMOOTH",
"542 0 OFFCURVE",
"551 16 OFFCURVE",
"551 49 CURVE SMOOTH",
"551 95 LINE SMOOTH",
"551 129 OFFCURVE",
"542 145 OFFCURVE",
"503 145 CURVE SMOOTH",
"245 145 LINE",
"245 629 LINE SMOOTH",
"245 663 OFFCURVE",
"232 680 OFFCURVE",
"192 680 CURVE SMOOTH",
"95 680 LINE SMOOTH",
"56 680 OFFCURVE",
"43 663 OFFCURVE",
"43 629 CURVE SMOOTH",
"43 50 LINE SMOOTH",
"43 16 OFFCURVE",
"56 0 OFFCURVE",
"95 0 CURVE SMOOTH"
);
},
{
closed = 1;
nodes = (
"417 279 LINE SMOOTH",
"454 279 OFFCURVE",
"478 308 OFFCURVE",
"478 343 CURVE SMOOTH",
"478 368 LINE SMOOTH",
"478 404 OFFCURVE",
"453 432 OFFCURVE",
"417 432 CURVE SMOOTH",
"391 432 LINE SMOOTH",
"355 432 OFFCURVE",
"330 404 OFFCURVE",
"330 368 CURVE SMOOTH",
"330 343 LINE SMOOTH",
"330 308 OFFCURVE",
"355 279 OFFCURVE",
"391 279 CURVE SMOOTH"
);
}
);
width = 554;
}
);
note = Ldot;
unicode = 013F;
},
{
glyphname = Ldotbelow;
lastChange = "2015-07-18 13:06:16 +0000";
layers = (
{
layerId = "CB7AEA60-8A82-4B68-BB53-DB0CB6827011";
name = SemiBold;
paths = (
{
closed = 1;
nodes = (
"503 0 LINE SMOOTH",
"542 0 OFFCURVE",
"551 16 OFFCURVE",
"551 49 CURVE SMOOTH",
"551 95 LINE SMOOTH",
"551 129 OFFCURVE",
"542 145 OFFCURVE",
"503 145 CURVE SMOOTH",
"245 145 LINE",
"245 629 LINE SMOOTH",
"245 663 OFFCURVE",
"232 680 OFFCURVE",
"192 680 CURVE SMOOTH",
"95 680 LINE SMOOTH",
"56 680 OFFCURVE",
"43 663 OFFCURVE",
"43 629 CURVE SMOOTH",
"43 50 LINE SMOOTH",
"43 16 OFFCURVE",
"56 0 OFFCURVE",
"95 0 CURVE SMOOTH"
);
},
{
closed = 1;
nodes = (
"324 -206 LINE SMOOTH",
"361 -206 OFFCURVE",
"385 -177 OFFCURVE",
"385 -142 CURVE SMOOTH",
"385 -117 LINE SMOOTH",
"385 -81 OFFCURVE",
"360 -53 OFFCURVE",
"324 -53 CURVE SMOOTH",
"297 -53 LINE SMOOTH",
"262 -53 OFFCURVE",
"236 -81 OFFCURVE",
"236 -117 CURVE SMOOTH",
"236 -142 LINE SMOOTH",
"236 -177 OFFCURVE",
"262 -206 OFFCURVE",
"297 -206 CURVE SMOOTH"
);
}
);
width = 554;
}
);
note = Ldotbelow;
unicode = 1E36;
},
{
glyphname = Ldotbelowmacron;
lastChange = "2015-07-18 14:18:53 +0000";
layers = (
{
layerId = "CB7AEA60-8A82-4B68-BB53-DB0CB6827011";
name = SemiBold;
paths = (
{
closed = 1;
nodes = (
"503 0 LINE SMOOTH",
"542 0 OFFCURVE",
"551 16 OFFCURVE",
"551 49 CURVE SMOOTH",
"551 95 LINE SMOOTH",
"551 129 OFFCURVE",
"542 145 OFFCURVE",
"503 145 CURVE SMOOTH",
"245 145 LINE",
"245 629 LINE SMOOTH",
"245 663 OFFCURVE",
"232 680 OFFCURVE",
"192 680 CURVE SMOOTH",
"95 680 LINE SMOOTH",
"56 680 OFFCURVE",
"43 663 OFFCURVE",
"43 629 CURVE SMOOTH",
"43 50 LINE SMOOTH",
"43 16 OFFCURVE",
"56 0 OFFCURVE",
"95 0 CURVE SMOOTH"
);
},
{
closed = 1;
nodes = (
"325 -206 LINE SMOOTH",
"362 -206 OFFCURVE",
"386 -177 OFFCURVE",
"386 -142 CURVE SMOOTH",
"386 -117 LINE SMOOTH",
"386 -81 OFFCURVE",
"361 -53 OFFCURVE",
"325 -53 CURVE SMOOTH",
"298 -53 LINE SMOOTH",
"263 -53 OFFCURVE",
"237 -81 OFFCURVE",
"237 -117 CURVE SMOOTH",
"237 -142 LINE SMOOTH",
"237 -177 OFFCURVE",
"263 -206 OFFCURVE",
"298 -206 CURVE SMOOTH"
);
},
{
closed = 1;
nodes = (
"280 741 LINE SMOOTH",
"319 741 OFFCURVE",
"328 757 OFFCURVE",
"328 791 CURVE SMOOTH",
"328 837 LINE SMOOTH",
"328 871 OFFCURVE",
"319 887 OFFCURVE",
"280 887 CURVE SMOOTH",
"11 887 LINE SMOOTH",
"-28 887 OFFCURVE",
"-38 871 OFFCURVE",
"-38 837 CURVE SMOOTH",
"-38 791 LINE SMOOTH",
"-38 757 OFFCURVE",
"-28 741 OFFCURVE",
"11 741 CURVE SMOOTH"
);
}
);
width = 555;
}
);
note = Ldotbelowmacron;
unicode = 1E38;
},
{
glyphname = Llinebelow;
lastChange = "2015-07-18 13:06:16 +0000";
layers = (
{
layerId = "CB7AEA60-8A82-4B68-BB53-DB0CB6827011";
name = SemiBold;
paths = (
{
closed = 1;
nodes = (
"503 0 LINE SMOOTH",
"542 0 OFFCURVE",
"551 16 OFFCURVE",
"551 49 CURVE SMOOTH",
"551 95 LINE SMOOTH",
"551 129 OFFCURVE",
"542 145 OFFCURVE",
"503 145 CURVE SMOOTH",
"245 145 LINE",
"245 629 LINE SMOOTH",
"245 663 OFFCURVE",
"232 680 OFFCURVE",
"192 680 CURVE SMOOTH",
"95 680 LINE SMOOTH",
"56 680 OFFCURVE",
"43 663 OFFCURVE",
"43 629 CURVE SMOOTH",
"43 50 LINE SMOOTH",
"43 16 OFFCURVE",
"56 0 OFFCURVE",
"95 0 CURVE SMOOTH"
);
},
{
closed = 1;
nodes = (
"397 -187 LINE SMOOTH",
"436 -187 OFFCURVE",
"446 -171 OFFCURVE",
"446 -138 CURVE SMOOTH",
"446 -107 LINE SMOOTH",
"446 -74 OFFCURVE",
"436 -57 OFFCURVE",
"397 -57 CURVE SMOOTH",
"154 -57 LINE SMOOTH",
"115 -57 OFFCURVE",
"106 -74 OFFCURVE",
"106 -107 CURVE SMOOTH",
"106 -138 LINE SMOOTH",
"106 -171 OFFCURVE",
"115 -187 OFFCURVE",
"154 -187 CURVE SMOOTH"
);
}
);
width = 554;
}
);
note = Llinebelow;
unicode = 1E3A;
},
{
glyphname = Lslash;
lastChange = "2015-07-18 14:19:02 +0000";
layers = (
{
layerId = "CB7AEA60-8A82-4B68-BB53-DB0CB6827011";
name = SemiBold;
paths = (
{
closed = 1;
nodes = (
"590 0 LINE SMOOTH",
"629 0 OFFCURVE",
"639 16 OFFCURVE",
"639 49 CURVE SMOOTH",
"639 95 LINE SMOOTH",
"639 129 OFFCURVE",
"629 145 OFFCURVE",
"590 145 CURVE SMOOTH",
"333 145 LINE",
"333 629 LINE SMOOTH",
"333 663 OFFCURVE",
"319 680 OFFCURVE",
"279 680 CURVE SMOOTH",
"183 680 LINE SMOOTH",
"143 680 OFFCURVE",
"130 663 OFFCURVE",
"130 629 CURVE SMOOTH",
"130 50 LINE SMOOTH",
"130 16 OFFCURVE",
"143 0 OFFCURVE",
"183 0 CURVE SMOOTH"
);
},
{
closed = 1;
nodes = (
"480 405 LINE SMOOTH",
"493 412 OFFCURVE",
"498 420 OFFCURVE",
"490 433 CURVE SMOOTH",
"442 512 LINE SMOOTH",
"433 526 OFFCURVE",
"425 528 OFFCURVE",
"412 520 CURVE",
"47 313 LINE SMOOTH",
"34 306 OFFCURVE",
"30 297 OFFCURVE",
"39 283 CURVE SMOOTH",
"86 204 LINE SMOOTH",
"94 190 OFFCURVE",
"103 190 OFFCURVE",
"116 198 CURVE SMOOTH"
);
}
);
width = 642;
}
);
note = Lslash;
unicode = 0141;
},
{
glyphname = M;
lastChange = "2015-07-18 13:06:13 +0000";
layers = (
{
layerId = "CB7AEA60-8A82-4B68-BB53-DB0CB6827011";
name = SemiBold;
paths = (
{
closed = 1;
nodes = (
"174 0 LINE SMOOTH",
"214 0 OFFCURVE",
"227 16 OFFCURVE",
"227 50 CURVE SMOOTH",
"227 375 LINE",
"323 158 LINE SMOOTH",
"336 129 OFFCURVE",
"346 112 OFFCURVE",
"385 112 CURVE SMOOTH",
"425 112 OFFCURVE",
"435 129 OFFCURVE",
"447 158 CURVE SMOOTH",
"544 375 LINE",
"544 50 LINE SMOOTH",
"544 16 OFFCURVE",
"557 0 OFFCURVE",
"597 0 CURVE SMOOTH",
"676 0 LINE SMOOTH",
"715 0 OFFCURVE",
"728 16 OFFCURVE",
"728 50 CURVE SMOOTH",
"728 630 LINE SMOOTH",
"728 664 OFFCURVE",
"715 680 OFFCURVE",
"675 680 CURVE SMOOTH",
"580 680 LINE SMOOTH",
"556 680 OFFCURVE",
"540 676 OFFCURVE",
"531 655 CURVE SMOOTH",
"385 305 LINE",
"240 655 LINE SMOOTH",
"231 676 OFFCURVE",
"215 680 OFFCURVE",
"191 680 CURVE SMOOTH",
"96 680 LINE SMOOTH",
"56 680 OFFCURVE",
"43 664 OFFCURVE",
"43 630 CURVE SMOOTH",
"43 50 LINE SMOOTH",
"43 16 OFFCURVE",
"56 0 OFFCURVE",
"95 0 CURVE SMOOTH"
);
}
);
width = 771;
}
);
note = M;
unicode = 004D;
},
{
glyphname = Mdotbelow;
lastChange = "2015-07-18 13:06:18 +0000";
layers = (
{
layerId = "CB7AEA60-8A82-4B68-BB53-DB0CB6827011";
name = SemiBold;
paths = (
{
closed = 1;
nodes = (
"174 0 LINE SMOOTH",
"214 0 OFFCURVE",
"227 16 OFFCURVE",
"227 50 CURVE SMOOTH",
"227 375 LINE",
"323 158 LINE SMOOTH",
"336 129 OFFCURVE",
"346 112 OFFCURVE",
"385 112 CURVE SMOOTH",
"425 112 OFFCURVE",
"435 129 OFFCURVE",
"447 158 CURVE SMOOTH",
"544 375 LINE",
"544 50 LINE SMOOTH",
"544 16 OFFCURVE",
"557 0 OFFCURVE",
"597 0 CURVE SMOOTH",
"676 0 LINE SMOOTH",
"715 0 OFFCURVE",
"728 16 OFFCURVE",
"728 50 CURVE SMOOTH",
"728 630 LINE SMOOTH",
"728 664 OFFCURVE",
"715 680 OFFCURVE",
"675 680 CURVE SMOOTH",
"580 680 LINE SMOOTH",
"556 680 OFFCURVE",
"540 676 OFFCURVE",
"531 655 CURVE SMOOTH",
"385 305 LINE",
"240 655 LINE SMOOTH",
"231 676 OFFCURVE",
"215 680 OFFCURVE",
"191 680 CURVE SMOOTH",
"96 680 LINE SMOOTH",
"56 680 OFFCURVE",
"43 664 OFFCURVE",
"43 630 CURVE SMOOTH",
"43 50 LINE SMOOTH",
"43 16 OFFCURVE",
"56 0 OFFCURVE",
"95 0 CURVE SMOOTH"
);
},
{
closed = 1;
nodes = (
"405 -206 LINE SMOOTH",
"442 -206 OFFCURVE",
"466 -177 OFFCURVE",
"466 -142 CURVE SMOOTH",
"466 -117 LINE SMOOTH",
"466 -81 OFFCURVE",
"441 -53 OFFCURVE",
"405 -53 CURVE SMOOTH",
"378 -53 LINE SMOOTH",
"343 -53 OFFCURVE",
"317 -81 OFFCURVE",
"317 -117 CURVE SMOOTH",
"317 -142 LINE SMOOTH",
"317 -177 OFFCURVE",
"343 -206 OFFCURVE",
"378 -206 CURVE SMOOTH"
);
}
);
width = 771;
}
);
note = Mdotbelow;
unicode = 1E42;
},
{
glyphname = N;
lastChange = "2015-07-18 13:06:13 +0000";
layers = (
{
layerId = "CB7AEA60-8A82-4B68-BB53-DB0CB6827011";
name = SemiBold;
paths = (
{
closed = 1;
nodes = (
"192 0 LINE SMOOTH",
"232 0 OFFCURVE",
"245 16 OFFCURVE",
"245 49 CURVE SMOOTH",
"245 356 LINE",
"476 24 LINE SMOOTH",
"490 4 OFFCURVE",
"501 0 OFFCURVE",
"525 0 CURVE SMOOTH",
"604 0 LINE SMOOTH",
"644 0 OFFCURVE",
"657 16 OFFCURVE",
"657 49 CURVE SMOOTH",
"657 629 LINE SMOOTH",
"657 663 OFFCURVE",
"644 680 OFFCURVE",
"604 680 CURVE SMOOTH",
"507 680 LINE SMOOTH",
"468 680 OFFCURVE",
"455 663 OFFCURVE",
"455 629 CURVE SMOOTH",
"455 323 LINE",
"224 655 LINE SMOOTH",
"210 675 OFFCURVE",
"199 680 OFFCURVE",
"175 680 CURVE SMOOTH",
"96 680 LINE SMOOTH",
"56 680 OFFCURVE",
"43 664 OFFCURVE",
"43 630 CURVE SMOOTH",
"43 50 LINE SMOOTH",
"43 16 OFFCURVE",
"56 0 OFFCURVE",
"95 0 CURVE SMOOTH"
);
}
);
width = 700;
}
);
note = N;
unicode = 004E;
},
{
glyphname = Nacute;
lastChange = "2015-07-18 13:06:17 +0000";
layers = (
{
layerId = "CB7AEA60-8A82-4B68-BB53-DB0CB6827011";
name = SemiBold;
paths = (
{
closed = 1;
nodes = (
"192 0 LINE SMOOTH",
"232 0 OFFCURVE",
"245 16 OFFCURVE",
"245 49 CURVE SMOOTH",
"245 356 LINE",
"476 24 LINE SMOOTH",
"490 4 OFFCURVE",
"501 0 OFFCURVE",
"525 0 CURVE SMOOTH",
"604 0 LINE SMOOTH",
"644 0 OFFCURVE",
"657 16 OFFCURVE",
"657 49 CURVE SMOOTH",
"657 629 LINE SMOOTH",
"657 663 OFFCURVE",
"644 680 OFFCURVE",
"604 680 CURVE SMOOTH",
"507 680 LINE SMOOTH",
"468 680 OFFCURVE",
"455 663 OFFCURVE",
"455 629 CURVE SMOOTH",
"455 323 LINE",
"224 655 LINE SMOOTH",
"210 675 OFFCURVE",
"199 680 OFFCURVE",
"175 680 CURVE SMOOTH",
"96 680 LINE SMOOTH",
"56 680 OFFCURVE",
"43 664 OFFCURVE",
"43 630 CURVE SMOOTH",
"43 50 LINE SMOOTH",
"43 16 OFFCURVE",
"56 0 OFFCURVE",
"95 0 CURVE SMOOTH"
);
},
{
closed = 1;
nodes = (
"375 729 LINE SMOOTH",
"415 729 OFFCURVE",
"423 736 OFFCURVE",
"438 762 CURVE SMOOTH",
"503 877 LINE SMOOTH",
"520 908 OFFCURVE",
"503 924 OFFCURVE",
"471 924 CURVE SMOOTH",
"351 924 LINE SMOOTH",
"314 924 OFFCURVE",
"308 914 OFFCURVE",
"299 890 CURVE SMOOTH",
"255 769 LINE SMOOTH",
"247 746 OFFCURVE",
"255 729 OFFCURVE",
"286 729 CURVE SMOOTH"
);
}
);
width = 700;
}
);
note = Nacute;
unicode = 0143;
},
{
glyphname = Ncaron;
lastChange = "2015-07-18 13:06:17 +0000";
layers = (
{
layerId = "CB7AEA60-8A82-4B68-BB53-DB0CB6827011";
name = SemiBold;
paths = (
{
closed = 1;
nodes = (
"192 0 LINE SMOOTH",
"232 0 OFFCURVE",
"245 16 OFFCURVE",
"245 49 CURVE SMOOTH",
"245 356 LINE",
"476 24 LINE SMOOTH",
"490 4 OFFCURVE",
"501 0 OFFCURVE",
"525 0 CURVE SMOOTH",
"604 0 LINE SMOOTH",
"644 0 OFFCURVE",
"657 16 OFFCURVE",
"657 49 CURVE SMOOTH",
"657 629 LINE SMOOTH",
"657 663 OFFCURVE",
"644 680 OFFCURVE",
"604 680 CURVE SMOOTH",
"507 680 LINE SMOOTH",
"468 680 OFFCURVE",
"455 663 OFFCURVE",
"455 629 CURVE SMOOTH",
"455 323 LINE",
"224 655 LINE SMOOTH",
"210 675 OFFCURVE",
"199 680 OFFCURVE",
"175 680 CURVE SMOOTH",
"96 680 LINE SMOOTH",
"56 680 OFFCURVE",
"43 664 OFFCURVE",
"43 630 CURVE SMOOTH",
"43 50 LINE SMOOTH",
"43 16 OFFCURVE",
"56 0 OFFCURVE",
"95 0 CURVE SMOOTH"
);
},
{
closed = 1;
nodes = (
"400 738 LINE SMOOTH",
"435 738 OFFCURVE",
"439 744 OFFCURVE",
"454 764 CURVE SMOOTH",
"550 889 LINE SMOOTH",
"572 917 OFFCURVE",
"564 936 OFFCURVE",
"532 936 CURVE SMOOTH",
"455 936 LINE SMOOTH",
"422 936 OFFCURVE",
"413 930 OFFCURVE",
"400 911 CURVE SMOOTH",
"350 834 LINE",
"299 911 LINE SMOOTH",
"286 930 OFFCURVE",
"277 936 OFFCURVE",
"244 936 CURVE SMOOTH",
"167 936 LINE SMOOTH",
"135 936 OFFCURVE",
"127 917 OFFCURVE",
"149 889 CURVE SMOOTH",
"245 764 LINE SMOOTH",
"261 744 OFFCURVE",
"264 738 OFFCURVE",
"299 738 CURVE SMOOTH"
);
}
);
width = 700;
}
);
note = Ncaron;
unicode = 0147;
},
{
glyphname = Ncommaaccent;
lastChange = "2015-07-18 13:06:17 +0000";
layers = (
{
layerId = "CB7AEA60-8A82-4B68-BB53-DB0CB6827011";
name = SemiBold;
paths = (
{
closed = 1;
nodes = (
"192 0 LINE SMOOTH",
"232 0 OFFCURVE",
"245 16 OFFCURVE",
"245 49 CURVE SMOOTH",
"245 356 LINE",
"476 24 LINE SMOOTH",
"490 4 OFFCURVE",
"501 0 OFFCURVE",
"525 0 CURVE SMOOTH",
"604 0 LINE SMOOTH",
"644 0 OFFCURVE",
"657 16 OFFCURVE",
"657 49 CURVE SMOOTH",
"657 629 LINE SMOOTH",
"657 663 OFFCURVE",
"644 680 OFFCURVE",
"604 680 CURVE SMOOTH",
"507 680 LINE SMOOTH",
"468 680 OFFCURVE",
"455 663 OFFCURVE",
"455 629 CURVE SMOOTH",
"455 323 LINE",
"224 655 LINE SMOOTH",
"210 675 OFFCURVE",
"199 680 OFFCURVE",
"175 680 CURVE SMOOTH",
"96 680 LINE SMOOTH",
"56 680 OFFCURVE",
"43 664 OFFCURVE",
"43 630 CURVE SMOOTH",
"43 50 LINE SMOOTH",
"43 16 OFFCURVE",
"56 0 OFFCURVE",
"95 0 CURVE SMOOTH"
);
},
{
closed = 1;
nodes = (
"340 -264 LINE SMOOTH",
"363 -264 OFFCURVE",
"373 -256 OFFCURVE",
"379 -241 CURVE SMOOTH",
"445 -86 LINE SMOOTH",
"460 -50 OFFCURVE",
"454 -36 OFFCURVE",
"415 -36 CURVE SMOOTH",
"335 -36 LINE SMOOTH",
"304 -36 OFFCURVE",
"294 -43 OFFCURVE",
"285 -73 CURVE SMOOTH",
"240 -231 LINE SMOOTH",
"235 -250 OFFCURVE",
"239 -264 OFFCURVE",
"264 -264 CURVE SMOOTH"
);
}
);
width = 700;
}
);
note = Ncommaaccent;
unicode = 0145;
},
{
glyphname = Ndotaccent;
lastChange = "2015-07-18 13:06:17 +0000";
layers = (
{
layerId = "CB7AEA60-8A82-4B68-BB53-DB0CB6827011";
name = SemiBold;
paths = (
{
closed = 1;
nodes = (
"192 0 LINE SMOOTH",
"232 0 OFFCURVE",
"245 16 OFFCURVE",
"245 49 CURVE SMOOTH",
"245 356 LINE",
"476 24 LINE SMOOTH",
"490 4 OFFCURVE",
"501 0 OFFCURVE",
"525 0 CURVE SMOOTH",
"604 0 LINE SMOOTH",
"644 0 OFFCURVE",
"657 16 OFFCURVE",
"657 49 CURVE SMOOTH",
"657 629 LINE SMOOTH",
"657 663 OFFCURVE",
"644 680 OFFCURVE",
"604 680 CURVE SMOOTH",
"507 680 LINE SMOOTH",
"468 680 OFFCURVE",
"455 663 OFFCURVE",
"455 629 CURVE SMOOTH",
"455 323 LINE",
"224 655 LINE SMOOTH",
"210 675 OFFCURVE",
"199 680 OFFCURVE",
"175 680 CURVE SMOOTH",
"96 680 LINE SMOOTH",
"56 680 OFFCURVE",
"43 664 OFFCURVE",
"43 630 CURVE SMOOTH",
"43 50 LINE SMOOTH",
"43 16 OFFCURVE",
"56 0 OFFCURVE",
"95 0 CURVE SMOOTH"
);
},
{
closed = 1;
nodes = (
"364 739 LINE SMOOTH",
"401 739 OFFCURVE",
"425 768 OFFCURVE",
"425 803 CURVE SMOOTH",
"425 828 LINE SMOOTH",
"425 864 OFFCURVE",
"400 892 OFFCURVE",
"364 892 CURVE SMOOTH",
"337 892 LINE SMOOTH",
"301 892 OFFCURVE",
"276 864 OFFCURVE",
"276 828 CURVE SMOOTH",
"276 803 LINE SMOOTH",
"276 768 OFFCURVE",
"301 739 OFFCURVE",
"337 739 CURVE SMOOTH"
);
}
);
width = 700;
}
);
note = Ndotaccent;
unicode = 1E44;
},
{
glyphname = Ndotbelow;
lastChange = "2015-07-18 13:06:18 +0000";
layers = (
{
layerId = "CB7AEA60-8A82-4B68-BB53-DB0CB6827011";
name = SemiBold;
paths = (
{
closed = 1;
nodes = (
"192 0 LINE SMOOTH",
"232 0 OFFCURVE",
"245 16 OFFCURVE",
"245 49 CURVE SMOOTH",
"245 356 LINE",
"476 24 LINE SMOOTH",
"490 4 OFFCURVE",
"501 0 OFFCURVE",
"525 0 CURVE SMOOTH",
"604 0 LINE SMOOTH",
"644 0 OFFCURVE",
"657 16 OFFCURVE",
"657 49 CURVE SMOOTH",
"657 629 LINE SMOOTH",
"657 663 OFFCURVE",
"644 680 OFFCURVE",
"604 680 CURVE SMOOTH",
"507 680 LINE SMOOTH",
"468 680 OFFCURVE",
"455 663 OFFCURVE",
"455 629 CURVE SMOOTH",
"455 323 LINE",
"224 655 LINE SMOOTH",
"210 675 OFFCURVE",
"199 680 OFFCURVE",
"175 680 CURVE SMOOTH",
"96 680 LINE SMOOTH",
"56 680 OFFCURVE",
"43 664 OFFCURVE",
"43 630 CURVE SMOOTH",
"43 50 LINE SMOOTH",
"43 16 OFFCURVE",
"56 0 OFFCURVE",
"95 0 CURVE SMOOTH"
);
},
{
closed = 1;
nodes = (
"378 -206 LINE SMOOTH",
"415 -206 OFFCURVE",
"439 -177 OFFCURVE",
"439 -142 CURVE SMOOTH",
"439 -117 LINE SMOOTH",
"439 -81 OFFCURVE",
"414 -53 OFFCURVE",
"378 -53 CURVE SMOOTH",
"351 -53 LINE SMOOTH",
"316 -53 OFFCURVE",
"290 -81 OFFCURVE",
"290 -117 CURVE SMOOTH",
"290 -142 LINE SMOOTH",
"290 -177 OFFCURVE",
"316 -206 OFFCURVE",
"351 -206 CURVE SMOOTH"
);
}
);
width = 700;
}
);
note = Ndotbelow;
unicode = 1E46;
},
{
glyphname = Eng;
lastChange = "2015-07-18 13:06:13 +0000";
layers = (
{
layerId = "CB7AEA60-8A82-4B68-BB53-DB0CB6827011";
name = SemiBold;
paths = (
{
closed = 1;
nodes = (
"578 -239 OFFCURVE",
"657 -148 OFFCURVE",
"657 -16 CURVE SMOOTH",
"657 629 LINE SMOOTH",
"657 663 OFFCURVE",
"644 680 OFFCURVE",
"604 680 CURVE SMOOTH",
"507 680 LINE SMOOTH",
"468 680 OFFCURVE",
"455 663 OFFCURVE",
"455 629 CURVE SMOOTH",
"455 323 LINE",
"224 655 LINE SMOOTH",
"210 675 OFFCURVE",
"199 680 OFFCURVE",
"175 680 CURVE SMOOTH",
"96 680 LINE SMOOTH",
"56 680 OFFCURVE",
"43 664 OFFCURVE",
"43 630 CURVE SMOOTH",
"43 50 LINE SMOOTH",
"43 16 OFFCURVE",
"56 0 OFFCURVE",
"95 0 CURVE SMOOTH",
"192 0 LINE SMOOTH",
"232 0 OFFCURVE",
"245 16 OFFCURVE",
"245 49 CURVE SMOOTH",
"245 356 LINE",
"455 56 LINE",
"455 -15 LINE SMOOTH",
"455 -67 OFFCURVE",
"431 -95 OFFCURVE",
"376 -95 CURVE SMOOTH",
"334 -95 OFFCURVE",
"298 -82 OFFCURVE",
"272 -64 CURVE SMOOTH",
"257 -53 OFFCURVE",
"246 -53 OFFCURVE",
"236 -70 CURVE SMOOTH",
"193 -144 LINE SMOOTH",
"184 -160 OFFCURVE",
"182 -173 OFFCURVE",
"196 -183 CURVE SMOOTH",
"248 -219 OFFCURVE",
"320 -239 OFFCURVE",
"415 -239 CURVE SMOOTH"
);
}
);
width = 700;
}
);
note = Eng;
unicode = 014A;
},
{
glyphname = Nlinebelow;
lastChange = "2015-07-18 13:06:18 +0000";
layers = (
{
layerId = "CB7AEA60-8A82-4B68-BB53-DB0CB6827011";
name = SemiBold;
paths = (
{
closed = 1;
nodes = (
"192 0 LINE SMOOTH",
"232 0 OFFCURVE",
"245 16 OFFCURVE",
"245 49 CURVE SMOOTH",
"245 356 LINE",
"476 24 LINE SMOOTH",
"490 4 OFFCURVE",
"501 0 OFFCURVE",
"525 0 CURVE SMOOTH",
"604 0 LINE SMOOTH",
"644 0 OFFCURVE",
"657 16 OFFCURVE",
"657 49 CURVE SMOOTH",
"657 629 LINE SMOOTH",
"657 663 OFFCURVE",
"644 680 OFFCURVE",
"604 680 CURVE SMOOTH",
"507 680 LINE SMOOTH",
"468 680 OFFCURVE",
"455 663 OFFCURVE",
"455 629 CURVE SMOOTH",
"455 323 LINE",
"224 655 LINE SMOOTH",
"210 675 OFFCURVE",
"199 680 OFFCURVE",
"175 680 CURVE SMOOTH",
"96 680 LINE SMOOTH",
"56 680 OFFCURVE",
"43 664 OFFCURVE",
"43 630 CURVE SMOOTH",
"43 50 LINE SMOOTH",
"43 16 OFFCURVE",
"56 0 OFFCURVE",
"95 0 CURVE SMOOTH"
);
},
{
closed = 1;
nodes = (
"471 -187 LINE SMOOTH",
"510 -187 OFFCURVE",
"520 -171 OFFCURVE",
"520 -138 CURVE SMOOTH",
"520 -107 LINE SMOOTH",
"520 -74 OFFCURVE",
"510 -57 OFFCURVE",
"471 -57 CURVE SMOOTH",
"228 -57 LINE SMOOTH",
"189 -57 OFFCURVE",
"180 -74 OFFCURVE",
"180 -107 CURVE SMOOTH",
"180 -138 LINE SMOOTH",
"180 -171 OFFCURVE",
"189 -187 OFFCURVE",
"228 -187 CURVE SMOOTH"
);
}
);
width = 700;
}
);
note = Nlinebelow;
unicode = 1E48;
},
{
glyphname = Ntilde;
lastChange = "2015-07-18 13:06:16 +0000";
layers = (
{
layerId = "CB7AEA60-8A82-4B68-BB53-DB0CB6827011";
name = SemiBold;
paths = (
{
closed = 1;
nodes = (
"192 0 LINE SMOOTH",
"232 0 OFFCURVE",
"245 16 OFFCURVE",
"245 49 CURVE SMOOTH",
"245 356 LINE",
"476 24 LINE SMOOTH",
"490 4 OFFCURVE",
"501 0 OFFCURVE",
"525 0 CURVE SMOOTH",
"604 0 LINE SMOOTH",
"644 0 OFFCURVE",
"657 16 OFFCURVE",
"657 49 CURVE SMOOTH",
"657 629 LINE SMOOTH",
"657 663 OFFCURVE",
"644 680 OFFCURVE",
"604 680 CURVE SMOOTH",
"507 680 LINE SMOOTH",
"468 680 OFFCURVE",
"455 663 OFFCURVE",
"455 629 CURVE SMOOTH",
"455 323 LINE",
"224 655 LINE SMOOTH",
"210 675 OFFCURVE",
"199 680 OFFCURVE",
"175 680 CURVE SMOOTH",
"96 680 LINE SMOOTH",
"56 680 OFFCURVE",
"43 664 OFFCURVE",
"43 630 CURVE SMOOTH",
"43 50 LINE SMOOTH",
"43 16 OFFCURVE",
"56 0 OFFCURVE",
"95 0 CURVE SMOOTH"
);
},
{
closed = 1;
nodes = (
"501 741 OFFCURVE",
"533 768 OFFCURVE",
"572 825 CURVE SMOOTH",
"594 856 OFFCURVE",
"590 872 OFFCURVE",
"553 900 CURVE SMOOTH",
"515 928 OFFCURVE",
"495 934 OFFCURVE",
"478 913 CURVE SMOOTH",
"457 888 OFFCURVE",
"446 879 OFFCURVE",
"422 879 CURVE SMOOTH",
"374 879 OFFCURVE",
"337 929 OFFCURVE",
"258 929 CURVE SMOOTH",
"201 929 OFFCURVE",
"169 899 OFFCURVE",
"131 847 CURVE SMOOTH",
"109 816 OFFCURVE",
"114 801 OFFCURVE",
"150 774 CURVE SMOOTH",
"187 745 OFFCURVE",
"208 738 OFFCURVE",
"225 759 CURVE",
"245 782 OFFCURVE",
"257 791 OFFCURVE",
"282 791 CURVE SMOOTH",
"333 791 OFFCURVE",
"378 741 OFFCURVE",
"441 741 CURVE SMOOTH"
);
}
);
width = 700;
}
);
note = Ntilde;
unicode = 00D1;
},
{
glyphname = O;
lastChange = "2015-07-18 13:06:16 +0000";
layers = (
{
layerId = "CB7AEA60-8A82-4B68-BB53-DB0CB6827011";
name = SemiBold;
paths = (
{
closed = 1;
nodes = (
"612 -15 OFFCURVE",
"733 116 OFFCURVE",
"733 340 CURVE SMOOTH",
"733 564 OFFCURVE",
"612 695 OFFCURVE",
"378 695 CURVE SMOOTH",
"144 695 OFFCURVE",
"23 564 OFFCURVE",
"23 340 CURVE SMOOTH",
"23 116 OFFCURVE",
"144 -15 OFFCURVE",
"378 -15 CURVE SMOOTH"
);
},
{
closed = 1;
nodes = (
"272 128 OFFCURVE",
"224 201 OFFCURVE",
"224 340 CURVE SMOOTH",
"224 479 OFFCURVE",
"272 551 OFFCURVE",
"378 551 CURVE SMOOTH",
"484 551 OFFCURVE",
"532 479 OFFCURVE",
"532 340 CURVE SMOOTH",
"532 201 OFFCURVE",
"484 128 OFFCURVE",
"378 128 CURVE SMOOTH"
);
}
);
width = 756;
}
);
note = O;
unicode = 004F;
},
{
glyphname = Oacute;
lastChange = "2015-07-18 13:06:16 +0000";
layers = (
{
layerId = "CB7AEA60-8A82-4B68-BB53-DB0CB6827011";
name = SemiBold;
paths = (
{
closed = 1;
nodes = (
"612 -15 OFFCURVE",
"733 116 OFFCURVE",
"733 340 CURVE SMOOTH",
"733 564 OFFCURVE",
"612 695 OFFCURVE",
"378 695 CURVE SMOOTH",
"144 695 OFFCURVE",
"23 564 OFFCURVE",
"23 340 CURVE SMOOTH",
"23 116 OFFCURVE",
"144 -15 OFFCURVE",
"378 -15 CURVE SMOOTH"
);
},
{
closed = 1;
nodes = (
"272 128 OFFCURVE",
"224 201 OFFCURVE",
"224 340 CURVE SMOOTH",
"224 479 OFFCURVE",
"272 551 OFFCURVE",
"378 551 CURVE SMOOTH",
"484 551 OFFCURVE",
"532 479 OFFCURVE",
"532 340 CURVE SMOOTH",
"532 201 OFFCURVE",
"484 128 OFFCURVE",
"378 128 CURVE SMOOTH"
);
},
{
closed = 1;
nodes = (
"411 741 LINE SMOOTH",
"451 741 OFFCURVE",
"459 748 OFFCURVE",
"474 774 CURVE SMOOTH",
"539 889 LINE SMOOTH",
"556 920 OFFCURVE",
"539 936 OFFCURVE",
"507 936 CURVE SMOOTH",
"387 936 LINE SMOOTH",
"350 936 OFFCURVE",
"344 926 OFFCURVE",
"335 902 CURVE SMOOTH",
"291 781 LINE SMOOTH",
"283 758 OFFCURVE",
"291 741 OFFCURVE",
"322 741 CURVE SMOOTH"
);
}
);
width = 756;
}
);
note = Oacute;
unicode = 00D3;
},
{
glyphname = Obreve;
lastChange = "2015-07-18 13:06:17 +0000";
layers = (
{
layerId = "CB7AEA60-8A82-4B68-BB53-DB0CB6827011";
name = SemiBold;
paths = (
{
closed = 1;
nodes = (
"612 -15 OFFCURVE",
"733 116 OFFCURVE",
"733 340 CURVE SMOOTH",
"733 564 OFFCURVE",
"612 695 OFFCURVE",
"378 695 CURVE SMOOTH",
"144 695 OFFCURVE",
"23 564 OFFCURVE",
"23 340 CURVE SMOOTH",
"23 116 OFFCURVE",
"144 -15 OFFCURVE",
"378 -15 CURVE SMOOTH"
);
},
{
closed = 1;
nodes = (
"272 128 OFFCURVE",
"224 201 OFFCURVE",
"224 340 CURVE SMOOTH",
"224 479 OFFCURVE",
"272 551 OFFCURVE",
"378 551 CURVE SMOOTH",
"484 551 OFFCURVE",
"532 479 OFFCURVE",
"532 340 CURVE SMOOTH",
"532 201 OFFCURVE",
"484 128 OFFCURVE",
"378 128 CURVE SMOOTH"
);
},
{
closed = 1;
nodes = (
"506 732 OFFCURVE",
"569 807 OFFCURVE",
"569 905 CURVE SMOOTH",
"569 916 OFFCURVE",
"563 923 OFFCURVE",
"553 923 CURVE SMOOTH",
"445 923 LINE SMOOTH",
"431 923 OFFCURVE",
"428 916 OFFCURVE",
"428 904 CURVE SMOOTH",
"428 873 OFFCURVE",
"413 855 OFFCURVE",
"380 855 CURVE SMOOTH",
"346 855 OFFCURVE",
"332 873 OFFCURVE",
"332 904 CURVE SMOOTH",
"332 916 OFFCURVE",
"329 923 OFFCURVE",
"315 923 CURVE SMOOTH",
"207 923 LINE SMOOTH",
"197 923 OFFCURVE",
"191 916 OFFCURVE",
"191 905 CURVE SMOOTH",
"191 807 OFFCURVE",
"252 732 OFFCURVE",
"380 732 CURVE SMOOTH"
);
}
);
width = 756;
}
);
note = Obreve;
unicode = 014E;
},
{
glyphname = Ocaron;
lastChange = "2015-07-18 14:19:43 +0000";
layers = (
{
layerId = "CB7AEA60-8A82-4B68-BB53-DB0CB6827011";
name = SemiBold;
paths = (
{
closed = 1;
nodes = (
"612 -15 OFFCURVE",
"733 116 OFFCURVE",
"733 340 CURVE SMOOTH",
"733 564 OFFCURVE",
"612 695 OFFCURVE",
"378 695 CURVE SMOOTH",
"144 695 OFFCURVE",
"23 564 OFFCURVE",
"23 340 CURVE SMOOTH",
"23 116 OFFCURVE",
"144 -15 OFFCURVE",
"378 -15 CURVE SMOOTH"
);
},
{
closed = 1;
nodes = (
"272 128 OFFCURVE",
"224 201 OFFCURVE",
"224 340 CURVE SMOOTH",
"224 479 OFFCURVE",
"272 551 OFFCURVE",
"378 551 CURVE SMOOTH",
"484 551 OFFCURVE",
"532 479 OFFCURVE",
"532 340 CURVE SMOOTH",
"532 201 OFFCURVE",
"484 128 OFFCURVE",
"378 128 CURVE SMOOTH"
);
},
{
closed = 1;
nodes = (
"430 738 LINE SMOOTH",
"465 738 OFFCURVE",
"469 744 OFFCURVE",
"484 764 CURVE SMOOTH",
"580 889 LINE SMOOTH",
"602 917 OFFCURVE",
"594 936 OFFCURVE",
"562 936 CURVE SMOOTH",
"485 936 LINE SMOOTH",
"452 936 OFFCURVE",
"443 930 OFFCURVE",
"430 911 CURVE SMOOTH",
"380 834 LINE",
"329 911 LINE SMOOTH",
"316 930 OFFCURVE",
"307 936 OFFCURVE",
"274 936 CURVE SMOOTH",
"197 936 LINE SMOOTH",
"165 936 OFFCURVE",
"157 917 OFFCURVE",
"179 889 CURVE SMOOTH",
"275 764 LINE SMOOTH",
"291 744 OFFCURVE",
"294 738 OFFCURVE",
"329 738 CURVE SMOOTH"
);
}
);
width = 756;
}
);
note = Ocaron;
unicode = 01D1;
},
{
glyphname = Ocircumflex;
lastChange = "2015-07-18 14:19:47 +0000";
layers = (
{
layerId = "CB7AEA60-8A82-4B68-BB53-DB0CB6827011";
name = SemiBold;
paths = (
{
closed = 1;
nodes = (
"612 -15 OFFCURVE",
"733 116 OFFCURVE",
"733 340 CURVE SMOOTH",
"733 564 OFFCURVE",
"612 695 OFFCURVE",
"378 695 CURVE SMOOTH",
"144 695 OFFCURVE",
"23 564 OFFCURVE",
"23 340 CURVE SMOOTH",
"23 116 OFFCURVE",
"144 -15 OFFCURVE",
"378 -15 CURVE SMOOTH"
);
},
{
closed = 1;
nodes = (
"272 128 OFFCURVE",
"224 201 OFFCURVE",
"224 340 CURVE SMOOTH",
"224 479 OFFCURVE",
"272 551 OFFCURVE",
"378 551 CURVE SMOOTH",
"484 551 OFFCURVE",
"532 479 OFFCURVE",
"532 340 CURVE SMOOTH",
"532 201 OFFCURVE",
"484 128 OFFCURVE",
"378 128 CURVE SMOOTH"
);
},
{
closed = 1;
nodes = (
"274 742 LINE SMOOTH",
"307 742 OFFCURVE",
"317 749 OFFCURVE",
"329 768 CURVE SMOOTH",
"380 845 LINE",
"430 768 LINE SMOOTH",
"443 749 OFFCURVE",
"452 742 OFFCURVE",
"486 742 CURVE SMOOTH",
"561 742 LINE SMOOTH",
"592 742 OFFCURVE",
"602 761 OFFCURVE",
"580 789 CURVE SMOOTH",
"484 914 LINE SMOOTH",
"469 934 OFFCURVE",
"465 941 OFFCURVE",
"430 941 CURVE SMOOTH",
"329 941 LINE SMOOTH",
"294 941 OFFCURVE",
"291 934 OFFCURVE",
"275 914 CURVE SMOOTH",
"179 789 LINE SMOOTH",
"157 761 OFFCURVE",
"167 742 OFFCURVE",
"199 742 CURVE SMOOTH"
);
}
);
width = 756;
}
);
note = Ocircumflex;
unicode = 00D4;
},
{
glyphname = Ocircumflexacute;
lastChange = "2015-07-18 14:19:53 +0000";
layers = (
{
layerId = "CB7AEA60-8A82-4B68-BB53-DB0CB6827011";
name = SemiBold;
paths = (
{
closed = 1;
nodes = (
"612 -15 OFFCURVE",
"733 116 OFFCURVE",
"733 340 CURVE SMOOTH",
"733 564 OFFCURVE",
"612 695 OFFCURVE",
"378 695 CURVE SMOOTH",
"144 695 OFFCURVE",
"23 564 OFFCURVE",
"23 340 CURVE SMOOTH",
"23 116 OFFCURVE",
"144 -15 OFFCURVE",
"378 -15 CURVE SMOOTH"
);
},
{
closed = 1;
nodes = (
"272 128 OFFCURVE",
"224 201 OFFCURVE",
"224 340 CURVE SMOOTH",
"224 479 OFFCURVE",
"272 551 OFFCURVE",
"378 551 CURVE SMOOTH",
"484 551 OFFCURVE",
"532 479 OFFCURVE",
"532 340 CURVE SMOOTH",
"532 201 OFFCURVE",
"484 128 OFFCURVE",
"378 128 CURVE SMOOTH"
);
},
{
closed = 1;
nodes = (
"278 743 LINE SMOOTH",
"311 743 OFFCURVE",
"321 749 OFFCURVE",
"333 768 CURVE",
"380 836 LINE",
"426 768 LINE SMOOTH",
"438 749 OFFCURVE",
"448 743 OFFCURVE",
"481 743 CURVE SMOOTH",
"552 743 LINE SMOOTH",
"584 743 OFFCURVE",
"593 762 OFFCURVE",
"571 790 CURVE SMOOTH",
"476 909 LINE SMOOTH",
"461 929 OFFCURVE",
"456 936 OFFCURVE",
"422 936 CURVE SMOOTH",
"337 936 LINE SMOOTH",
"303 936 OFFCURVE",
"299 929 OFFCURVE",
"283 909 CURVE SMOOTH",
"188 790 LINE SMOOTH",
"166 762 OFFCURVE",
"175 743 OFFCURVE",
"207 743 CURVE SMOOTH"
);
},
{
closed = 1;
nodes = (
"570 899 LINE SMOOTH",
"605 899 OFFCURVE",
"612 903 OFFCURVE",
"629 931 CURVE",
"671 1006 LINE SMOOTH",
"687 1034 OFFCURVE",
"680 1053 OFFCURVE",
"650 1053 CURVE SMOOTH",
"576 1053 LINE SMOOTH",
"545 1053 OFFCURVE",
"540 1043 OFFCURVE",
"531 1019 CURVE SMOOTH",
"499 932 LINE SMOOTH",
"492 914 OFFCURVE",
"501 899 OFFCURVE",
"526 899 CURVE SMOOTH"
);
}
);
width = 756;
}
);
note = Ocircumflexacute;
unicode = 1ED0;
},
{
glyphname = Ocircumflexdotbelow;
lastChange = "2015-07-18 13:06:16 +0000";
layers = (
{
layerId = "CB7AEA60-8A82-4B68-BB53-DB0CB6827011";
name = SemiBold;
paths = (
{
closed = 1;
nodes = (
"612 -15 OFFCURVE",
"733 116 OFFCURVE",
"733 340 CURVE SMOOTH",
"733 564 OFFCURVE",
"612 695 OFFCURVE",
"378 695 CURVE SMOOTH",
"144 695 OFFCURVE",
"23 564 OFFCURVE",
"23 340 CURVE SMOOTH",
"23 116 OFFCURVE",
"144 -15 OFFCURVE",
"378 -15 CURVE SMOOTH"
);
},
{
closed = 1;
nodes = (
"389 -206 LINE SMOOTH",
"426 -206 OFFCURVE",
"450 -177 OFFCURVE",
"450 -142 CURVE SMOOTH",
"450 -117 LINE SMOOTH",
"450 -81 OFFCURVE",
"425 -53 OFFCURVE",
"389 -53 CURVE SMOOTH",
"362 -53 LINE SMOOTH",
"327 -53 OFFCURVE",
"301 -81 OFFCURVE",
"301 -117 CURVE SMOOTH",
"301 -142 LINE SMOOTH",
"301 -177 OFFCURVE",
"327 -206 OFFCURVE",
"362 -206 CURVE SMOOTH"
);
},
{
closed = 1;
nodes = (
"272 128 OFFCURVE",
"224 201 OFFCURVE",
"224 340 CURVE SMOOTH",
"224 479 OFFCURVE",
"272 551 OFFCURVE",
"378 551 CURVE SMOOTH",
"484 551 OFFCURVE",
"532 479 OFFCURVE",
"532 340 CURVE SMOOTH",
"532 201 OFFCURVE",
"484 128 OFFCURVE",
"378 128 CURVE SMOOTH"
);
},
{
closed = 1;
nodes = (
"272 730 LINE SMOOTH",
"305 730 OFFCURVE",
"315 737 OFFCURVE",
"327 756 CURVE SMOOTH",
"378 833 LINE",
"428 756 LINE SMOOTH",
"441 737 OFFCURVE",
"450 730 OFFCURVE",
"484 730 CURVE SMOOTH",
"559 730 LINE SMOOTH",
"590 730 OFFCURVE",
"600 749 OFFCURVE",
"578 777 CURVE SMOOTH",
"482 902 LINE SMOOTH",
"467 922 OFFCURVE",
"463 929 OFFCURVE",
"428 929 CURVE SMOOTH",
"327 929 LINE SMOOTH",
"292 929 OFFCURVE",
"289 922 OFFCURVE",
"273 902 CURVE SMOOTH",
"177 777 LINE SMOOTH",
"155 749 OFFCURVE",
"165 730 OFFCURVE",
"197 730 CURVE SMOOTH"
);
}
);
width = 756;
}
);
note = Ocircumflexdotbelow;
unicode = 1ED8;
},
{
glyphname = Ocircumflexgrave;
lastChange = "2015-07-18 14:20:02 +0000";
layers = (
{
layerId = "CB7AEA60-8A82-4B68-BB53-DB0CB6827011";
name = SemiBold;
paths = (
{
closed = 1;
nodes = (
"612 -15 OFFCURVE",
"733 116 OFFCURVE",
"733 340 CURVE SMOOTH",
"733 564 OFFCURVE",
"612 695 OFFCURVE",
"378 695 CURVE SMOOTH",
"144 695 OFFCURVE",
"23 564 OFFCURVE",
"23 340 CURVE SMOOTH",
"23 116 OFFCURVE",
"144 -15 OFFCURVE",
"378 -15 CURVE SMOOTH"
);
},
{
closed = 1;
nodes = (
"272 128 OFFCURVE",
"224 201 OFFCURVE",
"224 340 CURVE SMOOTH",
"224 479 OFFCURVE",
"272 551 OFFCURVE",
"378 551 CURVE SMOOTH",
"484 551 OFFCURVE",
"532 479 OFFCURVE",
"532 340 CURVE SMOOTH",
"532 201 OFFCURVE",
"484 128 OFFCURVE",
"378 128 CURVE SMOOTH"
);
},
{
closed = 1;
nodes = (
"234 893 LINE SMOOTH",
"259 893 OFFCURVE",
"268 908 OFFCURVE",
"261 926 CURVE SMOOTH",
"229 1013 LINE SMOOTH",
"220 1037 OFFCURVE",
"215 1047 OFFCURVE",
"184 1047 CURVE SMOOTH",
"110 1047 LINE SMOOTH",
"80 1047 OFFCURVE",
"73 1028 OFFCURVE",
"89 1000 CURVE SMOOTH",
"131 925 LINE",
"148 897 OFFCURVE",
"155 893 OFFCURVE",
"190 893 CURVE SMOOTH"
);
},
{
closed = 1;
nodes = (
"279 737 LINE SMOOTH",
"312 737 OFFCURVE",
"322 743 OFFCURVE",
"334 762 CURVE SMOOTH",
"380 830 LINE",
"427 762 LINE",
"439 743 OFFCURVE",
"449 737 OFFCURVE",
"482 737 CURVE SMOOTH",
"553 737 LINE SMOOTH",
"585 737 OFFCURVE",
"594 756 OFFCURVE",
"572 784 CURVE SMOOTH",
"477 903 LINE SMOOTH",
"461 923 OFFCURVE",
"457 930 OFFCURVE",
"423 930 CURVE SMOOTH",
"338 930 LINE SMOOTH",
"304 930 OFFCURVE",
"299 923 OFFCURVE",
"284 903 CURVE SMOOTH",
"189 784 LINE SMOOTH",
"167 756 OFFCURVE",
"176 737 OFFCURVE",
"208 737 CURVE SMOOTH"
);
}
);
width = 756;
}
);
note = Ocircumflexgrave;
unicode = 1ED2;
},
{
glyphname = Ocircumflexhookabove;
lastChange = "2015-07-18 14:20:08 +0000";
layers = (
{
layerId = "CB7AEA60-8A82-4B68-BB53-DB0CB6827011";
name = SemiBold;
paths = (
{
closed = 1;
nodes = (
"612 -15 OFFCURVE",
"733 116 OFFCURVE",
"733 340 CURVE SMOOTH",
"733 564 OFFCURVE",
"612 695 OFFCURVE",
"378 695 CURVE SMOOTH",
"144 695 OFFCURVE",
"23 564 OFFCURVE",
"23 340 CURVE SMOOTH",
"23 116 OFFCURVE",
"144 -15 OFFCURVE",
"378 -15 CURVE SMOOTH"
);
},
{
closed = 1;
nodes = (
"272 128 OFFCURVE",
"224 201 OFFCURVE",
"224 340 CURVE SMOOTH",
"224 479 OFFCURVE",
"272 551 OFFCURVE",
"378 551 CURVE SMOOTH",
"484 551 OFFCURVE",
"532 479 OFFCURVE",
"532 340 CURVE SMOOTH",
"532 201 OFFCURVE",
"484 128 OFFCURVE",
"378 128 CURVE SMOOTH"
);
},
{
closed = 1;
nodes = (
"278 733 LINE SMOOTH",
"311 733 OFFCURVE",
"321 739 OFFCURVE",
"333 758 CURVE",
"380 826 LINE",
"426 758 LINE SMOOTH",
"439 739 OFFCURVE",
"449 733 OFFCURVE",
"481 733 CURVE SMOOTH",
"552 733 LINE SMOOTH",
"584 733 OFFCURVE",
"593 752 OFFCURVE",
"571 780 CURVE SMOOTH",
"476 899 LINE SMOOTH",
"461 919 OFFCURVE",
"456 926 OFFCURVE",
"422 926 CURVE SMOOTH",
"338 926 LINE SMOOTH",
"303 926 OFFCURVE",
"299 919 OFFCURVE",
"284 899 CURVE SMOOTH",
"189 780 LINE SMOOTH",
"166 752 OFFCURVE",
"176 733 OFFCURVE",
"207 733 CURVE SMOOTH"
);
},
{
closed = 1;
nodes = (
"582 877 LINE SMOOTH",
"594 877 OFFCURVE",
"599 883 OFFCURVE",
"599 894 CURVE SMOOTH",
"599 909 LINE",
"635 909 OFFCURVE",
"665 932 OFFCURVE",
"665 976 CURVE SMOOTH",
"665 1025 OFFCURVE",
"634 1051 OFFCURVE",
"564 1051 CURVE SMOOTH",
"528 1051 OFFCURVE",
"491 1043 OFFCURVE",
"467 1030 CURVE SMOOTH",
"461 1027 OFFCURVE",
"462 1023 OFFCURVE",
"464 1019 CURVE",
"484 975 LINE",
"486 971 OFFCURVE",
"489 971 OFFCURVE",
"492 973 CURVE",
"505 981 OFFCURVE",
"522 986 OFFCURVE",
"540 986 CURVE SMOOTH",
"556 986 OFFCURVE",
"563 981 OFFCURVE",
"563 970 CURVE SMOOTH",
"563 956 OFFCURVE",
"553 952 OFFCURVE",
"531 952 CURVE SMOOTH",
"510 952 OFFCURVE",
"504 945 OFFCURVE",
"504 928 CURVE SMOOTH",
"504 894 LINE SMOOTH",
"504 883 OFFCURVE",
"509 877 OFFCURVE",
"521 877 CURVE SMOOTH"
);
}
);
width = 756;
}
);
note = Ocircumflexhookabove;
unicode = 1ED4;
},
{
glyphname = Ocircumflextilde;
lastChange = "2015-07-18 14:20:15 +0000";
layers = (
{
layerId = "CB7AEA60-8A82-4B68-BB53-DB0CB6827011";
name = SemiBold;
paths = (
{
closed = 1;
nodes = (
"612 -15 OFFCURVE",
"733 116 OFFCURVE",
"733 340 CURVE SMOOTH",
"733 564 OFFCURVE",
"612 695 OFFCURVE",
"378 695 CURVE SMOOTH",
"144 695 OFFCURVE",
"23 564 OFFCURVE",
"23 340 CURVE SMOOTH",
"23 116 OFFCURVE",
"144 -15 OFFCURVE",
"378 -15 CURVE SMOOTH"
);
},
{
closed = 1;
nodes = (
"272 128 OFFCURVE",
"224 201 OFFCURVE",
"224 340 CURVE SMOOTH",
"224 479 OFFCURVE",
"272 551 OFFCURVE",
"378 551 CURVE SMOOTH",
"484 551 OFFCURVE",
"532 479 OFFCURVE",
"532 340 CURVE SMOOTH",
"532 201 OFFCURVE",
"484 128 OFFCURVE",
"378 128 CURVE SMOOTH"
);
},
{
closed = 1;
nodes = (
"502 732 OFFCURVE",
"569 802 OFFCURVE",
"569 890 CURVE SMOOTH",
"569 901 OFFCURVE",
"563 908 OFFCURVE",
"553 908 CURVE SMOOTH",
"462 908 LINE SMOOTH",
"448 908 OFFCURVE",
"445 901 OFFCURVE",
"445 889 CURVE SMOOTH",
"445 857 OFFCURVE",
"424 839 OFFCURVE",
"380 839 CURVE SMOOTH",
"335 839 OFFCURVE",
"315 857 OFFCURVE",
"315 889 CURVE SMOOTH",
"315 901 OFFCURVE",
"312 908 OFFCURVE",
"298 908 CURVE SMOOTH",
"207 908 LINE SMOOTH",
"197 908 OFFCURVE",
"191 901 OFFCURVE",
"191 890 CURVE SMOOTH",
"191 802 OFFCURVE",
"258 732 OFFCURVE",
"380 732 CURVE SMOOTH"
);
},
{
closed = 1;
nodes = (
"503 928 OFFCURVE",
"527 943 OFFCURVE",
"557 984 CURVE SMOOTH",
"578 1012 OFFCURVE",
"571 1022 OFFCURVE",
"540 1046 CURVE SMOOTH",
"508 1070 OFFCURVE",
"494 1072 OFFCURVE",
"479 1053 CURVE",
"462 1033 OFFCURVE",
"451 1027 OFFCURVE",
"429 1027 CURVE SMOOTH",
"393 1027 OFFCURVE",
"360 1063 OFFCURVE",
"297 1063 CURVE SMOOTH",
"250 1063 OFFCURVE",
"218 1044 OFFCURVE",
"187 1002 CURVE",
"168 979 OFFCURVE",
"171 970 OFFCURVE",
"202 945 CURVE SMOOTH",
"236 919 OFFCURVE",
"247 920 OFFCURVE",
"266 941 CURVE SMOOTH",
"283 959 OFFCURVE",
"294 963 OFFCURVE",
"317 963 CURVE SMOOTH",
"353 963 OFFCURVE",
"397 928 OFFCURVE",
"450 928 CURVE SMOOTH"
);
}
);
width = 756;
}
);
note = Ocircumflextilde;
unicode = 1ED6;
},
{
glyphname = Odieresis;
lastChange = "2015-07-18 14:20:22 +0000";
layers = (
{
layerId = "CB7AEA60-8A82-4B68-BB53-DB0CB6827011";
name = SemiBold;
paths = (
{
closed = 1;
nodes = (
"612 -15 OFFCURVE",
"733 116 OFFCURVE",
"733 340 CURVE SMOOTH",
"733 564 OFFCURVE",
"612 695 OFFCURVE",
"378 695 CURVE SMOOTH",
"144 695 OFFCURVE",
"23 564 OFFCURVE",
"23 340 CURVE SMOOTH",
"23 116 OFFCURVE",
"144 -15 OFFCURVE",
"378 -15 CURVE SMOOTH"
);
},
{
closed = 1;
nodes = (
"272 128 OFFCURVE",
"224 201 OFFCURVE",
"224 340 CURVE SMOOTH",
"224 479 OFFCURVE",
"272 551 OFFCURVE",
"378 551 CURVE SMOOTH",
"484 551 OFFCURVE",
"532 479 OFFCURVE",
"532 340 CURVE SMOOTH",
"532 201 OFFCURVE",
"484 128 OFFCURVE",
"378 128 CURVE SMOOTH"
);
},
{
closed = 1;
nodes = (
"286 734 LINE SMOOTH",
"323 734 OFFCURVE",
"347 763 OFFCURVE",
"347 798 CURVE SMOOTH",
"347 823 LINE SMOOTH",
"347 859 OFFCURVE",
"322 887 OFFCURVE",
"286 887 CURVE SMOOTH",
"259 887 LINE SMOOTH",
"223 887 OFFCURVE",
"198 859 OFFCURVE",
"198 823 CURVE SMOOTH",
"198 798 LINE SMOOTH",
"198 763 OFFCURVE",
"223 734 OFFCURVE",
"259 734 CURVE SMOOTH"
);
},
{
closed = 1;
nodes = (
"500 734 LINE SMOOTH",
"537 734 OFFCURVE",
"561 763 OFFCURVE",
"561 798 CURVE SMOOTH",
"561 823 LINE SMOOTH",
"561 859 OFFCURVE",
"536 887 OFFCURVE",
"500 887 CURVE SMOOTH",
"473 887 LINE SMOOTH",
"438 887 OFFCURVE",
"412 859 OFFCURVE",
"412 823 CURVE SMOOTH",
"412 798 LINE SMOOTH",
"412 763 OFFCURVE",
"438 734 OFFCURVE",
"473 734 CURVE SMOOTH"
);
}
);
width = 756;
}
);
note = Odieresis;
unicode = 00D6;
},
{
glyphname = Odotbelow;
lastChange = "2015-07-18 13:06:16 +0000";
layers = (
{
layerId = "CB7AEA60-8A82-4B68-BB53-DB0CB6827011";
name = SemiBold;
paths = (
{
closed = 1;
nodes = (
"612 -15 OFFCURVE",
"733 116 OFFCURVE",
"733 340 CURVE SMOOTH",
"733 564 OFFCURVE",
"612 695 OFFCURVE",
"378 695 CURVE SMOOTH",
"144 695 OFFCURVE",
"23 564 OFFCURVE",
"23 340 CURVE SMOOTH",
"23 116 OFFCURVE",
"144 -15 OFFCURVE",
"378 -15 CURVE SMOOTH"
);
},
{
closed = 1;
nodes = (
"389 -206 LINE SMOOTH",
"426 -206 OFFCURVE",
"450 -177 OFFCURVE",
"450 -142 CURVE SMOOTH",
"450 -117 LINE SMOOTH",
"450 -81 OFFCURVE",
"425 -53 OFFCURVE",
"389 -53 CURVE SMOOTH",
"362 -53 LINE SMOOTH",
"327 -53 OFFCURVE",
"301 -81 OFFCURVE",
"301 -117 CURVE SMOOTH",
"301 -142 LINE SMOOTH",
"301 -177 OFFCURVE",
"327 -206 OFFCURVE",
"362 -206 CURVE SMOOTH"
);
},
{
closed = 1;
nodes = (
"272 128 OFFCURVE",
"224 201 OFFCURVE",
"224 340 CURVE SMOOTH",
"224 479 OFFCURVE",
"272 551 OFFCURVE",
"378 551 CURVE SMOOTH",
"484 551 OFFCURVE",
"532 479 OFFCURVE",
"532 340 CURVE SMOOTH",
"532 201 OFFCURVE",
"484 128 OFFCURVE",
"378 128 CURVE SMOOTH"
);
}
);
width = 756;
}
);
note = Odotbelow;
unicode = 1ECC;
},
{
glyphname = Ograve;
lastChange = "2015-07-18 13:06:17 +0000";
layers = (
{
layerId = "CB7AEA60-8A82-4B68-BB53-DB0CB6827011";
name = SemiBold;
paths = (
{
closed = 1;
nodes = (
"612 -15 OFFCURVE",
"733 116 OFFCURVE",
"733 340 CURVE SMOOTH",
"733 564 OFFCURVE",
"612 695 OFFCURVE",
"378 695 CURVE SMOOTH",
"144 695 OFFCURVE",
"23 564 OFFCURVE",
"23 340 CURVE SMOOTH",
"23 116 OFFCURVE",
"144 -15 OFFCURVE",
"378 -15 CURVE SMOOTH"
);
},
{
closed = 1;
nodes = (
"272 128 OFFCURVE",
"224 201 OFFCURVE",
"224 340 CURVE SMOOTH",
"224 479 OFFCURVE",
"272 551 OFFCURVE",
"378 551 CURVE SMOOTH",
"484 551 OFFCURVE",
"532 479 OFFCURVE",
"532 340 CURVE SMOOTH",
"532 201 OFFCURVE",
"484 128 OFFCURVE",
"378 128 CURVE SMOOTH"
);
},
{
closed = 1;
nodes = (
"445 741 LINE SMOOTH",
"476 741 OFFCURVE",
"485 758 OFFCURVE",
"476 781 CURVE SMOOTH",
"432 902 LINE SMOOTH",
"423 927 OFFCURVE",
"417 936 OFFCURVE",
"380 936 CURVE SMOOTH",
"260 936 LINE SMOOTH",
"228 936 OFFCURVE",
"211 920 OFFCURVE",
"228 889 CURVE SMOOTH",
"293 774 LINE SMOOTH",
"308 748 OFFCURVE",
"316 741 OFFCURVE",
"356 741 CURVE SMOOTH"
);
}
);
width = 756;
}
);
note = Ograve;
unicode = 00D2;
},
{
glyphname = Ohookabove;
lastChange = "2015-07-18 13:06:16 +0000";
layers = (
{
layerId = "CB7AEA60-8A82-4B68-BB53-DB0CB6827011";
name = SemiBold;
paths = (
{
closed = 1;
nodes = (
"612 -15 OFFCURVE",
"733 116 OFFCURVE",
"733 340 CURVE SMOOTH",
"733 564 OFFCURVE",
"612 695 OFFCURVE",
"378 695 CURVE SMOOTH",
"144 695 OFFCURVE",
"23 564 OFFCURVE",
"23 340 CURVE SMOOTH",
"23 116 OFFCURVE",
"144 -15 OFFCURVE",
"378 -15 CURVE SMOOTH"
);
},
{
closed = 1;
nodes = (
"272 128 OFFCURVE",
"224 201 OFFCURVE",
"224 340 CURVE SMOOTH",
"224 479 OFFCURVE",
"272 551 OFFCURVE",
"378 551 CURVE SMOOTH",
"484 551 OFFCURVE",
"532 479 OFFCURVE",
"532 340 CURVE SMOOTH",
"532 201 OFFCURVE",
"484 128 OFFCURVE",
"378 128 CURVE SMOOTH"
);
},
{
closed = 1;
nodes = (
"424 726 LINE SMOOTH",
"440 726 OFFCURVE",
"447 734 OFFCURVE",
"447 749 CURVE SMOOTH",
"447 765 LINE",
"497 765 OFFCURVE",
"539 803 OFFCURVE",
"539 866 CURVE SMOOTH",
"539 935 OFFCURVE",
"492 973 OFFCURVE",
"397 973 CURVE SMOOTH",
"355 973 OFFCURVE",
"301 962 OFFCURVE",
"272 942 CURVE",
"265 938 OFFCURVE",
"265 934 OFFCURVE",
"268 928 CURVE",
"295 865 LINE",
"298 860 OFFCURVE",
"302 860 OFFCURVE",
"307 862 CURVE",
"328 872 OFFCURVE",
"349 880 OFFCURVE",
"374 880 CURVE SMOOTH",
"399 880 OFFCURVE",
"410 873 OFFCURVE",
"410 858 CURVE SMOOTH",
"410 838 OFFCURVE",
"394 832 OFFCURVE",
"361 832 CURVE SMOOTH",
"331 832 OFFCURVE",
"325 822 OFFCURVE",
"325 801 CURVE SMOOTH",
"325 749 LINE SMOOTH",
"325 734 OFFCURVE",
"332 726 OFFCURVE",
"348 726 CURVE SMOOTH"
);
}
);
width = 756;
}
);
note = Ohookabove;
unicode = 1ECE;
},
{
glyphname = Ohorn;
lastChange = "2015-07-18 13:06:16 +0000";
layers = (
{
layerId = "CB7AEA60-8A82-4B68-BB53-DB0CB6827011";
name = SemiBold;
paths = (
{
closed = 1;
nodes = (
"612 -15 OFFCURVE",
"733 116 OFFCURVE",
"733 340 CURVE SMOOTH",
"733 407 OFFCURVE",
"722 465 OFFCURVE",
"700 514 CURVE",
"787 546 OFFCURVE",
"818 614 OFFCURVE",
"818 713 CURVE SMOOTH",
"818 742 OFFCURVE",
"812 749 OFFCURVE",
"789 749 CURVE SMOOTH",
"681 749 LINE SMOOTH",
"662 749 OFFCURVE",
"656 742 OFFCURVE",
"656 714 CURVE SMOOTH",
"656 663 OFFCURVE",
"643 639 OFFCURVE",
"607 631 CURVE",
"550 673 OFFCURVE",
"473 695 OFFCURVE",
"378 695 CURVE SMOOTH",
"144 695 OFFCURVE",
"23 564 OFFCURVE",
"23 340 CURVE SMOOTH",
"23 116 OFFCURVE",
"144 -15 OFFCURVE",
"378 -15 CURVE SMOOTH"
);
},
{
closed = 1;
nodes = (
"272 128 OFFCURVE",
"224 201 OFFCURVE",
"224 340 CURVE SMOOTH",
"224 479 OFFCURVE",
"272 551 OFFCURVE",
"378 551 CURVE SMOOTH",
"484 551 OFFCURVE",
"532 479 OFFCURVE",
"532 340 CURVE SMOOTH",
"532 201 OFFCURVE",
"484 128 OFFCURVE",
"378 128 CURVE SMOOTH"
);
}
);
width = 811;
}
);
note = Ohorn;
unicode = 01A0;
},
{
glyphname = Ohornacute;
lastChange = "2015-07-18 14:20:31 +0000";
layers = (
{
layerId = "CB7AEA60-8A82-4B68-BB53-DB0CB6827011";
name = SemiBold;
paths = (
{
closed = 1;
nodes = (
"612 -15 OFFCURVE",
"733 116 OFFCURVE",
"733 340 CURVE SMOOTH",
"733 407 OFFCURVE",
"722 465 OFFCURVE",
"700 514 CURVE",
"787 546 OFFCURVE",
"818 614 OFFCURVE",
"818 713 CURVE SMOOTH",
"818 742 OFFCURVE",
"812 749 OFFCURVE",
"789 749 CURVE SMOOTH",
"681 749 LINE SMOOTH",
"662 749 OFFCURVE",
"656 742 OFFCURVE",
"656 714 CURVE SMOOTH",
"656 663 OFFCURVE",
"643 639 OFFCURVE",
"607 631 CURVE",
"550 673 OFFCURVE",
"473 695 OFFCURVE",
"378 695 CURVE SMOOTH",
"144 695 OFFCURVE",
"23 564 OFFCURVE",
"23 340 CURVE SMOOTH",
"23 116 OFFCURVE",
"144 -15 OFFCURVE",
"378 -15 CURVE SMOOTH"
);
},
{
closed = 1;
nodes = (
"272 128 OFFCURVE",
"224 201 OFFCURVE",
"224 340 CURVE SMOOTH",
"224 479 OFFCURVE",
"272 551 OFFCURVE",
"378 551 CURVE SMOOTH",
"484 551 OFFCURVE",
"532 479 OFFCURVE",
"532 340 CURVE SMOOTH",
"532 201 OFFCURVE",
"484 128 OFFCURVE",
"378 128 CURVE SMOOTH"
);
},
{
closed = 1;
nodes = (
"426 737 LINE SMOOTH",
"466 737 OFFCURVE",
"474 744 OFFCURVE",
"489 770 CURVE SMOOTH",
"554 885 LINE SMOOTH",
"571 916 OFFCURVE",
"554 932 OFFCURVE",
"522 932 CURVE SMOOTH",
"402 932 LINE SMOOTH",
"365 932 OFFCURVE",
"359 922 OFFCURVE",
"350 898 CURVE SMOOTH",
"306 777 LINE SMOOTH",
"298 754 OFFCURVE",
"306 737 OFFCURVE",
"337 737 CURVE SMOOTH"
);
}
);
width = 811;
}
);
note = Ohornacute;
unicode = 1EDA;
},
{
glyphname = Ohorndotbelow;
lastChange = "2015-07-18 13:06:16 +0000";
layers = (
{
layerId = "CB7AEA60-8A82-4B68-BB53-DB0CB6827011";
name = SemiBold;
paths = (
{
closed = 1;
nodes = (
"612 -15 OFFCURVE",
"733 116 OFFCURVE",
"733 340 CURVE SMOOTH",
"733 407 OFFCURVE",
"722 465 OFFCURVE",
"700 514 CURVE",
"787 546 OFFCURVE",
"818 614 OFFCURVE",
"818 713 CURVE SMOOTH",
"818 742 OFFCURVE",
"812 749 OFFCURVE",
"789 749 CURVE SMOOTH",
"681 749 LINE SMOOTH",
"662 749 OFFCURVE",
"656 742 OFFCURVE",
"656 714 CURVE SMOOTH",
"656 663 OFFCURVE",
"643 639 OFFCURVE",
"607 631 CURVE",
"550 673 OFFCURVE",
"473 695 OFFCURVE",
"378 695 CURVE SMOOTH",
"144 695 OFFCURVE",
"23 564 OFFCURVE",
"23 340 CURVE SMOOTH",
"23 116 OFFCURVE",
"144 -15 OFFCURVE",
"378 -15 CURVE SMOOTH"
);
},
{
closed = 1;
nodes = (
"390 -206 LINE SMOOTH",
"427 -206 OFFCURVE",
"451 -177 OFFCURVE",
"451 -142 CURVE SMOOTH",
"451 -117 LINE SMOOTH",
"451 -81 OFFCURVE",
"426 -53 OFFCURVE",
"390 -53 CURVE SMOOTH",
"363 -53 LINE SMOOTH",
"328 -53 OFFCURVE",
"302 -81 OFFCURVE",
"302 -117 CURVE SMOOTH",
"302 -142 LINE SMOOTH",
"302 -177 OFFCURVE",
"328 -206 OFFCURVE",
"363 -206 CURVE SMOOTH"
);
},
{
closed = 1;
nodes = (
"272 128 OFFCURVE",
"224 201 OFFCURVE",
"224 340 CURVE SMOOTH",
"224 479 OFFCURVE",
"272 551 OFFCURVE",
"378 551 CURVE SMOOTH",
"484 551 OFFCURVE",
"532 479 OFFCURVE",
"532 340 CURVE SMOOTH",
"532 201 OFFCURVE",
"484 128 OFFCURVE",
"378 128 CURVE SMOOTH"
);
}
);
width = 811;
}
);
note = Ohorndotbelow;
unicode = 1EE2;
},
{
glyphname = Ohorngrave;
lastChange = "2015-07-18 14:20:39 +0000";
layers = (
{
layerId = "CB7AEA60-8A82-4B68-BB53-DB0CB6827011";
name = SemiBold;
paths = (
{
closed = 1;
nodes = (
"612 -15 OFFCURVE",
"733 116 OFFCURVE",
"733 340 CURVE SMOOTH",
"733 407 OFFCURVE",
"722 465 OFFCURVE",
"700 514 CURVE",
"787 546 OFFCURVE",
"818 614 OFFCURVE",
"818 713 CURVE SMOOTH",
"818 742 OFFCURVE",
"812 749 OFFCURVE",
"789 749 CURVE SMOOTH",
"681 749 LINE SMOOTH",
"662 749 OFFCURVE",
"656 742 OFFCURVE",
"656 714 CURVE SMOOTH",
"656 663 OFFCURVE",
"643 639 OFFCURVE",
"607 631 CURVE",
"550 673 OFFCURVE",
"473 695 OFFCURVE",
"378 695 CURVE SMOOTH",
"144 695 OFFCURVE",
"23 564 OFFCURVE",
"23 340 CURVE SMOOTH",
"23 116 OFFCURVE",
"144 -15 OFFCURVE",
"378 -15 CURVE SMOOTH"
);
},
{
closed = 1;
nodes = (
"272 128 OFFCURVE",
"224 201 OFFCURVE",
"224 340 CURVE SMOOTH",
"224 479 OFFCURVE",
"272 551 OFFCURVE",
"378 551 CURVE SMOOTH",
"484 551 OFFCURVE",
"532 479 OFFCURVE",
"532 340 CURVE SMOOTH",
"532 201 OFFCURVE",
"484 128 OFFCURVE",
"378 128 CURVE SMOOTH"
);
},
{
closed = 1;
nodes = (
"459 735 LINE SMOOTH",
"490 735 OFFCURVE",
"499 752 OFFCURVE",
"490 775 CURVE SMOOTH",
"446 896 LINE SMOOTH",
"437 921 OFFCURVE",
"431 930 OFFCURVE",
"394 930 CURVE SMOOTH",
"274 930 LINE SMOOTH",
"242 930 OFFCURVE",
"225 914 OFFCURVE",
"242 883 CURVE SMOOTH",
"307 768 LINE SMOOTH",
"322 742 OFFCURVE",
"330 735 OFFCURVE",
"370 735 CURVE SMOOTH"
);
}
);
width = 811;
}
);
note = Ohorngrave;
unicode = 1EDC;
},
{
glyphname = Ohornhookabove;
lastChange = "2015-07-18 13:06:18 +0000";
layers = (
{
layerId = "CB7AEA60-8A82-4B68-BB53-DB0CB6827011";
name = SemiBold;
paths = (
{
closed = 1;
nodes = (
"612 -15 OFFCURVE",
"733 116 OFFCURVE",
"733 340 CURVE SMOOTH",
"733 407 OFFCURVE",
"722 465 OFFCURVE",
"700 514 CURVE",
"787 546 OFFCURVE",
"818 614 OFFCURVE",
"818 713 CURVE SMOOTH",
"818 742 OFFCURVE",
"812 749 OFFCURVE",
"789 749 CURVE SMOOTH",
"681 749 LINE SMOOTH",
"662 749 OFFCURVE",
"656 742 OFFCURVE",
"656 714 CURVE SMOOTH",
"656 663 OFFCURVE",
"643 639 OFFCURVE",
"607 631 CURVE",
"550 673 OFFCURVE",
"473 695 OFFCURVE",
"378 695 CURVE SMOOTH",
"144 695 OFFCURVE",
"23 564 OFFCURVE",
"23 340 CURVE SMOOTH",
"23 116 OFFCURVE",
"144 -15 OFFCURVE",
"378 -15 CURVE SMOOTH"
);
},
{
closed = 1;
nodes = (
"272 128 OFFCURVE",
"224 201 OFFCURVE",
"224 340 CURVE SMOOTH",
"224 479 OFFCURVE",
"272 551 OFFCURVE",
"378 551 CURVE SMOOTH",
"484 551 OFFCURVE",
"532 479 OFFCURVE",
"532 340 CURVE SMOOTH",
"532 201 OFFCURVE",
"484 128 OFFCURVE",
"378 128 CURVE SMOOTH"
);
},
{
closed = 1;
nodes = (
"407 726 LINE SMOOTH",
"423 726 OFFCURVE",
"430 734 OFFCURVE",
"430 749 CURVE SMOOTH",
"430 765 LINE",
"480 765 OFFCURVE",
"522 803 OFFCURVE",
"522 866 CURVE SMOOTH",
"522 935 OFFCURVE",
"475 973 OFFCURVE",
"380 973 CURVE SMOOTH",
"338 973 OFFCURVE",
"284 962 OFFCURVE",
"255 942 CURVE",
"248 938 OFFCURVE",
"248 934 OFFCURVE",
"251 928 CURVE",
"278 865 LINE",
"281 860 OFFCURVE",
"285 860 OFFCURVE",
"290 862 CURVE",
"311 872 OFFCURVE",
"332 880 OFFCURVE",
"357 880 CURVE SMOOTH",
"382 880 OFFCURVE",
"393 873 OFFCURVE",
"393 858 CURVE SMOOTH",
"393 838 OFFCURVE",
"377 832 OFFCURVE",
"344 832 CURVE SMOOTH",
"314 832 OFFCURVE",
"308 822 OFFCURVE",
"308 801 CURVE SMOOTH",
"308 749 LINE SMOOTH",
"308 734 OFFCURVE",
"315 726 OFFCURVE",
"331 726 CURVE SMOOTH"
);
}
);
width = 811;
}
);
note = Ohornhookabove;
unicode = 1EDE;
},
{
glyphname = Ohorntilde;
lastChange = "2015-07-18 13:06:17 +0000";
layers = (
{
layerId = "CB7AEA60-8A82-4B68-BB53-DB0CB6827011";
name = SemiBold;
paths = (
{
closed = 1;
nodes = (
"612 -15 OFFCURVE",
"733 116 OFFCURVE",
"733 340 CURVE SMOOTH",
"733 407 OFFCURVE",
"722 465 OFFCURVE",
"700 514 CURVE",
"787 546 OFFCURVE",
"818 614 OFFCURVE",
"818 713 CURVE SMOOTH",
"818 742 OFFCURVE",
"812 749 OFFCURVE",
"789 749 CURVE SMOOTH",
"681 749 LINE SMOOTH",
"662 749 OFFCURVE",
"656 742 OFFCURVE",
"656 714 CURVE SMOOTH",
"656 663 OFFCURVE",
"643 639 OFFCURVE",
"607 631 CURVE",
"550 673 OFFCURVE",
"473 695 OFFCURVE",
"378 695 CURVE SMOOTH",
"144 695 OFFCURVE",
"23 564 OFFCURVE",
"23 340 CURVE SMOOTH",
"23 116 OFFCURVE",
"144 -15 OFFCURVE",
"378 -15 CURVE SMOOTH"
);
},
{
closed = 1;
nodes = (
"272 128 OFFCURVE",
"224 201 OFFCURVE",
"224 340 CURVE SMOOTH",
"224 479 OFFCURVE",
"272 551 OFFCURVE",
"378 551 CURVE SMOOTH",
"484 551 OFFCURVE",
"532 479 OFFCURVE",
"532 340 CURVE SMOOTH",
"532 201 OFFCURVE",
"484 128 OFFCURVE",
"378 128 CURVE SMOOTH"
);
},
{
closed = 1;
nodes = (
"551 725 OFFCURVE",
"583 752 OFFCURVE",
"622 809 CURVE SMOOTH",
"644 840 OFFCURVE",
"640 856 OFFCURVE",
"603 884 CURVE SMOOTH",
"565 912 OFFCURVE",
"545 918 OFFCURVE",
"528 897 CURVE SMOOTH",
"507 872 OFFCURVE",
"496 863 OFFCURVE",
"472 863 CURVE SMOOTH",
"424 863 OFFCURVE",
"387 913 OFFCURVE",
"308 913 CURVE SMOOTH",
"251 913 OFFCURVE",
"219 883 OFFCURVE",
"181 831 CURVE SMOOTH",
"159 800 OFFCURVE",
"164 785 OFFCURVE",
"200 758 CURVE SMOOTH",
"237 729 OFFCURVE",
"258 722 OFFCURVE",
"275 743 CURVE",
"295 766 OFFCURVE",
"307 775 OFFCURVE",
"332 775 CURVE SMOOTH",
"383 775 OFFCURVE",
"428 725 OFFCURVE",
"491 725 CURVE SMOOTH"
);
}
);
width = 811;
}
);
note = Ohorntilde;
unicode = 1EE0;
},
{
glyphname = Ohungarumlaut;
lastChange = "2015-07-18 14:20:47 +0000";
layers = (
{
layerId = "CB7AEA60-8A82-4B68-BB53-DB0CB6827011";
name = SemiBold;
paths = (
{
closed = 1;
nodes = (
"612 -15 OFFCURVE",
"733 116 OFFCURVE",
"733 340 CURVE SMOOTH",
"733 564 OFFCURVE",
"612 695 OFFCURVE",
"378 695 CURVE SMOOTH",
"144 695 OFFCURVE",
"23 564 OFFCURVE",
"23 340 CURVE SMOOTH",
"23 116 OFFCURVE",
"144 -15 OFFCURVE",
"378 -15 CURVE SMOOTH"
);
},
{
closed = 1;
nodes = (
"272 128 OFFCURVE",
"224 201 OFFCURVE",
"224 340 CURVE SMOOTH",
"224 479 OFFCURVE",
"272 551 OFFCURVE",
"378 551 CURVE SMOOTH",
"484 551 OFFCURVE",
"532 479 OFFCURVE",
"532 340 CURVE SMOOTH",
"532 201 OFFCURVE",
"484 128 OFFCURVE",
"378 128 CURVE SMOOTH"
);
},
{
closed = 1;
nodes = (
"294 737 LINE SMOOTH",
"335 737 OFFCURVE",
"340 746 OFFCURVE",
"358 770 CURVE",
"438 885 LINE SMOOTH",
"459 914 OFFCURVE",
"439 932 OFFCURVE",
"407 932 CURVE SMOOTH",
"303 932 LINE SMOOTH",
"266 932 OFFCURVE",
"262 921 OFFCURVE",
"250 898 CURVE SMOOTH",
"191 777 LINE SMOOTH",
"180 755 OFFCURVE",
"190 737 OFFCURVE",
"222 737 CURVE SMOOTH"
);
},
{
closed = 1;
nodes = (
"536 737 LINE SMOOTH",
"577 737 OFFCURVE",
"582 746 OFFCURVE",
"599 770 CURVE SMOOTH",
"680 885 LINE SMOOTH",
"701 914 OFFCURVE",
"680 932 OFFCURVE",
"648 932 CURVE SMOOTH",
"545 932 LINE SMOOTH",
"507 932 OFFCURVE",
"504 921 OFFCURVE",
"492 898 CURVE SMOOTH",
"432 777 LINE SMOOTH",
"422 755 OFFCURVE",
"432 737 OFFCURVE",
"464 737 CURVE SMOOTH"
);
}
);
width = 756;
}
);
note = Ohungarumlaut;
unicode = 0150;
},
{
glyphname = Omacron;
lastChange = "2015-07-18 13:06:17 +0000";
layers = (
{
layerId = "CB7AEA60-8A82-4B68-BB53-DB0CB6827011";
name = SemiBold;
paths = (
{
closed = 1;
nodes = (
"612 -15 OFFCURVE",
"733 116 OFFCURVE",
"733 340 CURVE SMOOTH",
"733 564 OFFCURVE",
"612 695 OFFCURVE",
"378 695 CURVE SMOOTH",
"144 695 OFFCURVE",
"23 564 OFFCURVE",
"23 340 CURVE SMOOTH",
"23 116 OFFCURVE",
"144 -15 OFFCURVE",
"378 -15 CURVE SMOOTH"
);
},
{
closed = 1;
nodes = (
"272 128 OFFCURVE",
"224 201 OFFCURVE",
"224 340 CURVE SMOOTH",
"224 479 OFFCURVE",
"272 551 OFFCURVE",
"378 551 CURVE SMOOTH",
"484 551 OFFCURVE",
"532 479 OFFCURVE",
"532 340 CURVE SMOOTH",
"532 201 OFFCURVE",
"484 128 OFFCURVE",
"378 128 CURVE SMOOTH"
);
},
{
closed = 1;
nodes = (
"514 741 LINE SMOOTH",
"553 741 OFFCURVE",
"562 757 OFFCURVE",
"562 791 CURVE SMOOTH",
"562 837 LINE SMOOTH",
"562 871 OFFCURVE",
"553 887 OFFCURVE",
"514 887 CURVE SMOOTH",
"245 887 LINE SMOOTH",
"206 887 OFFCURVE",
"196 871 OFFCURVE",
"196 837 CURVE SMOOTH",
"196 791 LINE SMOOTH",
"196 757 OFFCURVE",
"206 741 OFFCURVE",
"245 741 CURVE SMOOTH"
);
}
);
width = 756;
}
);
note = Omacron;
unicode = 014C;
},
{
glyphname = Oslash;
lastChange = "2015-07-18 13:06:17 +0000";
layers = (
{
layerId = "CB7AEA60-8A82-4B68-BB53-DB0CB6827011";
name = SemiBold;
paths = (
{
closed = 1;
nodes = (
"612 -15 OFFCURVE",
"733 116 OFFCURVE",
"733 340 CURVE SMOOTH",
"733 564 OFFCURVE",
"612 695 OFFCURVE",
"378 695 CURVE SMOOTH",
"144 695 OFFCURVE",
"23 564 OFFCURVE",
"23 340 CURVE SMOOTH",
"23 116 OFFCURVE",
"144 -15 OFFCURVE",
"378 -15 CURVE SMOOTH"
);
},
{
closed = 1;
nodes = (
"280 -86 LINE SMOOTH",
"296 -86 OFFCURVE",
"304 -78 OFFCURVE",
"309 -66 CURVE SMOOTH",
"628 720 LINE SMOOTH",
"635 737 OFFCURVE",
"634 751 OFFCURVE",
"615 751 CURVE SMOOTH",
"471 751 LINE SMOOTH",
"454 751 OFFCURVE",
"446 743 OFFCURVE",
"441 731 CURVE SMOOTH",
"122 -55 LINE SMOOTH",
"115 -72 OFFCURVE",
"117 -86 OFFCURVE",
"135 -86 CURVE SMOOTH"
);
},
{
closed = 1;
nodes = (
"272 128 OFFCURVE",
"224 201 OFFCURVE",
"224 340 CURVE SMOOTH",
"224 479 OFFCURVE",
"272 551 OFFCURVE",
"378 551 CURVE SMOOTH",
"484 551 OFFCURVE",
"532 479 OFFCURVE",
"532 340 CURVE SMOOTH",
"532 201 OFFCURVE",
"484 128 OFFCURVE",
"378 128 CURVE SMOOTH"
);
}
);
width = 756;
}
);
note = Oslash;
unicode = 00D8;
},
{
glyphname = Oslashacute;
lastChange = "2015-07-18 13:06:18 +0000";
layers = (
{
layerId = "CB7AEA60-8A82-4B68-BB53-DB0CB6827011";
name = SemiBold;
paths = (
{
closed = 1;
nodes = (
"612 -15 OFFCURVE",
"733 116 OFFCURVE",
"733 340 CURVE SMOOTH",
"733 564 OFFCURVE",
"612 695 OFFCURVE",
"378 695 CURVE SMOOTH",
"144 695 OFFCURVE",
"23 564 OFFCURVE",
"23 340 CURVE SMOOTH",
"23 116 OFFCURVE",
"144 -15 OFFCURVE",
"378 -15 CURVE SMOOTH"
);
},
{
closed = 1;
nodes = (
"280 -86 LINE SMOOTH",
"296 -86 OFFCURVE",
"304 -78 OFFCURVE",
"309 -66 CURVE SMOOTH",
"628 720 LINE SMOOTH",
"635 737 OFFCURVE",
"634 751 OFFCURVE",
"615 751 CURVE SMOOTH",
"471 751 LINE SMOOTH",
"454 751 OFFCURVE",
"446 743 OFFCURVE",
"441 731 CURVE SMOOTH",
"122 -55 LINE SMOOTH",
"115 -72 OFFCURVE",
"117 -86 OFFCURVE",
"135 -86 CURVE SMOOTH"
);
},
{
closed = 1;
nodes = (
"272 128 OFFCURVE",
"224 201 OFFCURVE",
"224 340 CURVE SMOOTH",
"224 479 OFFCURVE",
"272 551 OFFCURVE",
"378 551 CURVE SMOOTH",
"484 551 OFFCURVE",
"532 479 OFFCURVE",
"532 340 CURVE SMOOTH",
"532 201 OFFCURVE",
"484 128 OFFCURVE",
"378 128 CURVE SMOOTH"
);
},
{
closed = 1;
nodes = (
"375 727 LINE SMOOTH",
"415 727 OFFCURVE",
"423 734 OFFCURVE",
"438 760 CURVE SMOOTH",
"503 875 LINE SMOOTH",
"520 906 OFFCURVE",
"503 922 OFFCURVE",
"471 922 CURVE SMOOTH",
"351 922 LINE SMOOTH",
"314 922 OFFCURVE",
"308 912 OFFCURVE",
"299 888 CURVE SMOOTH",
"255 767 LINE SMOOTH",
"247 744 OFFCURVE",
"255 727 OFFCURVE",
"286 727 CURVE SMOOTH"
);
}
);
width = 756;
}
);
note = Oslashacute;
unicode = 01FE;
},
{
glyphname = Otilde;
lastChange = "2015-07-18 13:06:16 +0000";
layers = (
{
layerId = "CB7AEA60-8A82-4B68-BB53-DB0CB6827011";
name = SemiBold;
paths = (
{
closed = 1;
nodes = (
"612 -15 OFFCURVE",
"733 116 OFFCURVE",
"733 340 CURVE SMOOTH",
"733 564 OFFCURVE",
"612 695 OFFCURVE",
"378 695 CURVE SMOOTH",
"144 695 OFFCURVE",
"23 564 OFFCURVE",
"23 340 CURVE SMOOTH",
"23 116 OFFCURVE",
"144 -15 OFFCURVE",
"378 -15 CURVE SMOOTH"
);
},
{
closed = 1;
nodes = (
"272 128 OFFCURVE",
"224 201 OFFCURVE",
"224 340 CURVE SMOOTH",
"224 479 OFFCURVE",
"272 551 OFFCURVE",
"378 551 CURVE SMOOTH",
"484 551 OFFCURVE",
"532 479 OFFCURVE",
"532 340 CURVE SMOOTH",
"532 201 OFFCURVE",
"484 128 OFFCURVE",
"378 128 CURVE SMOOTH"
);
},
{
closed = 1;
nodes = (
"532 741 OFFCURVE",
"564 768 OFFCURVE",
"603 825 CURVE SMOOTH",
"625 856 OFFCURVE",
"621 872 OFFCURVE",
"584 900 CURVE SMOOTH",
"546 928 OFFCURVE",
"526 934 OFFCURVE",
"509 913 CURVE SMOOTH",
"488 888 OFFCURVE",
"477 879 OFFCURVE",
"453 879 CURVE SMOOTH",
"405 879 OFFCURVE",
"368 929 OFFCURVE",
"289 929 CURVE SMOOTH",
"232 929 OFFCURVE",
"200 899 OFFCURVE",
"162 847 CURVE SMOOTH",
"140 816 OFFCURVE",
"145 801 OFFCURVE",
"181 774 CURVE SMOOTH",
"218 745 OFFCURVE",
"239 738 OFFCURVE",
"256 759 CURVE",
"276 782 OFFCURVE",
"288 791 OFFCURVE",
"313 791 CURVE SMOOTH",
"364 791 OFFCURVE",
"409 741 OFFCURVE",
"472 741 CURVE SMOOTH"
);
}
);
width = 756;
}
);
note = Otilde;
unicode = 00D5;
},
{
glyphname = OE;
lastChange = "2015-07-18 14:22:37 +0000";
layers = (
{
layerId = "CB7AEA60-8A82-4B68-BB53-DB0CB6827011";
name = SemiBold;
paths = (
{
closed = 1;
nodes = (
"23 112 OFFCURVE",
"136 -15 OFFCURVE",
"338 -15 CURVE SMOOTH",
"438 -15 OFFCURVE",
"523 16 OFFCURVE",
"559 72.918 CURVE",
"559 50 LINE SMOOTH",
"559 16 OFFCURVE",
"572 0 OFFCURVE",
"611 0 CURVE SMOOTH",
"1025 0 LINE SMOOTH",
"1064 0 OFFCURVE",
"1073 16 OFFCURVE",
"1073 49 CURVE SMOOTH",
"1073 95 LINE SMOOTH",
"1073 129 OFFCURVE",
"1064 145 OFFCURVE",
"1025 145 CURVE SMOOTH",
"761 145 LINE",
"761 268 LINE",
"936 268 LINE SMOOTH",
"975 268 OFFCURVE",
"985 284 OFFCURVE",
"985 318 CURVE SMOOTH",
"985 362 LINE SMOOTH",
"985 396 OFFCURVE",
"975 412 OFFCURVE",
"936 412 CURVE SMOOTH",
"761 412 LINE",
"761 534 LINE",
"1026 534 LINE SMOOTH",
"1065 534 OFFCURVE",
"1074 550 OFFCURVE",
"1074 584 CURVE SMOOTH",
"1074 630 LINE SMOOTH",
"1074 664 OFFCURVE",
"1065 680 OFFCURVE",
"1026 680 CURVE SMOOTH",
"611 680 LINE SMOOTH",
"572 680 OFFCURVE",
"559 663 OFFCURVE",
"559 629 CURVE SMOOTH",
"559 607.791 LINE",
"520 664 OFFCURVE",
"434 695 OFFCURVE",
"338 695 CURVE SMOOTH",
"136 695 OFFCURVE",
"23 568 OFFCURVE",
"23 340 CURVE SMOOTH"
);
},
{
closed = 1;
nodes = (
"224 479 OFFCURVE",
"272 551 OFFCURVE",
"378 551 CURVE SMOOTH",
"484 551 OFFCURVE",
"532 479 OFFCURVE",
"532 340 CURVE SMOOTH",
"532 201 OFFCURVE",
"484 128 OFFCURVE",
"378 128 CURVE SMOOTH",
"272 128 OFFCURVE",
"224 201 OFFCURVE",
"224 340 CURVE SMOOTH"
);
}
);
width = 1097;
}
);
note = OE;
unicode = 0152;
},
{
glyphname = P;
lastChange = "2015-07-18 14:22:45 +0000";
layers = (
{
layerId = "CB7AEA60-8A82-4B68-BB53-DB0CB6827011";
name = SemiBold;
paths = (
{
closed = 1;
nodes = (
"192 0 LINE SMOOTH",
"232 0 OFFCURVE",
"245 16 OFFCURVE",
"245 50 CURVE SMOOTH",
"245 212 LINE",
"340 212 LINE SMOOTH",
"531 212 OFFCURVE",
"612 293 OFFCURVE",
"612 445 CURVE SMOOTH",
"612 597 OFFCURVE",
"531 680 OFFCURVE",
"340 680 CURVE SMOOTH",
"95 680 LINE SMOOTH",
"56 680 OFFCURVE",
"43 663 OFFCURVE",
"43 629 CURVE SMOOTH",
"43 50 LINE SMOOTH",
"43 16 OFFCURVE",
"56 0 OFFCURVE",
"95 0 CURVE SMOOTH"
);
},
{
closed = 1;
nodes = (
"245 534 LINE",
"324 534 LINE SMOOTH",
"378 534 OFFCURVE",
"410 506 OFFCURVE",
"410 445 CURVE SMOOTH",
"410 385 OFFCURVE",
"378 357 OFFCURVE",
"324 357 CURVE SMOOTH",
"245 357 LINE"
);
}
);
width = 618;
}
);
note = P;
unicode = 0050;
},
{
glyphname = Thorn;
lastChange = "2015-07-18 13:06:16 +0000";
layers = (
{
layerId = "CB7AEA60-8A82-4B68-BB53-DB0CB6827011";
name = SemiBold;
paths = (
{
closed = 1;
nodes = (
"192 0 LINE SMOOTH",
"232 0 OFFCURVE",
"245 16 OFFCURVE",
"245 50 CURVE SMOOTH",
"245 106 LINE",
"340 106 LINE SMOOTH",
"531 106 OFFCURVE",
"612 188 OFFCURVE",
"612 340 CURVE SMOOTH",
"612 491 OFFCURVE",
"531 574 OFFCURVE",
"340 574 CURVE SMOOTH",
"245 574 LINE",
"245 629 LINE SMOOTH",
"245 663 OFFCURVE",
"232 680 OFFCURVE",
"192 680 CURVE SMOOTH",
"95 680 LINE SMOOTH",
"56 680 OFFCURVE",
"43 663 OFFCURVE",
"43 629 CURVE SMOOTH",
"43 50 LINE SMOOTH",
"43 16 OFFCURVE",
"56 0 OFFCURVE",
"95 0 CURVE SMOOTH"
);
},
{
closed = 1;
nodes = (
"245 428 LINE",
"324 428 LINE SMOOTH",
"378 428 OFFCURVE",
"410 400 OFFCURVE",
"410 340 CURVE SMOOTH",
"410 280 OFFCURVE",
"378 252 OFFCURVE",
"324 252 CURVE SMOOTH",
"245 252 LINE"
);
}
);
width = 635;
}
);
note = Thorn;
unicode = 00DE;
},
{
glyphname = Q;
lastChange = "2015-07-18 13:06:16 +0000";
layers = (
{
layerId = "CB7AEA60-8A82-4B68-BB53-DB0CB6827011";
name = SemiBold;
paths = (
{
closed = 1;
nodes = (
"592 -181 OFFCURVE",
"636 -163 OFFCURVE",
"673 -135 CURVE SMOOTH",
"686 -125 OFFCURVE",
"687 -120 OFFCURVE",
"680 -108 CURVE",
"634 -36 LINE SMOOTH",
"628 -27 OFFCURVE",
"622 -25 OFFCURVE",
"610 -33 CURVE SMOOTH",
"590 -46 OFFCURVE",
"564 -56 OFFCURVE",
"526 -56 CURVE SMOOTH",
"487 -56 OFFCURVE",
"449 -42 OFFCURVE",
"440 -7 CURVE",
"634 17 OFFCURVE",
"733 138 OFFCURVE",
"733 340 CURVE SMOOTH",
"733 564 OFFCURVE",
"612 695 OFFCURVE",
"378 695 CURVE SMOOTH",
"144 695 OFFCURVE",
"23 564 OFFCURVE",
"23 340 CURVE SMOOTH",
"23 143 OFFCURVE",
"115 18 OFFCURVE",
"296 -9 CURVE",
"311 -109 OFFCURVE",
"394 -181 OFFCURVE",
"524 -181 CURVE SMOOTH"
);
},
{
closed = 1;
nodes = (
"272 128 OFFCURVE",
"224 201 OFFCURVE",
"224 340 CURVE SMOOTH",
"224 479 OFFCURVE",
"272 551 OFFCURVE",
"378 551 CURVE SMOOTH",
"484 551 OFFCURVE",
"532 479 OFFCURVE",
"532 340 CURVE SMOOTH",
"532 201 OFFCURVE",
"484 128 OFFCURVE",
"378 128 CURVE SMOOTH"
);
}
);
width = 756;
}
);
note = Q;
unicode = 0051;
},
{
glyphname = R;
lastChange = "2015-07-18 13:06:17 +0000";
layers = (
{
layerId = "CB7AEA60-8A82-4B68-BB53-DB0CB6827011";
name = SemiBold;
paths = (
{
closed = 1;
nodes = (
"192 0 LINE SMOOTH",
"232 0 OFFCURVE",
"245 16 OFFCURVE",
"245 50 CURVE SMOOTH",
"245 222 LINE",
"322 222 LINE",
"405 19 LINE SMOOTH",
"411 3 OFFCURVE",
"422 0 OFFCURVE",
"441 0 CURVE SMOOTH",
"581 0 LINE SMOOTH",
"602 0 OFFCURVE",
"611 17 OFFCURVE",
"601 37 CURVE SMOOTH",
"502 252 LINE",
"576 288 OFFCURVE",
"612 355 OFFCURVE",
"612 449 CURVE SMOOTH",
"612 601 OFFCURVE",
"528 680 OFFCURVE",
"341 680 CURVE SMOOTH",
"95 680 LINE SMOOTH",
"56 680 OFFCURVE",
"43 663 OFFCURVE",
"43 629 CURVE SMOOTH",
"43 50 LINE SMOOTH",
"43 16 OFFCURVE",
"56 0 OFFCURVE",
"95 0 CURVE SMOOTH"
);
},
{
closed = 1;
nodes = (
"245 534 LINE",
"324 534 LINE SMOOTH",
"378 534 OFFCURVE",
"410 508 OFFCURVE",
"410 449 CURVE SMOOTH",
"410 390 OFFCURVE",
"377 365 OFFCURVE",
"319 365 CURVE SMOOTH",
"245 365 LINE"
);
}
);
width = 635;
}
);
note = R;
unicode = 0052;
},
{
glyphname = Racute;
lastChange = "2015-07-18 13:06:16 +0000";
layers = (
{
layerId = "CB7AEA60-8A82-4B68-BB53-DB0CB6827011";
name = SemiBold;
paths = (
{
closed = 1;
nodes = (
"192 0 LINE SMOOTH",
"232 0 OFFCURVE",
"245 16 OFFCURVE",
"245 50 CURVE SMOOTH",
"245 222 LINE",
"322 222 LINE",
"405 19 LINE SMOOTH",
"411 3 OFFCURVE",
"422 0 OFFCURVE",
"441 0 CURVE SMOOTH",
"581 0 LINE SMOOTH",
"602 0 OFFCURVE",
"611 17 OFFCURVE",
"601 37 CURVE SMOOTH",
"502 252 LINE",
"576 288 OFFCURVE",
"612 355 OFFCURVE",
"612 449 CURVE SMOOTH",
"612 601 OFFCURVE",
"528 680 OFFCURVE",
"341 680 CURVE SMOOTH",
"95 680 LINE SMOOTH",
"56 680 OFFCURVE",
"43 663 OFFCURVE",
"43 629 CURVE SMOOTH",
"43 50 LINE SMOOTH",
"43 16 OFFCURVE",
"56 0 OFFCURVE",
"95 0 CURVE SMOOTH"
);
},
{
closed = 1;
nodes = (
"245 534 LINE",
"324 534 LINE SMOOTH",
"378 534 OFFCURVE",
"410 508 OFFCURVE",
"410 449 CURVE SMOOTH",
"410 390 OFFCURVE",
"377 365 OFFCURVE",
"319 365 CURVE SMOOTH",
"245 365 LINE"
);
},
{
closed = 1;
nodes = (
"353 729 LINE SMOOTH",
"393 729 OFFCURVE",
"401 736 OFFCURVE",
"416 762 CURVE SMOOTH",
"481 877 LINE SMOOTH",
"498 908 OFFCURVE",
"481 924 OFFCURVE",
"449 924 CURVE SMOOTH",
"329 924 LINE SMOOTH",
"292 924 OFFCURVE",
"286 914 OFFCURVE",
"277 890 CURVE SMOOTH",
"233 769 LINE SMOOTH",
"225 746 OFFCURVE",
"233 729 OFFCURVE",
"264 729 CURVE SMOOTH"
);
}
);
width = 635;
}
);
note = Racute;
unicode = 0154;
},
{
glyphname = Rcaron;
lastChange = "2015-07-18 13:06:17 +0000";
layers = (
{
layerId = "CB7AEA60-8A82-4B68-BB53-DB0CB6827011";
name = SemiBold;
paths = (
{
closed = 1;
nodes = (
"192 0 LINE SMOOTH",
"232 0 OFFCURVE",
"245 16 OFFCURVE",
"245 50 CURVE SMOOTH",
"245 222 LINE",
"322 222 LINE",
"405 19 LINE SMOOTH",
"411 3 OFFCURVE",
"422 0 OFFCURVE",
"441 0 CURVE SMOOTH",
"581 0 LINE SMOOTH",
"602 0 OFFCURVE",
"611 17 OFFCURVE",
"601 37 CURVE SMOOTH",
"502 252 LINE",
"576 288 OFFCURVE",
"612 355 OFFCURVE",
"612 449 CURVE SMOOTH",
"612 601 OFFCURVE",
"528 680 OFFCURVE",
"341 680 CURVE SMOOTH",
"95 680 LINE SMOOTH",
"56 680 OFFCURVE",
"43 663 OFFCURVE",
"43 629 CURVE SMOOTH",
"43 50 LINE SMOOTH",
"43 16 OFFCURVE",
"56 0 OFFCURVE",
"95 0 CURVE SMOOTH"
);
},
{
closed = 1;
nodes = (
"245 534 LINE",
"324 534 LINE SMOOTH",
"378 534 OFFCURVE",
"410 508 OFFCURVE",
"410 449 CURVE SMOOTH",
"410 390 OFFCURVE",
"377 365 OFFCURVE",
"319 365 CURVE SMOOTH",
"245 365 LINE"
);
},
{
closed = 1;
nodes = (
"389 738 LINE SMOOTH",
"424 738 OFFCURVE",
"428 744 OFFCURVE",
"443 764 CURVE SMOOTH",
"539 889 LINE SMOOTH",
"561 917 OFFCURVE",
"553 936 OFFCURVE",
"521 936 CURVE SMOOTH",
"444 936 LINE SMOOTH",
"411 936 OFFCURVE",
"402 930 OFFCURVE",
"389 911 CURVE SMOOTH",
"339 834 LINE",
"288 911 LINE SMOOTH",
"275 930 OFFCURVE",
"266 936 OFFCURVE",
"233 936 CURVE SMOOTH",
"156 936 LINE SMOOTH",
"124 936 OFFCURVE",
"116 917 OFFCURVE",
"138 889 CURVE SMOOTH",
"234 764 LINE SMOOTH",
"250 744 OFFCURVE",
"253 738 OFFCURVE",
"288 738 CURVE SMOOTH"
);
}
);
width = 635;
}
);
note = Rcaron;
unicode = 0158;
},
{
glyphname = Rcommaaccent;
lastChange = "2015-07-18 13:06:16 +0000";
layers = (
{
layerId = "CB7AEA60-8A82-4B68-BB53-DB0CB6827011";
name = SemiBold;
paths = (
{
closed = 1;
nodes = (
"192 0 LINE SMOOTH",
"232 0 OFFCURVE",
"245 16 OFFCURVE",
"245 50 CURVE SMOOTH",
"245 222 LINE",
"322 222 LINE",
"405 19 LINE SMOOTH",
"411 3 OFFCURVE",
"422 0 OFFCURVE",
"441 0 CURVE SMOOTH",
"581 0 LINE SMOOTH",
"602 0 OFFCURVE",
"611 17 OFFCURVE",
"601 37 CURVE SMOOTH",
"502 252 LINE",
"576 288 OFFCURVE",
"612 355 OFFCURVE",
"612 449 CURVE SMOOTH",
"612 601 OFFCURVE",
"528 680 OFFCURVE",
"341 680 CURVE SMOOTH",
"95 680 LINE SMOOTH",
"56 680 OFFCURVE",
"43 663 OFFCURVE",
"43 629 CURVE SMOOTH",
"43 50 LINE SMOOTH",
"43 16 OFFCURVE",
"56 0 OFFCURVE",
"95 0 CURVE SMOOTH"
);
},
{
closed = 1;
nodes = (
"314 -264 LINE SMOOTH",
"337 -264 OFFCURVE",
"347 -256 OFFCURVE",
"353 -241 CURVE SMOOTH",
"419 -86 LINE SMOOTH",
"434 -50 OFFCURVE",
"428 -36 OFFCURVE",
"389 -36 CURVE SMOOTH",
"309 -36 LINE SMOOTH",
"278 -36 OFFCURVE",
"268 -43 OFFCURVE",
"259 -73 CURVE SMOOTH",
"214 -231 LINE SMOOTH",
"209 -250 OFFCURVE",
"213 -264 OFFCURVE",
"238 -264 CURVE SMOOTH"
);
},
{
closed = 1;
nodes = (
"245 534 LINE",
"324 534 LINE SMOOTH",
"378 534 OFFCURVE",
"410 508 OFFCURVE",
"410 449 CURVE SMOOTH",
"410 390 OFFCURVE",
"377 365 OFFCURVE",
"319 365 CURVE SMOOTH",
"245 365 LINE"
);
}
);
width = 635;
}
);
note = Rcommaaccent;
unicode = 0156;
},
{
glyphname = Rdotbelow;
lastChange = "2015-07-18 13:06:18 +0000";
layers = (
{
layerId = "CB7AEA60-8A82-4B68-BB53-DB0CB6827011";
name = SemiBold;
paths = (
{
closed = 1;
nodes = (
"192 0 LINE SMOOTH",
"232 0 OFFCURVE",
"245 16 OFFCURVE",
"245 50 CURVE SMOOTH",
"245 222 LINE",
"322 222 LINE",
"405 19 LINE SMOOTH",
"411 3 OFFCURVE",
"422 0 OFFCURVE",
"441 0 CURVE SMOOTH",
"581 0 LINE SMOOTH",
"602 0 OFFCURVE",
"611 17 OFFCURVE",
"601 37 CURVE SMOOTH",
"502 252 LINE",
"576 288 OFFCURVE",
"612 355 OFFCURVE",
"612 449 CURVE SMOOTH",
"612 601 OFFCURVE",
"528 680 OFFCURVE",
"341 680 CURVE SMOOTH",
"95 680 LINE SMOOTH",
"56 680 OFFCURVE",
"43 663 OFFCURVE",
"43 629 CURVE SMOOTH",
"43 50 LINE SMOOTH",
"43 16 OFFCURVE",
"56 0 OFFCURVE",
"95 0 CURVE SMOOTH"
);
},
{
closed = 1;
nodes = (
"324 -206 LINE SMOOTH",
"361 -206 OFFCURVE",
"385 -177 OFFCURVE",
"385 -142 CURVE SMOOTH",
"385 -117 LINE SMOOTH",
"385 -81 OFFCURVE",
"360 -53 OFFCURVE",
"324 -53 CURVE SMOOTH",
"297 -53 LINE SMOOTH",
"262 -53 OFFCURVE",
"236 -81 OFFCURVE",
"236 -117 CURVE SMOOTH",
"236 -142 LINE SMOOTH",
"236 -177 OFFCURVE",
"262 -206 OFFCURVE",
"297 -206 CURVE SMOOTH"
);
},
{
closed = 1;
nodes = (
"245 534 LINE",
"324 534 LINE SMOOTH",
"378 534 OFFCURVE",
"410 508 OFFCURVE",
"410 449 CURVE SMOOTH",
"410 390 OFFCURVE",
"377 365 OFFCURVE",
"319 365 CURVE SMOOTH",
"245 365 LINE"
);
}
);
width = 635;
}
);
note = Rdotbelow;
unicode = 1E5A;
},
